<?xml version="1.0" encoding="UTF-8"?>
<svg id="Layer_2" data-name="Layer 2" xmlns="http://www.w3.org/2000/svg" viewBox="0 0 805 805">
  <defs>
    <style>
      .cls-1 {
        fill: none;
        opacity: 0;
        stroke-width: 5px;
      }

      .cls-1, .cls-2 {
        stroke: #000;
        stroke-miterlimit: 10;
      }

      .cls-3, .cls-2 {
        fill: #000;
      }

      .cls-3, .cls-4 {
        stroke-width: 0px;
      }

      .cls-2 {
        stroke-width: 2px;
      }

      .cls-4 {
        fill: #fff;
      }
    </style>
  </defs>
  <g id="Vector_layer" data-name="Vector layer">
    <rect class="cls-1" x="2.5" y="2.5" width="800" height="800"/>
  </g>
  <g id="Vector_layer-2" data-name="Vector layer">
    <path class="cls-2" d="M372.79,522.3c-38.08-15.83-15.09-69.2-15.47-100.31.79-11.96.42-23.97,1.73-35.89.37-.92.49-1.93.36-2.91.02-.15.04-.3.06-.44,1.61-6.39-2.6-21.77,2.75-25.16,4-1.34,6.73,2.81,5.95,6.44-.12,8.46.35,16.97-.76,25.38-1.65,17.65-.87,35.45-3.28,53.06-1.76,22.74-16.15,66.68,15.67,73.34,26.26,1.58,52.7-2.09,78.99-2.77,22.76-1.46,29.21-12.06,29.01-25.83.03-.41.02-.82-.03-1.23-.57-13.6-7.19-30.05-10.92-43.83-2.87-14.11-7.43-27.66-13.73-40.61-1.18-3.56-11.32-25.69-14.79-40.07.79-.78,1.35-1.77,1.58-2.93.44-2.25-.58-4.59-2.47-5.86-.07-.05-.14-.09-.22-.14.28-3.02,1.79-4.39,5.15-3.05,3.71,1.71,3.44,6.57,4.57,9.96,1.81,7.69,4.29,15.21,7.09,22.6,7.19,18.54,16.94,36.15,20.45,55.92,4.8,21.59,18.47,45.84,8.51,67.59-3.1,4.43-6.96,7.65-11.3,10.01-1.14-.67-2.49-.9-3.83-.69-1.73.28-3.09,1.29-4.07,2.63-.83.24-1.61.66-2.26,1.24-.32.28-.59.59-.82.92-10.76,2.62-22.82,2.35-33.36,2.72-14.13.02-28.71,2.52-42.99,2.52-7.29,0-14.51-.65-21.56-2.61Z"/>
    <path class="cls-2" d="M515.38,490.58c-6.36-.18-13.23-.62-19.09-3.16-3.92-3.17-.01-8.88,4.44-6.86,21.55,5.25,30.93-.68,46.38-14.2,6.8-4.53,18.62-6.85,20.23-15.98-3.66-18.59-7.67-37.44-14.12-55.32-2.78-12.75-17.47.49-24.22-7.47-4-7.71-5.1-16.77-7.55-25.08-3.93-12.45-7.91-25.31-15.04-36.32-4.8-9.22-29.82-6.49-25.07-16.06,3.15-4.66,13.97,1.27,18.5,2.25,19.88,7.16,23.57,31.71,30.14,49.32,1.68,6.56,3.23,13.15,5.32,19.61,9.31-.02,18.61-4.03,24.06,7.5,8.26,17.71,11.05,37.43,15.78,56.26,4.48,12.6-7.1,21.12-17.34,25.51-16.75,8.07-19.26,19.95-42.41,20.01Z"/>
    <path class="cls-3" d="M438.74,364.75c.38-.13.77-.25,1.16-.37-.27.32-.55.65-.82.98-.1-.21-.22-.41-.34-.61Z"/>
    <path class="cls-3" d="M447.43,352.68c-1.59-1.07-3.55-1.29-5.42-1.26-.74.01-1.52.03-2.27.15-.18.01-.37.03-.55.06,2.09-1.98,4.25-3.84,6.46-5.55,9.3-7.96,17.79,4.14,7.2,6.61-1.32-.14-2.19,1.17-3.28,1.74-.1.09-.2.18-.3.27-.44-.79-1.07-1.49-1.84-2.01Z"/>
    <path class="cls-3" d="M420.03,361.04s.06.02.09.02h0s-.06-.01-.09-.02Z"/>
    <path class="cls-3" d="M425.79,351.76c3.55-4.53,8.59-2.77,9.55.48-.29.05-.58.09-.87.14-.08.01-.16.03-.24.04-.15-.17-.31-.33-.48-.48-2.22-1.98-5.93-1.88-7.89.46-.85,1.01-1.64,2.05-2.18,3.27-.01.03-.03.07-.05.1-.3,0-.6.01-.91.02.98-1.36,2-2.71,3.05-4.04Z"/>
    <path class="cls-3" d="M511.43,382.42c-1.27-2.13-3.84-3.2-6.23-2.92-1.34-5.91-.89-14.29-3.64-18.47-5.29-17.92-29.46-27.84-31.67-39.84.45-6.36,9.9-4.85,9.13,1.14,4.08,4.66,9.27,8.42,13.7,12.8,6.17,5.74,11.61,12.33,15.32,19.94,2.18,4.28,10.4,27.74,4.11,30.63.11-1.12-.11-2.27-.72-3.29Z"/>
    <path class="cls-2" d="M554.85,468.48c-3.82-.64-3.57-4.54-3.28-7.53-.18-5.7-.8-11.39-1.55-17.05-3.97-16.4-7-35.58-20.68-46.87-3.96-1.76-2.57-8.38,1.84-8.18,5.24,1.55,8.42,7.45,12.01,11.35,6.59,6.21,25.82,68.59,11.66,68.29Z"/>
    <path class="cls-3" d="M506.31,403.56c-11.45-2.28-3.18-16.36-3.73-24.1.95-2.86,4.99-3.7,6.92-1.36.49.56.19.34.94.28,1.08-.07,2.16.29,2.96,1.01,4.36,9.63,11.53,28.61-7.1,24.17ZM508.95,392.61c-.05,2-1.6,3.61,1.36,3.33-.21-1.55-.74-3.16-1.16-4.64.07.05-.17,1.12-.21,1.32Z"/>
    <path class="cls-2" d="M245.09,490.45c-13.21,17.51-35.71-.68-46.1-12.49-13.15-1.09.39-20,7.49-21.78,15.53-5.77,50.54,16.18,38.61,34.27ZM203.9,469.49c-2.06,4.63,1.08.91,4.41,4.81,6.26,6.72,14.84,13.76,24.16,15.3,5.69-.4,7.15-7.47,3.99-11.51-7.01-7.6-25.33-23.28-32.56-8.6Z"/>
    <path class="cls-2" d="M260.64,467.01c-2.18,2.75-7.86,2.89-8.62-1.13.55-5.76.07-12.08-3.71-16.78-6.9-8.25-18.38-12.63-28.94-9.86-5.66,8.77-12.72,16.86-18.19,25.82,1.45,8.51-13.92,6.81-9.2-1.54,4.5-8.82,11.62-15.95,16.84-24.33,2.62-5.97,8.13-8.63,14.45-8.78,19.73-3.09,44.83,15.35,37.37,36.59Z"/>
    <path class="cls-2" d="M241.39,490.81c-.6-.36-1.51-1.54-.54-6.46,1.56-4.71,4.38-8.87,7.12-12.93,1.68-5.99,13.61-4.74,11.21,2.65-.83,1.22-2.03,2.97-3.54,5.03-1.99,2.74-2.99,4.1-3.93,5.19-2.8,3.22-8.21,7.8-10.32,6.52Z"/>
    <path class="cls-3" d="M208.14,445.95c-4.34,7.59-15.96-4.04-14.99-9.53,4.2-9.75,12.15-17.44,17.78-26.39,5.65-7.45,8.46-16.81,14.22-24.1,2.64-2.23,7.68-.56,7.15,3.27-3.46,7.12-7.52,14.13-11.38,21.09-5.47,9.21-13.94,17.54-18.47,26.84,2.18,3.62,8.76,3.03,5.68,8.83Z"/>
    <path class="cls-3" d="M301.03,425.18c-7.03,7.22-12.13-9.52-18.73-11.76-13.01-9.44-27.2-16.65-43.01-19.88-2.99-.55-5.03-1.67-7.1,1.03-9.39,4.04-12.4-15.91,12.43-8.2,7.83,2.38,16,3.96,23.15,8.1,8.83,5.58,35.96,18.98,33.26,30.71Z"/>
    <path class="cls-3" d="M299.81,439.17c-5.72,6.52-16.03,13.77-33.64,29.69-1.72,1.55-7.32,6.71-7.95,6.12-.2-.18.15-.89.47-1.46-9.54-7.46,18.51-23.3,23.5-28.41,4.51-4.01,7.97-9.62,13.48-12.34,3.68-1.08,6.7,3.49,4.14,6.4Z"/>
    <path class="cls-3" d="M279.71,440.45c-.42.55-.99.97-1.44,1.17-6.56,2.99-17.74-8.27-21.8-12.6-2.31-2.43-5.29-5.19-9.03-7.89-3.55-2.56-6.93-4.46-9.83-5.86-1.75-.89-3.61-1.64-5.48-2.28-3.42-1.27-3.08-6.39.27-7.5,7.65-1.16,54.46,25.74,47.31,34.96Z"/>
    <path class="cls-3" d="M207.09,449.24c-10.6,6.06-27.97-4.06-28.47-16.48,1.15-12.54,10.08-24.87,22.81-27.58,4.03-.79,9.14-2.56,12.8-.03,3.28,3.6-1.42,8.01-5.4,6.97-5.47.35-11.22,2.2-15.15,6.17-2.83,4.37-6.85,9.85-6.03,15.25,1.7,5.48,8.41,9.86,13.8,8.78,4.51-3.22,8.94,3.08,5.64,6.91Z"/>
    <path class="cls-3" d="M217.67,452.36c-3.6,4.2-10.77-1.02-7.74-5.67,3.52-5.26,11.95.77,7.74,5.67Z"/>
    <path class="cls-3" d="M218.93,457.54c-3.24,3.84-11.49,2.3-9.53-3.67,1.95-4.99,12.42-21.46,15.75-9.55-.78,3.31-4.07,5.49-5.57,8.5.77,1.58.55,3.42-.65,4.73Z"/>
    <path class="cls-3" d="M239.14,443.59c-5.7,4.73-9.07,12.35-15.12,16.27-14.23-.42,5.09-17.12,8.49-21.19,3.39-3.23,9.71.6,6.62,4.92Z"/>
    <path class="cls-3" d="M247.69,449.25c-4.57,4.55-8.79,9.63-13.8,13.66-3.05,1.78-7.61-.88-6.18-4.56,2.09-3.52,5.81-5.91,8.46-9.06,2.28-2.01,4-5.04,7-6,3.53-1.1,6.93,2.85,4.52,5.97Z"/>
    <path class="cls-3" d="M253.98,457.89c-5.41,3.08-13.19,16.25-19.65,11.44-4-5.73,5.43-8.71,8.26-12.44,2.18-1.77,4.16-4.07,6.88-4.97,3.51-1.09,6.88,2.88,4.51,5.98Z"/>
    <path class="cls-3" d="M256.99,472.52c-3.06,2.34-7.06,3.52-10.57,5.1-4.79,1.2-7.02-5.16-2.89-7.59,3.83-1.09,7.42-4.25,11.5-3.93,2.89.63,3.87,4.29,1.95,6.42Z"/>
    <path class="cls-2" d="M254.3,474.34c-5.98,5.72-7.79-.74-11.66-3.8-2.94-.39-5.33-2.28-6.56-4.9-6.53-3.73-13.45-7.17-21.01-8.06-2.52-.92-4.44,1.49-6.98.94-3.03-.65-2.66-5.62-1.02-8.06,1.63-2.42,4.93-3.4,7.88-2.2-2.61-2.12-.8-6.14,1.99-7.1-4.09-10,11.36-7.02,16.53-4.87,7.98,2.47,13.48,9.1,18.44,15.45,1.05,1.38,2.65,2.68,2.6,4.56-.2.46-.06.63.4.51,6.15,1.15,2.06,8.64.22,12,.47,1.86.37,3.95-.82,5.51Z"/>
    <path class="cls-2" d="M299.9,433.84c-4.51,4.64-11.12,6.85-16.14,10.98-1.89,1.65-3.46,3.51-5.84,4.54-.08.11-.16.23-.25.35-.19.27-.39.54-.6.79.53,2.7-1.49,5.21-4.07,5.84.07,4.24-5.07,7.04-8.57,4.63-3.38,1.81-9.13.44-6.91-4.69-2.7-1.69-6.08-3.3-6.68-6.4-7.68-4.97-14.02-11.98-19.93-18.93-1.18.52-2.51.77-3.79.56-.11.23-.25.44-.41.64-.14.15-.28.31-.41.46-.73,4.69-3.57,8.28-9.07,6.65-.8-.61-1.04.38-1.74.72-.61.56-1.46.44-1.77,1.2-2.65,5.07-14.46,2.72-12.86-3.64-2.49-3.1.68-7.28,4.3-7.09-.89-2.94,1.73-5.73,4.64-5.83-2.43-3.54-.37-6.36,2.74-7.88.19-1.75,1.77-3.28,3.38-3.8-3.98-2.81-.14-8.22,3.95-7.72-3.25-4.05-1.58-9.53,4-9.72,10-17.32,32.41-2.92,45.66,2.92,4.86-2.59,7.58,3.39,10.54,6.15,7.75,5.45,23.74,18.84,19.82,29.27ZM255.29,426.32c6.44,3.86,12.46,9.5,19.43,11.69.54-1.96,1.43-4.36-.04-6.1-4.9-1.53-9.21-5.02-14-7.14-1.6,1.26-3.73,1.65-5.74,1.3.11.09.22.17.34.24ZM270.57,409.43s.01-.1.02-.15c-.12-.07-.24-.14-.35-.21.06.05.31.33.34.37Z"/>
    <path class="cls-3" d="M363.8,360.22c-12.21,14.24-24.54,29.58-41.08,38.88-9.43,4.93-19.13,9.75-29.37,12.74-1.55,1.43-3.69,2.81-5.89,1.68-6.66-2.66-2.36-9,3.2-9.3,14.3-4.74,29.21-10.85,40.52-21,8.72-8.82,17.76-17.46,25.36-27.27,3.03-4.08,10.71-.55,7.27,4.28Z"/>
    <path class="cls-4" d="M257.57,467.82c-1.71,1.75-4.23-.21-2.93-2.32.53-1.62,1.68-2.97,2.1-4.62.25-3.61-.99-7.22-2.29-10.55-.98-3.07-4.14-4.44-6.67-6.03-2.08-1.23-4.15-2.49-6.3-3.59-6.66-3.65-14.72-2.63-21.75-.66-.75,2.83-5.87,1.14-4.25-1.61,1.26-1.64,3.62-1.85,5.48-2.43,6.24-1.39,13-2.19,19.13.08,3.39,1.29,6.5,3.2,9.61,5.05,3.17,1.91,6.82,3.79,8.13,7.5,1.62,4.1,3.21,8.65,2.53,13.1-.66,2.12-1.89,4.06-2.78,6.08Z"/>
    <path class="cls-4" d="M283.18,435.93c-1.46,1.38-2.84.29-3.6-1.18-.61-.92-1.33-1.75-2.12-2.53-1.66-1.69-3.69-2.97-5.69-4.21-4.33-2.67-8.65-5.37-13.07-7.9-7.31-4.24-15.63-6.59-23.56-9.12-2.02.08-3.45-2.72-1.39-3.84,1.82-.6,3.8.96,5.56,1.4,6.15,2.13,12.5,3.81,18.29,6.86,6.18,3.3,12.1,7.07,18.06,10.76,1.99,1.17,9.71,7.43,7.53,9.74Z"/>
    <path class="cls-4" d="M210,425.83c-.73.94-2.24,1.27-3.16.41-.62,1.21-1.26,2.44-1.43,3.8-.57,1.56-2.85,1.76-3.72.36-.8-1.18.31-2.51.67-3.67.84-1.91,1.82-3.79,3.62-4.96,3.47-2.2,5.84.69,4.03,4.06Z"/>
    <path class="cls-2" d="M494.13,494.73c-35.04-7.26-58.65-36.52-68.49-70.3.21.05.41.1.62.15,1.42,2.78,4.66,3.52,7.68,3.52.51,0,1.02-.02,1.51-.06,6.62,19.34,18.32,36.68,34.81,48.26,7.96,3.06,15.2,8.84,23.73,9.94,5.22.07,6.12,8.51.67,8.51-.17,0-.35,0-.53-.02Z"/>
    <path class="cls-3" d="M426.24,352.07c.7-10.36,14.06-6.33,7.01,7.01-2.64,9.13-4.02,18.81-4.17,28.61-1.12.2-2.21.49-3.27.87-2.01.73-3.82,1.97-5.3,3.51-.42-13.84,1.45-27.54,5.73-40Z"/>
    <path class="cls-2" d="M457.08,442.34c-4.03-6.25-7.04-12.82-9.24-19.59.56-.45,1.1-.91,1.61-1.39,1.97-1.84,3.52-3.95,4.75-6.34.05-.09.09-.18.14-.28,3.28,12.18,8.86,24.26,17.1,38.52,2.5,6.73,41.69,19.85,24.05,25.37-17.4-10.68-31.89-14.76-38.42-36.29Z"/>
    <path class="cls-3" d="M449.76,391.78c-1.49-1.58-3.47-2.47-5.55-2.59-.06-.07-.13-.13-.19-.19-.44-.46-.92-.89-1.42-1.26-.16-10.82.71-21.73,1.85-32.39-.85-9.81,12.01-8.03,8.02,5.71-1.56,12.13-2.13,22.56-1.56,32.2-.02,0-.05.01-.07.02-.3-.55-.66-1.06-1.08-1.51Z"/>
    <path class="cls-3" d="M452.58,355.21c-4.66-.5-5.67-6.85-1.19-8.52-.12-3.26,11.02-19.32,14.67-17.36,5.38,1.45,3.23,7.33,1.07,10.69-2.11,4.24-4.84,8.06-7.03,12.03-.74.79-1.9.82-2.78,1.11-1.37,1.06-2.91,2.25-4.73,2.05Z"/>
    <path class="cls-3" d="M446.89,354.44c-1.11-.34-2.06-.89-2.75-1.87-.63-.91-.93-2.05-.74-3.15.38-2.26,2.65-3.58,4.83-3.08,2.21.51,3.87,2.73,3.49,5.01-.17,1.06-.79,2-1.69,2.58-.67.43-1.39.59-2.13.59-.33,0-.67-.03-1.01-.09Z"/>
    <path class="cls-2" d="M484.39,487.48c-3.76-.68-8.96-2.17-9.15-6.76-2.26-1.2-5.7-1.52-5.7-4.89.06-.26-.1-.32-.47-.2-1.42.03-2.45-1.26-3.69-1.42-2.74.35-5.19-1.53-6.44-3.84-2.26.27-4.49-.74-6.12-2.26-9.21-1.55-8.79-14.18-8.36-20.57-3.97-1.21-4.97-5.52-6.97-8.49-2.98-2.89-3.63-6.82-3.86-10.93.1,0,.2,0,.3,0,.7,0,1.39-.04,2.04-.1,2.59-.25,5.13-1.18,7.43-2.36,2.14-1.09,4.17-2.54,5.94-4.17.44,1.05,1.1,2,2.09,2.79.92.43,1.19,3.26,1.98,2.65,2.45-.88,5.26.75,6.41,2.93,1.95,4.08,1.56,8.87,2.94,13.1,1.92,4.01,1.85,9.63,3.13,13.16,2.58.77,3.93,3.34,4.1,5.89,2.86,0,5.2,2.26,5.47,5.08,1.08-.04,2.19.32,3.09.92,3.18-1.86,7.22.2,8.76,3.26.07.52.32.66.75.42,1.7-.17,3.47.67,4.46,2.05.49,0,.97,0,1.46,0,1.24-.01,2.49-.02,3.72.19,1.66-.81,3.73-.7,5.1.63,6.27-.35,7.3,3.3,4.72,6.95-2.47,3.49-8.25,6.98-15.92,6.98-2.25,0-4.67-.3-7.21-.99Z"/>
    <path class="cls-3" d="M444.22,389.19c-.06-.07-.13-.13-.19-.19-.44-.46-.92-.89-1.42-1.26-1.41-1.02-2.78-1.59-4.56-1.49-1.08.06-2.05.47-2.84,1.11-2.95-.17-5.96.09-8.74.98.02-3.76.15-7.51.55-11.26-6.91-4.18-1-14.01.1-20.06,1.74-5.43,5.51-13.38,12.27-9.28,6.75-8.3,13.17-4.45,14.19-.59.62,2.37-.81,4.74-5.46,4.29-.21.05-.89.64-.95.74-.03.03-.07.06-.11.1,0,.86-.64,1.15.13,1.81,3.83,8.47-1.55,19.04-4.65,27.05,1.32,2.59,2.27,5.37,2.98,8.24-.42-.09-.86-.15-1.29-.18Z"/>
    <path class="cls-2" d="M434.65,433.41c-13.84-.78-29.15-13.52-27.38-28.32.97-14.38,14.31-24.76,28.38-20.72,10.79-.24,24.18,8.28,24.92,19.82.62,16.93-8.23,29.09-25.92,29.22ZM426.61,391.79c-7.98,1.44-12.56,11.47-11.04,18.97,3.23,9.19,14.76,17,24.52,13.55,10.24-1.34,12.5-11.97,12.29-20.75-.77-4.91-5.85-7.32-9.74-9.55-1.34-.2-2.98-.2-3.91-1.47-4.05.14-8.08-.54-12.12-.75Z"/>
    <path class="cls-2" d="M481.35,442.55c-7.87-1.66-15.21-5.53-20.42-11.74-2.72-3.46-6.18-6.58-8.28-10.42-1.17-3.84,3.68-6.57,6.56-3.96,6.11,6.65,11.23,15.2,20.73,17.26,4.84,1.11,23.3,6.14,20.18-3.63-5.85-18.31-25.19-27.73-38.82-39.83-2.31-1.92-4.8-3.58-7.43-4.99-3.11-2.56-.73-7.53,3.16-7.2,3.48-.63,5.39.9,6.57,3.83,10.35,7.89,20.57,16,30.31,24.64,20.52,18.31,22.32,45.02-12.56,36.04Z"/>
    <path class="cls-2" d="M309.33,631.45c-5.51-3.25,1.37-11.46,5.89-7.85,8.9-1.69,19.08-3.79,24.52-11.76.79-1.34,1.88-2.66,3.55-2.76,11.08,1.71-.08,13.1-5.06,15.86-8.62,4.05-19.37,8.49-28.9,6.52Z"/>
    <path class="cls-2" d="M320.01,654.44c-5.93.97-15.59-20.26-13.67-24.85,2.31-4.43,9.74-1.37,8.22,3.4,1.13,2.32,4.82,12.92,6.82,12.88,7.26-1.75,15.32-2.08,21.89-5.77,4.76-5.67,10.26-12.41,5.47-19.76-3.36-4.15,1.91-9.52,5.91-5.76,8.71,11.38,3.18,23.78-6.25,32.56-8.44,4.83-18.91,5.85-28.4,7.31Z"/>
    <path class="cls-2" d="M327.25,651.23c-5.34-1.99-10.06-12.95-12.27-18.19-.41-4.41,5.62-6.17,7.85-2.44.4,5.76,16.12,19.25,4.43,20.63Z"/>
    <path class="cls-2" d="M338.02,643.58c-4.01-.85-5.34-5.65-7.91-8.41-2.68-2.84-6.17-9-.22-10.27,4.78-.54,5.88,5.35,8.65,8.12,3.12,3.07,6.64,10.51-.51,10.56Z"/>
    <path class="cls-2" d="M349.07,634.54c-3.63-.66-4.82-4.8-7.07-7.27-3.54-.02-5.42-4.1-3.99-7.1,3.8-5.97,9.91.82,12.23,4.71,3.2,2.91,5.16,9.72-1.17,9.66Z"/>
    <path class="cls-2" d="M285.18,718.85c-1.24-.2-2.33-.68-3.21-1.6-.81-.85-1.36-1.98-1.43-3.16-.07-1.11.3-2.23,1.12-3,.67-.63,1.47-.82,2.33-1.01,1.28-.28,2.55-.65,3.78-1.09,2.69-.96,5.26-2.24,7.69-3.73,5.13-3.15,9.71-7.36,13.4-12.09,4.29-5.49,7.69-11.71,9.37-18.51.86-3.48,1.32-7.02.96-10.6-.19-1.93-.59-3.87-1.29-5.68-.29-.75-.62-1.47-1.02-2.17-.13-.22-.26-.44-.4-.65-.67-1.04-1.19-2.09-1.09-3.37.2-2.35,2.41-3.78,4.65-3.31,1.18.25,2.25.96,2.97,1.92.25.33.47.69.7,1.04.85,1.3,1.54,2.73,2.1,4.18,1.48,3.85,2.17,7.96,2.14,12.08-.06,7.63-2.42,15.18-5.93,21.9-3.22,6.16-7.62,11.7-12.69,16.44-4.3,4.02-9.37,7.45-14.79,9.77-1.39.6-2.81,1.14-4.25,1.59-.61.19-1.22.36-1.84.52-1.04.26-2.05.55-3.12.55-.05,0-.1,0-.15,0Z"/>
    <path class="cls-2" d="M305.56,767.4c-30.64,1.07-46.43-25.83-29.62-51.68,2.43-6.56,11.99-.49,8.39,4.94-14.19,20.42-2.56,41.16,22.57,37.75,18.64-5.49,33.57-21.12,52.02-27.82,2.21-1.52,6.59-1.4,6.61-4.71.43-7.73,5.51-16.7,13.93-17.36,9.67-.12,10.31,8.99,14.06,3.67,2.09-2.48,5.65-3.65,7.47-6.16,1.22-11.81-5.94-23.35-13.13-32.24-4.67-8.34-42.23-34.7-32.49-42.56,7.46-1.69,9.32,9.53,14.31,13.27,14.86,13.92,31.74,27.75,38.24,47.79,4.43,14.11,3.97,19.17-8.51,27.59-6.49,8.55-11.73.62-18.04-2.65-9.51,2.82-3.6,17.62-13.74,19.67-9.95,3.63-18.5,9.69-27.88,14.49-10.78,6.47-20.95,15.72-34.21,16.01Z"/>
    <path class="cls-2" d="M314.15,723.26c-4.05-1.27-6.13-5.85-9.96-7.7-3.67.94-8.51-2.95-8-6.91,3.09-11.47,34.02,13.65,17.96,14.61Z"/>
    <path class="cls-2" d="M325.95,708.02c-5.94-2.1-11.96-4.08-18.02-5.62-1.83-1.07-3.16-3.35-2.4-5.48,4.24-6.17,15.53,1.81,21.36,2.83,5.01,1.23,4.95,9.32-.93,8.27Z"/>
    <path class="cls-2" d="M312.48,690.01c-.17-9.05,13.7-4.31,19.38-4.81,3.32-.19,7.5.9,7.95,4.78-.43,7.59-12.23,2.3-17.13,3.25-3.16,2.62-9.01.94-10.2-3.22Z"/>
    <path class="cls-2" d="M322.51,674.33c-7.54-1.2-4.15-12.74,2.66-9.14,3.8-.71,7.67-1.45,11.54-1.48,3.95,0,7.12,5.89,3.06,8.15-5.7.7-11.53,2.14-17.26,2.46Z"/>
    <path class="cls-2" d="M286.14,763.88c-4.94-2.8-2.1-9.46,3.39-7.68,6.01-1.26,11.7-3.7,17.52-5.64,11.2-6.45,23.12-11.44,34.48-17.63,9.21-6.87,18.7-14.49,29.86-17.49,13.7,5.91-5.85,11.49-10.81,14.66-10.25,8.17-21.3,15.14-33.64,19.76-11.38,5.64-27.79,16.48-40.79,14.03Z"/>
    <path class="cls-2" d="M387.88,718.57c-7.67-3.5-5.19-8.8,1.92-10.71,5.03-1.99,8.18-7.31,13.17-8.94,13.7,3.29-4.39,14.16-9.66,16.73-1.69,1.16-2.78,3.64-5.43,2.92Z"/>
    <path class="cls-2" d="M331.81,625.7c-9.04-1.83-11.56-26.27-13.98-34.32-5.88-15.03-4.3-22.58,7.87-33.31,11.67-13.46,24.5-26.22,36.68-39,3.99-7.63,15.26,2.46,5.87,8.32-15.27,15.24-30.49,30.92-44.06,47.6-1.93,6.96,2.98,13.65,3.82,20.51,1.2,8.46,4.07,16.37,7.33,24.21,1.4,2.78-.04,6.39-3.53,5.99Z"/>
    <path class="cls-2" d="M479.55,543.02s.03-.02.05-.03c.07-.04.14-.08.2-.12.26.82.52,1.65.78,2.48-.35-.77-.69-1.55-1.03-2.32Z"/>
    <path class="cls-2" d="M480.39,520.54l.04.06c.03.07.06.14.08.21-.04-.09-.08-.18-.13-.27Z"/>
    <path class="cls-2" d="M471.31,518.38c-6.41-7.09,6.41-10.43,8.23-2.59.16.79.34,1.57.52,2.35-.44-.07-.89-.11-1.34-.12-.25-.01-.51-.02-.76-.04-.29-.15-.59-.29-.92-.4-1.89-.65-4.04-.14-5.52,1.17-.03.03-.07.06-.1.09-.03-.15-.07-.31-.1-.46Z"/>
    <path class="cls-2" d="M502.7,633.65c-6.24-2.26-7.14-10.94-10.25-16.17-5.83-8.06-9.34-16.6-9.69-26.68-5.13-25.26-8.93-51.11-11.53-76.57,1.54-6.53,10.42-3.33,9.34,2.68,2.22,29.43,7.88,58.72,13.45,87.6,4.5,6.09,7.64,12.83,10.68,19.74,2.61,3.23,4.28,9.91-2,9.4Z"/>
    <path class="cls-2" d="M487.81,636.81c-.66-4.06,4.34-5.62,7.49-5.03,8.39-1.91,17.32-2.87,24.95-7.08,4.4-3.09,10.58,4.28,5.53,7.36-4.87,2.84-37.48,13.69-37.96,4.74Z"/>
    <path class="cls-2" d="M492.97,658.05c-1.93-4.66-9.51-24.27,1.84-20.1,4.48,3.61,2.82,10.88,5.24,15.8,2.5,1.37,6.16-.65,8.91-1.06,5.36-1.55,11.07-2.42,16.09-4.93,2.64-2.3,2.87-6.69,2.61-9.98-2.35-4.25.66-8.97,5.45-6.47,8.13,8.24,2.26,25.31-9.62,26.51-9.51,1.69-23.07,9.73-30.53.23Z"/>
    <path class="cls-2" d="M504.8,656.02c-5.92-1.63-6.83-13.14-6.95-18.38,1.48-3.87,7.24-2.62,8.38.88-.25,5.04,7.8,17.91-1.43,17.5Z"/>
    <path class="cls-2" d="M516.43,655.98c-6.7-1.99-4.67-11.47-8.11-16.24-3.85-6.51,6.91-8.85,8.46-2.37.61,5.04,9.23,18.73-.36,18.61Z"/>
    <path class="cls-2" d="M528.16,647.71c-5.07.72-10.92-18.5-4.86-19.5,3.76-1.22,8.78,3.07,6.37,6.87.79,4.07,5.98,12.36-1.5,12.63Z"/>
    <path class="cls-2" d="M497.46,778.78c-20.74-2.14-44.19-14.91-35.07-39.17,10.17-22.19,33.89-39.57,33.75-65.7.55-5.1-1.01-10.83,1.04-15.59,2.2-2.92,7.14-1.39,7.69,2.12-.46,7.07.05,14.28-.71,21.37-.38,24.57-40.79,55.2-33.5,74.92,6.02,14.01,32.06,15.03,44.9,12.35,2.33.45,4.44,2.63,4.31,5.1-1.36,6.31-17.21,5.04-22.41,4.6Z"/>
    <path class="cls-2" d="M510.21,778.46c-5.21-1.64-3.66-9.28,1.95-7.99,8.69.36,18.91-2.86,23.19-10.9,5.09-10.15,7.64-21.35,10.99-32.14,2.61-9.9,8.3-19.33,8.66-29.66-.07-4.87-5.16-7.43-7.81-10.99-5.78-7.35-11.2-15.15-15.44-23.48-6.27-9.92,4.87-15.77,6.91-4.83,4.24,9.22,10.27,17.81,16.91,25.46,6.19,5.1,9.81,12.65,7.71,20.68-3.59,13.16-9.02,25.77-12.37,39.02-5.35,21.8-15.83,37.72-40.71,34.83Z"/>
    <path class="cls-2" d="M502.88,681.8c-5.96-1.44-5.96-11.11,1.11-10.65,5.48-.35,10.81,1.27,16.21,1.88,2.04-.23,4.28-.56,5.83,1.17,6.5,11.76-13.32,5.45-18.69,5.23-.82,1.71-2.61,2.65-4.46,2.36Z"/>
    <path class="cls-2" d="M519.56,697.94c-5.23-.83-10.34-2.33-15.36-3.93-1.96,1.26-4.58.44-5.98-1.27-3.15-2.01-2.89-7.32,1.22-7.86,4.97-.26,9.58,2.46,14.4,3.4,2.84,1.01,6.38.57,8.66,2.77,2.7,2.5.94,7.4-2.93,6.89Z"/>
    <path class="cls-2" d="M518.65,717.01c-6.09-2.25-12.24-4.64-18.75-5.49-2.71-.46-6.09-.09-7.59-2.93-4.16-12.35,20.96-2.01,26.01-.41,5.08.88,6.66,9.08.33,8.83Z"/>
    <path class="cls-2" d="M509.75,732.17c-6.02-2.08-11.6-5.61-17.82-7.23-1.97,2.14-5.67,1.18-6.96-1.24-3.51-9.66,7.59-8.05,13.09-5.29,5.08,2.4,11.41,3.7,15.33,7.81,1.71,2.69-.44,6.32-3.65,5.95Z"/>
    <path class="cls-2" d="M497.78,776.51c-5.59-1.32-3.91-8.72-6.84-12.56-2.92-5.95-11.15-8.16-16.22-3.57-1.75,1.5-.67,3.98-1.08,5.95-1.73,5.8-9.96,2.02-8.6-3.24-.57-15.9,23.04-17.29,30.76-6.29,3.24,3.98,11.93,19.74,1.97,19.71Z"/>
    <path class="cls-2" d="M297.47,764.61c-4.6-1.07-16.51-5.05-15.22-11.02.21-.67.65-1.24,1.19-1.68-.5-.76-2.86-.78-4.02-1.02-9.1-3.7-2.94-11.65,4.95-7.41,6.54.79,27.27,18.63,13.1,21.12Z"/>
    <path class="cls-2" d="M479.61,771.05c-.32-.25-.63-.51-.93-.78-.18-.16-.33-.34-.46-.53-10.28,2.27-8.1-11.68.72-11.04,3.65-1.77,8.97-.12,10.33,3.92,4.15-.08,8.08,5.99,3.69,8.57-1.3.87-2.88.22-4.19.17-2.96.74-6.47,1.6-9.15-.31Z"/>
    <path class="cls-2" d="M493.71,784.58c-7.83.14-39.17-12.02-27.48-22.04,3.7-1.35,9.21,2.24,8.1,6.42,12.55,8.62,30.27,10.16,44.47,4.93,4.34-2.03,8.75-4.76,11.86-8.44,1.21-3.83,6.21-4.14,8.26-.85,2.57,4.32-2.56,8.41-5.61,10.87-10.92,9.25-25.85,11.08-39.61,9.12Z"/>
    <path class="cls-2" d="M521.04,789.41c-10.89-.11-21.48-3.09-32.3-4.01-11.86-.35-26.24-3.67-28.67-17.28-.64-3.3-1.03-6.82-.5-10.14,1.3-3.75,6.91-3.05,8.06.46.68,5.84.11,13.7,6.79,16.3,55.65,7.81,59.82,19.07,68.35-42.81.16-4.35,6.05-4.75,8.05-1.45,1.99,4.3-.83,9.4-1.06,13.93-2.9,17.73-5.16,45.18-28.74,44.99Z"/>
  </g>
  <g id="Vector_layer-3" data-name="Vector layer">
    <g>
      <path class="cls-2" d="M322.47,96.83c-3.34,3-7.2-.82-6.86-4.55,1.1-8.43,11.28-4.24,16.4-2.36,5.5,1.39,11.83,6.8,5.01,11.34-4.94,1.17-9.41-4.21-14.56-4.43Z"/>
      <path class="cls-2" d="M222.59,169.33c.62-3.74,6.15-5.23,7.78-1.41.87,3.29.12,6.85.69,10.23-.79,6.51,7.86,17.58,1.74,21.47-9.44,3.93-10.46-24.49-10.21-30.29Z"/>
      <path class="cls-2" d="M445.44,345.67c-7.94,2.71-16.8,3.05-24.76,5.72-20.35,4.01-55.44,11.37-74.29,2.11-14.01-9.76-32.23-11.67-44.75-23.75-14.83-15-30.99-29.34-42.85-46.89.27-.04.53-.1.79-.18.05-.02.11-.03.16-.05,1.37-.47,2.62-1.52,3.32-2.79.77-1.4,1.03-3.05.56-4.6-.18-.58-.44-1.22-.76-1.73-.36-.57-.82-1.07-1.29-1.56-.37-.43-.76-.84-1.14-1.26.47.05.94.06,1.4.05,4.87,10.55,12.49,19.42,20.7,27.77,13.4,12.91,24.9,29.33,43.15,35.58,9.74,2.83,18.42,7.83,27.3,12.56,20.49,5.22,42.43-.05,62.93-3.43,4.36-1.58,9.07-2.4,13.77-3.22,8.06-1.4,16.11-2.81,22.41-8.01,12.13-8.35,19.92-20.4,25.04-34.02,3.85-8.63,7.37-17.62,7.76-27.17.96-24.46-12.01-46.38-25.28-65.96-5.09-8.38-12.2-15.17-18.1-22.92-4.22-6.13-6.7-13.22-9.83-19.93-4.19-3.92-5.93-10.36-9.35-15.09-.49-.67-.99-1.33-1.5-1.98.1-.03.2-.06.31-.09,1-.33,1.9-.78,2.63-1.56.31-.32.59-.7.83-1.09.44.02.89-.01,1.33-.12.4-.1.8-.19,1.21-.29.85-.2,1.56-.67,2.25-1.17,1.84,2.69,3.51,5.5,4.98,8.42,5.62,7.24,7.37,17.12,12.37,24.96,13.57,16.82,27.46,33.69,36.56,53.54,11.31,21.85,13.57,48.56,2.37,70.91-6.43,17.97-16.68,32.72-32.59,43.51-2.4,1.63-4.97,2.82-7.65,3.73Z"/>
      <path class="cls-2" d="M247.13,258.2c-.09-.2-.18-.39-.27-.59.18.15.35.3.53.44-.09.05-.18.1-.26.15Z"/>
      <path class="cls-2" d="M412.06,196.06c-.37.13-.76.2-1.18.2-1.06.01-2.1-.41-2.85-1.17-1.57-1.57-1.55-4.2-.02-5.78,1.54-1.58,4.13-1.63,5.7-.07.76.76,1.18,1.81,1.19,2.88,0,1.13-.46,2.06-1.17,2.9-.51.46-1.06.83-1.67,1.03Z"/>
      <path class="cls-2" d="M352.31,233.43c-.33.11-.68.18-1.06.2-1.06.04-2.11-.35-2.88-1.08-1.62-1.52-1.68-4.15-.19-5.78,1.49-1.62,4.08-1.75,5.69-.24.78.74,1.24,1.77,1.28,2.84.04,1.13-.39,2.08-1.09,2.94-.52.5-1.09.89-1.74,1.12Z"/>
      <path class="cls-2" d="M392.48,237.47c-4.17,1.42-6.67-4.6-3.68-7.55,2.14-1.93,5.42-2.35,7.17-4.81-6.76-9.55-11.11-3.76-12.5-9.96-1.09-18.04,39.33,10.16,9.62,22.06-.21.1-.41.19-.61.26Z"/>
      <path class="cls-3" d="M420.64,287.36c-31.85,7.84-75.57,22.15-101.22-5.89-2.1-3.1.84-8.15,4.66-7.11,3.25,1.59,4.73,5.52,8.17,7.01,11.09,6.16,24.2,8,36.75,7.71,18.54-3.64,49.2-5.78,63.15-18.28,1.98-3.04,6.67-1.97,7.12,1.64-.3,7.99-12.34,11.95-18.62,14.92Z"/>
      <path class="cls-2" d="M254.97,267.4c3.42-4.89,5.71-10.37,8.79-15.45,4.45-6.95,9.71-13.38,13.83-20.52,4.76-10.62,14.68-17.65,20.02-27.96,13.64-17.06,32.64-28.7,49.8-41.87,23.99-19.09,44.83-19.87,73.49-24.4,2.18-.44,4.26-1.53,6.5-1.61,5.26.32,4.57,8.1.35,9.57-4.62.67-9.23,2.13-13.97,2.78-37.65,3.58-51.09,11.38-80.15,34.82-12.07,8.84-25.11,17.93-32.84,31.03-3.93,6.32-9.61,11.28-13.85,17.33-2.08,3.61-3.72,7.47-6.21,10.83-6.03,8.04-11.54,16.39-16.07,25.35-1.98,2.85-3.86,5.76-4.27,9.3-.66,2.68-.15,6.09-3,7.6-9.46,2.54-4.58-12.37-2.41-16.81Z"/>
      <path class="cls-2" d="M260.1,311.66c-9.57-1.05-16.66-13.41-12.67-22.19,2.3-4.5,6.57-10.71,12.35-9.64,2.11.67,3.36,2.99,2.69,5.11-.55,1.79-2.33,2.97-4.15,3.11-5.31,4.08-4.98,10.51.14,14.58,3.2,2.36,7.53-.15,10.98-.84,3.6-.81,5.64-4.32,8.88-5.61,2.15-.44,4.32.98,4.76,3.13.67,3.23-2.71,5.09-4.83,6.85-5.21,3.63-11.84,5.37-18.14,5.5Z"/>
      <path class="cls-2" d="M451.62,176.92c6.81-4.14,4.55-13.45-1.65-16.99-4.1-3.27-6.1,2.37-9.33,3.75-3.19,1.02-6.12-2.53-4.85-5.52,17.13-23.59,42.01,13.43,18.81,26.81-5.26,2.23-7.31-5.66-2.99-8.05Z"/>
      <path class="cls-2" d="M243.02,280.97c-11-9.75-14.18-26.05-10.06-39.83,1.8-8.53,7.06-15.51,11.71-22.68,3.61-6.88,8.71-12.72,12.91-19.21,3.99-6.85,5.97-14.81,10.8-21.18,28.3-30.79,86.53-75.05,128.78-78.03,17.59-3.6,22.42,5.23,29.4,19.25,2.93,6.14,4.89,12.69,7.15,19.1,1.9,3.52-1.03,9.02-5.32,7.45-3.16-1.73-2.75-6.2-4.34-9.12-2.88-8.78-7-17.01-12.3-24.59-6.52-6.99-34.2.6-42.55,4.3-34.61,15.07-65.21,38.16-92,64.49-5.62,5.24-7.74,12.81-10.96,19.56-5.88,10.37-13.49,19.64-19.53,29.95-8.65,12-10.68,29.94-.8,41.83,2.6,3.55,11.44,7.76,5.35,12.28-3.28,1.76-5.98-1.6-8.24-3.57Z"/>
      <path class="cls-2" d="M259.29,279.15c-.78-2.91-2.82-6.83.05-9.19,2.98-2.32,6.71.3,6.72,3.76.94,2.92,2.62,6.94-1.12,8.61-2.48,1.03-5.12-.61-5.64-3.17Z"/>
      <path class="cls-2" d="M210.98,197.94c-5.38-19.11-4.5-39.89,5.31-57.42,3.19-10.74,8.07-20.62,16.11-28.62,10.66-14.7,25.14-27.11,42.88-32.11,24.09-6.97,49.74-13.19,74.72-7.34,9.34,1.7,16.18,8.6,24.53,12.54,5.42,3.85,17.48,8.16,19.71,14.22,1.47,4.93-6.62,11.15-8.85,4.78-8.06-5.54-16.91-9.78-25.19-14.95-3.47-2.59-7.19-4.85-11.41-5.97-17.49-4.79-35.99-2.77-53.39,1.45-23.63,5.19-41.82,11.61-56.25,32.34-3.93,4.67-8.3,9.13-11.07,14.63-2.8,8.69-6.62,16.95-10,25.42-6.71,23.14,4.53,46.4,11.61,68.11,1.87,5.96,11.96,13.43,4.19,18.76-9.23,4.78-19.94-38.56-22.9-45.86Z"/>
      <path class="cls-2" d="M399.05,125.53c-.85-4.25-3.65-10.28,1.1-13.16,6.17-3.01,5.83,5.57,7.05,9.31.94,4.63,4.99,11.21-.91,14.08-5.94,2.01-5.74-6.57-7.23-10.23Z"/>
      <path class="cls-2" d="M373.18,126.48c-4.73-4.34,3.56-12.07,7.01-6.14,1.97,4,2.67,8.51,3.75,12.81,1.03,2.99,1.02,6.69-2.25,8.23-7.56,2.5-5.56-11.03-8.51-14.9Z"/>
      <path class="cls-2" d="M351.72,141.14c-1.5-3.67-3.08-9.25,1.46-11.4,2.51-1.17,5.57.7,5.96,3.37.29,1.15-.53,2.27.11,3.34,1.44,3.9,4.67,9.49-.49,12.06-4.8,1.98-5.73-4.17-7.04-7.35Z"/>
      <path class="cls-2" d="M328.66,155.65c-1.19-3.02-2.87-6.11-2.74-9.44.19-3.35,4.38-6.71,7.31-4.08,1.17.99,1.73,2.58,1.49,4.09.61,1.79,1.42,3.53,2.18,5.26,2.03,4.28,5.95,10.33.21,13.51-5.54,2.33-6.32-6.03-8.45-9.35Z"/>
      <path class="cls-2" d="M306.39,175.65c-1.1-2.38-2.96-4.78-2.37-7.55.51-2.65,3.35-5.21,6.12-4.06,2.59,1.52,2.66,5.21,4.4,7.55,2.23,3.39,3.67,8.39-.79,10.67-4.49,2.04-5.69-3.72-7.36-6.61Z"/>
      <path class="cls-2" d="M278.93,190.39c-3.85-3.85,1.54-12.08,6.08-7.8,2.61,5.68,13.85,13.32,5.74,18.91-4.83,2.64-8.8-8.15-11.82-11.12Z"/>
      <path class="cls-2" d="M270.05,217.59c-3.16-2.94-5.9-8.07-1.37-11.18,4.22-2.83,6.47,2.96,8.93,5.42,3.33,3.44,6.77,8.81,1.25,12.1-4.39,2.1-6.19-3.99-8.81-6.34Z"/>
      <path class="cls-2" d="M252.52,232.4c-2.09-3.79,2.53-8.97,6.27-6.07,1.31.92,1.22,2.64,2.23,3.77,2.55,3.21,6.48,8.4,1.16,11.13-5.06,1.7-7.4-5.51-9.66-8.83Z"/>
      <path class="cls-2" d="M242.7,246.46c1.25-5.52,10.71-4.12,8.72,1.86,2.11,3.1,5.92,7.85,1.01,10.41-4.36,2.68-10.67-8.83-9.74-12.26Z"/>
    </g>
  </g>
</svg>