<?xml version="1.0" encoding="UTF-8"?>
<svg id="Layer_2" data-name="Layer 2" xmlns="http://www.w3.org/2000/svg" viewBox="0 0 805 805">
  <defs>
    <style>
      .cls-1 {
        fill: none;
        opacity: 0;
        stroke-width: 5px;
      }

      .cls-1, .cls-2 {
        stroke: #000;
        stroke-miterlimit: 10;
      }

      .cls-3, .cls-2 {
        fill: #000;
      }

      .cls-3, .cls-4 {
        stroke-width: 0px;
      }

      .cls-2 {
        stroke-width: 2px;
      }

      .cls-4 {
        fill: #fff;
      }
    </style>
  </defs>
  <g id="Vector_layer" data-name="Vector layer">
    <rect class="cls-1" x="2.5" y="2.5" width="800" height="800"/>
  </g>
  <g id="Vector_layer-2" data-name="Vector layer">
    <path class="cls-2" d="M372.79,522.3c-38.08-15.83-15.09-69.2-15.47-100.31.79-11.96.42-23.97,1.73-35.89.37-.92.49-1.93.36-2.91.02-.15.04-.3.06-.44,1.61-6.39-2.6-21.77,2.75-25.16,4-1.34,6.73,2.81,5.95,6.44-.12,8.46.35,16.97-.76,25.38-1.65,17.65-.87,35.45-3.28,53.06-1.76,22.74-16.15,66.68,15.67,73.34,26.26,1.58,52.7-2.09,78.99-2.77,22.76-1.46,29.21-12.06,29.01-25.83.03-.41.02-.82-.03-1.23-.57-13.6-7.19-30.05-10.92-43.83-2.87-14.11-7.43-27.66-13.73-40.61-1.18-3.56-11.32-25.69-14.79-40.07.79-.78,1.35-1.77,1.58-2.93.44-2.25-.58-4.59-2.47-5.86-.07-.05-.14-.09-.22-.14.28-3.02,1.79-4.39,5.15-3.05,3.71,1.71,3.44,6.57,4.57,9.96,1.81,7.69,4.29,15.21,7.09,22.6,7.19,18.54,16.94,36.15,20.45,55.92,4.8,21.59,18.47,45.84,8.51,67.59-3.1,4.43-6.96,7.65-11.3,10.01-1.14-.67-2.49-.9-3.83-.69-1.73.28-3.09,1.29-4.07,2.63-.83.24-1.61.66-2.26,1.24-.32.28-.59.59-.82.92-10.76,2.62-22.82,2.35-33.36,2.72-14.13.02-28.71,2.52-42.99,2.52-7.29,0-14.51-.65-21.56-2.61Z"/>
    <path class="cls-2" d="M515.38,490.58c-6.36-.18-13.23-.62-19.09-3.16-3.92-3.17-.01-8.88,4.44-6.86,21.55,5.25,30.93-.68,46.38-14.2,6.8-4.53,18.62-6.85,20.23-15.98-3.66-18.59-7.67-37.44-14.12-55.32-2.78-12.75-17.47.49-24.22-7.47-4-7.71-5.1-16.77-7.55-25.08-3.93-12.45-7.91-25.31-15.04-36.32-4.8-9.22-29.82-6.49-25.07-16.06,3.15-4.66,13.97,1.27,18.5,2.25,19.88,7.16,23.57,31.71,30.14,49.32,1.68,6.56,3.23,13.15,5.32,19.61,9.31-.02,18.61-4.03,24.06,7.5,8.26,17.71,11.05,37.43,15.78,56.26,4.48,12.6-7.1,21.12-17.34,25.51-16.75,8.07-19.26,19.95-42.41,20.01Z"/>
    <path class="cls-3" d="M438.74,364.75c.38-.13.77-.25,1.16-.37-.27.32-.55.65-.82.98-.1-.21-.22-.41-.34-.61Z"/>
    <path class="cls-3" d="M447.43,352.68c-1.59-1.07-3.55-1.29-5.42-1.26-.74.01-1.52.03-2.27.15-.18.01-.37.03-.55.06,2.09-1.98,4.25-3.84,6.46-5.55,9.3-7.96,17.79,4.14,7.2,6.61-1.32-.14-2.19,1.17-3.28,1.74-.1.09-.2.18-.3.27-.44-.79-1.07-1.49-1.84-2.01Z"/>
    <path class="cls-3" d="M420.03,361.04s.06.02.09.02h0s-.06-.01-.09-.02Z"/>
    <path class="cls-3" d="M425.79,351.76c3.55-4.53,8.59-2.77,9.55.48-.29.05-.58.09-.87.14-.08.01-.16.03-.24.04-.15-.17-.31-.33-.48-.48-2.22-1.98-5.93-1.88-7.89.46-.85,1.01-1.64,2.05-2.18,3.27-.01.03-.03.07-.05.1-.3,0-.6.01-.91.02.98-1.36,2-2.71,3.05-4.04Z"/>
    <path class="cls-3" d="M511.43,382.42c-1.27-2.13-3.84-3.2-6.23-2.92-1.34-5.91-.89-14.29-3.64-18.47-5.29-17.92-29.46-27.84-31.67-39.84.45-6.36,9.9-4.85,9.13,1.14,4.08,4.66,9.27,8.42,13.7,12.8,6.17,5.74,11.61,12.33,15.32,19.94,2.18,4.28,10.4,27.74,4.11,30.63.11-1.12-.11-2.27-.72-3.29Z"/>
    <path class="cls-2" d="M554.85,468.48c-3.82-.64-3.57-4.54-3.28-7.53-.18-5.7-.8-11.39-1.55-17.05-3.97-16.4-7-35.58-20.68-46.87-3.96-1.76-2.57-8.38,1.84-8.18,5.24,1.55,8.42,7.45,12.01,11.35,6.59,6.21,25.82,68.59,11.66,68.29Z"/>
    <path class="cls-3" d="M506.31,403.56c-11.45-2.28-3.18-16.36-3.73-24.1.95-2.86,4.99-3.7,6.92-1.36.49.56.19.34.94.28,1.08-.07,2.16.29,2.96,1.01,4.36,9.63,11.53,28.61-7.1,24.17ZM508.95,392.61c-.05,2-1.6,3.61,1.36,3.33-.21-1.55-.74-3.16-1.16-4.64.07.05-.17,1.12-.21,1.32Z"/>
    <path class="cls-2" d="M185.82,353.29c-21.84-2.05-18.17-30.75-13.57-45.79-5.98-11.77,17.23-10.17,22.47-5.06,13.06,10.19,12.77,51.51-8.9,50.86ZM182.03,307.23c-5.02.68-.21,1.4-1.78,6.28-2.44,8.86-3.92,19.85-.34,28.6,3.33,4.63,10.12,2.16,11.89-2.65,2.78-9.96,6.52-33.78-9.78-32.23Z"/>
    <path class="cls-2" d="M213.93,354.22c-3.49-.41-6.59-5.17-3.57-7.93,5.19-2.56,10.32-6.29,12.33-11.97,3.4-10.21,1.1-22.28-6.8-29.81-10.44-.21-21.03-1.98-31.53-1.92-6.48,5.7-13.1-8.27-3.52-8.64,9.87-.8,19.68,1.52,29.55,1.56,6.46-.91,11.62,2.39,15.06,7.69,12.99,15.17,10.47,46.22-11.52,51.01Z"/>
    <path class="cls-2" d="M183.57,350.32c0-.7.52-2.09,5.22-3.85,4.83-1.15,9.85-.93,14.74-.73,5.98-1.72,11.17,9.09,3.63,10.93-1.47-.06-3.59-.17-6.14-.37-3.37-.26-5.06-.39-6.48-.62-4.21-.7-10.95-2.89-10.97-5.36Z"/>
    <path class="cls-3" d="M204.3,298.48c-8.74.29-4.94-15.7.24-17.76,10.5-1.54,21.22,1.18,31.8,1.28,9.31.89,18.74-1.62,27.98-.55,3.29,1.07,4.51,6.24.97,7.8-7.88.79-15.97,1.01-23.92,1.38-10.71.18-22.25-2.66-32.54-1.63-1.94,3.76,2.02,9.05-4.53,9.47Z"/>
    <path class="cls-3" d="M270.73,366.63c-9.83-2.2,1.74-15.32.17-22.12,1.21-16.02-.11-31.89-5.66-47.04-1.1-2.84-1.22-5.15-4.61-5.5-8.36-5.87,7.03-18.91,13.51,6.27,2.09,7.91,5.03,15.69,5.26,23.95-.11,10.45,2.73,40.57-8.68,44.43Z"/>
    <path class="cls-3" d="M258.19,372.94c-8.55-1.44-20.14-6.41-42.93-13.05-2.22-.65-9.55-2.7-9.39-3.55.05-.27.84-.34,1.49-.37,1.34-12.04,29.55,3.52,36.52,5.09,5.78,1.74,12.38,1.73,17.58,4.99,2.85,2.56.54,7.53-3.27,6.89Z"/>
    <path class="cls-3" d="M246.55,356.51c-.69-.07-1.34-.34-1.75-.61-5.99-4.01-2.28-19.44-.72-25.17.85-3.24,1.64-7.23,1.97-11.82.32-4.36.16-8.24-.18-11.44-.16-1.96-.5-3.94-.94-5.86-.72-3.57,3.82-5.98,6.53-3.71,5,5.9,6.69,59.86-4.92,58.62Z"/>
    <path class="cls-3" d="M200.94,299.31c-10.72-5.84-11.23-25.93-.92-32.88,11.28-5.6,26.46-4.48,35.45,4.93,2.78,3.01,6.98,6.44,6.74,10.88-1.34,4.68-7.56,2.99-8.77-.93-3.17-4.47-7.77-8.39-13.21-9.66-5.21-.11-11.98-.66-16.15,2.88-3.77,4.32-3.98,12.33-.23,16.35,5.1,2.15,2.07,9.23-2.92,8.42Z"/>
    <path class="cls-3" d="M203.84,309.96c-5.47-.86-4.79-9.7.76-9.57,6.32.23,5.62,10.58-.76,9.57Z"/>
    <path class="cls-3" d="M200.09,313.74c-4.97-.74-7.99-8.57-1.88-10.04,5.27-.96,24.78-.69,16.4,8.39-3.23,1.08-6.81-.58-10.16-.28-.94,1.48-2.62,2.27-4.36,1.93Z"/>
    <path class="cls-3" d="M222.57,323.62c-7.02-2.36-15.28-1.23-21.78-4.33-7.12-12.33,17.25-4.66,22.49-3.89,4.53,1.19,4.59,8.58-.71,8.22Z"/>
    <path class="cls-3" d="M222.25,333.87c-6.27-1.5-12.81-2.43-18.87-4.58-3.11-1.67-3.24-6.94.64-7.66,4.09-.07,8.08,1.85,12.15,2.44,2.91.89,6.39.75,8.78,2.81,2.79,2.42,1.21,7.39-2.71,6.99Z"/>
    <path class="cls-3" d="M218.2,343.76c-5.46-2.99-20.75-2.7-20.05-10.72,2.78-6.42,10.27.05,14.93.5,2.65.93,5.65,1.4,7.84,3.24,2.77,2.42,1.16,7.37-2.72,6.98Z"/>
    <path class="cls-3" d="M207.33,354c-3.6-1.38-6.71-4.16-9.89-6.31-3.54-3.45.71-8.69,4.94-6.44,2.93,2.69,7.51,4.08,9.38,7.72.98,2.79-1.62,5.55-4.44,5.03Z"/>
    <path class="cls-2" d="M204.37,352.66c-8.01-2.08-3.46-7.01-2.89-11.92-1.21-2.71-.86-5.74.72-8.16-.26-7.51-.96-15.21-4.17-22.11-.54-2.63-3.6-3-4.47-5.44-1.04-2.92,3.38-5.21,6.33-5.1,2.91.11,5.48,2.41,6,5.55.44-3.33,4.81-3.91,7.09-2.04,6.36-8.73,11.94,5.99,12.82,11.51,2.09,8.09-.67,16.25-3.46,23.81-.63,1.62-.89,3.66-2.52,4.61-.5.07-.57.28-.23.61,2.25,5.84-6.27,6.29-10.1,6.48-1.33,1.38-3.17,2.39-5.12,2.2Z"/>
    <path class="cls-2" d="M262.77,370.22c-6.32-1.4-11.67-5.87-17.82-7.97-2.4-.74-4.8-1.11-6.94-2.59-.14-.01-.28-.02-.42-.03-.33-.02-.66-.05-.99-.09-2.02,1.87-5.22,1.47-7.11-.4-3.57,2.29-8.65-.62-8.44-4.86-3.32-1.93-5.16-7.54.36-8.34.02-3.19-.38-6.91,1.94-9.05.2-9.15,2.84-18.22,5.65-26.9-1.06-.73-1.97-1.73-2.47-2.93-.25.02-.5.02-.76-.02-.2-.03-.41-.07-.61-.11-4.37,1.84-8.92,1.31-10.42-4.23.11-1-.87-.68-1.52-1.1-.8-.22-1.14-1.01-1.95-.88-5.71.4-9.91-10.87-3.65-12.85,1.33-3.75,6.55-3.24,8.3-.06,2.03-2.3,5.79-1.54,7.4.89,1.74-3.93,5.22-3.65,8.14-1.8,1.59-.76,3.72-.21,5.01.88.31-4.86,6.92-4.43,8.65-.69,1.74-4.89,7.28-6.34,10.38-1.7,19.99-.59,19.5,26.05,21.48,40.39,4.76,2.78,1.09,8.23.3,12.2-.57,9.45-3.57,30.09-14.5,32.24ZM245.75,328.3c.1,7.51-1.55,15.59.25,22.68,1.95-.57,4.46-1.08,5.17-3.23-1.27-4.97-.56-10.48-1.27-15.66-1.91-.7-3.36-2.31-4.12-4.2-.02.14-.03.28-.03.42ZM268.14,332.44s.09-.04.14-.07c0-.14,0-.28,0-.41-.01.08-.12.43-.13.48Z"/>
    <path class="cls-3" d="M358.98,385.95c-18.53-2.92-38.06-5.36-54.66-14.55-9.15-5.44-18.34-11.16-26.26-18.31-2.03-.56-4.33-1.67-4.52-4.13-1.23-7.07,6.42-6.74,9.6-2.16,11.54,9.69,24.57,19.16,39.15,23.47,12.08,2.79,24.18,5.94,36.52,7.26,5.07.44,6.09,8.83.17,8.43Z"/>
    <path class="cls-4" d="M211.63,352.03c-2.39-.54-2.04-3.71.43-3.71,1.66-.4,3.41-.13,5.04-.64,3.21-1.69,5.62-4.63,7.78-7.49,2.1-2.44,1.6-5.85,1.63-8.84-.04-2.42-.06-4.84-.25-7.25-.39-7.59-5.49-13.9-10.85-18.86-2.8.85-4.05-4.4-.87-4.46,2.06.21,3.48,2.11,4.94,3.39,4.46,4.58,8.69,9.91,9.98,16.32.68,3.57.69,7.21.75,10.83.04,3.7.35,7.79-2.12,10.86-2.64,3.53-5.67,7.27-9.82,9.03-2.16.55-4.45.52-6.64.83Z"/>
    <path class="cls-4" d="M252.22,357.08c-1.94-.52-1.74-2.26-.89-3.68.46-1,.79-2.06,1.04-3.13.57-2.3.59-4.69.59-7.05,0-5.09.03-10.18-.14-15.27-.23-8.44-2.59-16.76-4.61-24.84-1.13-1.68.5-4.36,2.54-3.2,1.47,1.23,1.17,3.74,1.72,5.47,1.41,6.36,3.32,12.64,3.76,19.17.44,6.99.34,14.01.32,21.02.04,2.31-1.23,12.17-4.34,11.52Z"/>
    <path class="cls-4" d="M222.39,289.5c-1.18-.12-2.26-1.24-2.01-2.47-1.36.11-2.74.21-3.98.78-1.62.33-2.99-1.5-2.26-2.98.59-1.3,2.3-1.06,3.48-1.36,2.06-.28,4.18-.44,6.12.47,3.7,1.79,2.48,5.33-1.34,5.56Z"/>
    <path class="cls-2" d="M494.13,494.73c-35.04-7.26-58.65-36.52-68.49-70.3.21.05.41.1.62.15,1.42,2.78,4.66,3.52,7.68,3.52.51,0,1.02-.02,1.51-.06,6.62,19.34,18.32,36.68,34.81,48.26,7.96,3.06,15.2,8.84,23.73,9.94,5.22.07,6.12,8.51.67,8.51-.17,0-.35,0-.53-.02Z"/>
    <path class="cls-3" d="M426.24,352.07c.7-10.36,14.06-6.33,7.01,7.01-2.64,9.13-4.02,18.81-4.17,28.61-1.12.2-2.21.49-3.27.87-2.01.73-3.82,1.97-5.3,3.51-.42-13.84,1.45-27.54,5.73-40Z"/>
    <path class="cls-2" d="M457.08,442.34c-4.03-6.25-7.04-12.82-9.24-19.59.56-.45,1.1-.91,1.61-1.39,1.97-1.84,3.52-3.95,4.75-6.34.05-.09.09-.18.14-.28,3.28,12.18,8.86,24.26,17.1,38.52,2.5,6.73,41.69,19.85,24.05,25.37-17.4-10.68-31.89-14.76-38.42-36.29Z"/>
    <path class="cls-3" d="M449.76,391.78c-1.49-1.58-3.47-2.47-5.55-2.59-.06-.07-.13-.13-.19-.19-.44-.46-.92-.89-1.42-1.26-.16-10.82.71-21.73,1.85-32.39-.85-9.81,12.01-8.03,8.02,5.71-1.56,12.13-2.13,22.56-1.56,32.2-.02,0-.05.01-.07.02-.3-.55-.66-1.06-1.08-1.51Z"/>
    <path class="cls-3" d="M452.58,355.21c-4.66-.5-5.67-6.85-1.19-8.52-.12-3.26,11.02-19.32,14.67-17.36,5.38,1.45,3.23,7.33,1.07,10.69-2.11,4.24-4.84,8.06-7.03,12.03-.74.79-1.9.82-2.78,1.11-1.37,1.06-2.91,2.25-4.73,2.05Z"/>
    <path class="cls-3" d="M446.89,354.44c-1.11-.34-2.06-.89-2.75-1.87-.63-.91-.93-2.05-.74-3.15.38-2.26,2.65-3.58,4.83-3.08,2.21.51,3.87,2.73,3.49,5.01-.17,1.06-.79,2-1.69,2.58-.67.43-1.39.59-2.13.59-.33,0-.67-.03-1.01-.09Z"/>
    <path class="cls-2" d="M484.39,487.48c-3.76-.68-8.96-2.17-9.15-6.76-2.26-1.2-5.7-1.52-5.7-4.89.06-.26-.1-.32-.47-.2-1.42.03-2.45-1.26-3.69-1.42-2.74.35-5.19-1.53-6.44-3.84-2.26.27-4.49-.74-6.12-2.26-9.21-1.55-8.79-14.18-8.36-20.57-3.97-1.21-4.97-5.52-6.97-8.49-2.98-2.89-3.63-6.82-3.86-10.93.1,0,.2,0,.3,0,.7,0,1.39-.04,2.04-.1,2.59-.25,5.13-1.18,7.43-2.36,2.14-1.09,4.17-2.54,5.94-4.17.44,1.05,1.1,2,2.09,2.79.92.43,1.19,3.26,1.98,2.65,2.45-.88,5.26.75,6.41,2.93,1.95,4.08,1.56,8.87,2.94,13.1,1.92,4.01,1.85,9.63,3.13,13.16,2.58.77,3.93,3.34,4.1,5.89,2.86,0,5.2,2.26,5.47,5.08,1.08-.04,2.19.32,3.09.92,3.18-1.86,7.22.2,8.76,3.26.07.52.32.66.75.42,1.7-.17,3.47.67,4.46,2.05.49,0,.97,0,1.46,0,1.24-.01,2.49-.02,3.72.19,1.66-.81,3.73-.7,5.1.63,6.27-.35,7.3,3.3,4.72,6.95-2.47,3.49-8.25,6.98-15.92,6.98-2.25,0-4.67-.3-7.21-.99Z"/>
    <path class="cls-3" d="M444.22,389.19c-.06-.07-.13-.13-.19-.19-.44-.46-.92-.89-1.42-1.26-1.41-1.02-2.78-1.59-4.56-1.49-1.08.06-2.05.47-2.84,1.11-2.95-.17-5.96.09-8.74.98.02-3.76.15-7.51.55-11.26-6.91-4.18-1-14.01.1-20.06,1.74-5.43,5.51-13.38,12.27-9.28,6.75-8.3,13.17-4.45,14.19-.59.62,2.37-.81,4.74-5.46,4.29-.21.05-.89.64-.95.74-.03.03-.07.06-.11.1,0,.86-.64,1.15.13,1.81,3.83,8.47-1.55,19.04-4.65,27.05,1.32,2.59,2.27,5.37,2.98,8.24-.42-.09-.86-.15-1.29-.18Z"/>
    <path class="cls-2" d="M434.65,433.41c-13.84-.78-29.15-13.52-27.38-28.32.97-14.38,14.31-24.76,28.38-20.72,10.79-.24,24.18,8.28,24.92,19.82.62,16.93-8.23,29.09-25.92,29.22ZM426.61,391.79c-7.98,1.44-12.56,11.47-11.04,18.97,3.23,9.19,14.76,17,24.52,13.55,10.24-1.34,12.5-11.97,12.29-20.75-.77-4.91-5.85-7.32-9.74-9.55-1.34-.2-2.98-.2-3.91-1.47-4.05.14-8.08-.54-12.12-.75Z"/>
    <path class="cls-2" d="M481.35,442.55c-7.87-1.66-15.21-5.53-20.42-11.74-2.72-3.46-6.18-6.58-8.28-10.42-1.17-3.84,3.68-6.57,6.56-3.96,6.11,6.65,11.23,15.2,20.73,17.26,4.84,1.11,23.3,6.14,20.18-3.63-5.85-18.31-25.19-27.73-38.82-39.83-2.31-1.92-4.8-3.58-7.43-4.99-3.11-2.56-.73-7.53,3.16-7.2,3.48-.63,5.39.9,6.57,3.83,10.35,7.89,20.57,16,30.31,24.64,20.52,18.31,22.32,45.02-12.56,36.04Z"/>
    <path class="cls-2" d="M309.33,631.45c-5.51-3.25,1.37-11.46,5.89-7.85,8.9-1.69,19.08-3.79,24.52-11.76.79-1.34,1.88-2.66,3.55-2.76,11.08,1.71-.08,13.1-5.06,15.86-8.62,4.05-19.37,8.49-28.9,6.52Z"/>
    <path class="cls-2" d="M320.01,654.44c-5.93.97-15.59-20.26-13.67-24.85,2.31-4.43,9.74-1.37,8.22,3.4,1.13,2.32,4.82,12.92,6.82,12.88,7.26-1.75,15.32-2.08,21.89-5.77,4.76-5.67,10.26-12.41,5.47-19.76-3.36-4.15,1.91-9.52,5.91-5.76,8.71,11.38,3.18,23.78-6.25,32.56-8.44,4.83-18.91,5.85-28.4,7.31Z"/>
    <path class="cls-2" d="M327.25,651.23c-5.34-1.99-10.06-12.95-12.27-18.19-.41-4.41,5.62-6.17,7.85-2.44.4,5.76,16.12,19.25,4.43,20.63Z"/>
    <path class="cls-2" d="M338.02,643.58c-4.01-.85-5.34-5.65-7.91-8.41-2.68-2.84-6.17-9-.22-10.27,4.78-.54,5.88,5.35,8.65,8.12,3.12,3.07,6.64,10.51-.51,10.56Z"/>
    <path class="cls-2" d="M349.07,634.54c-3.63-.66-4.82-4.8-7.07-7.27-3.54-.02-5.42-4.1-3.99-7.1,3.8-5.97,9.91.82,12.23,4.71,3.2,2.91,5.16,9.72-1.17,9.66Z"/>
    <path class="cls-2" d="M285.18,718.85c-1.24-.2-2.33-.68-3.21-1.6-.81-.85-1.36-1.98-1.43-3.16-.07-1.11.3-2.23,1.12-3,.67-.63,1.47-.82,2.33-1.01,1.28-.28,2.55-.65,3.78-1.09,2.69-.96,5.26-2.24,7.69-3.73,5.13-3.15,9.71-7.36,13.4-12.09,4.29-5.49,7.69-11.71,9.37-18.51.86-3.48,1.32-7.02.96-10.6-.19-1.93-.59-3.87-1.29-5.68-.29-.75-.62-1.47-1.02-2.17-.13-.22-.26-.44-.4-.65-.67-1.04-1.19-2.09-1.09-3.37.2-2.35,2.41-3.78,4.65-3.31,1.18.25,2.25.96,2.97,1.92.25.33.47.69.7,1.04.85,1.3,1.54,2.73,2.1,4.18,1.48,3.85,2.17,7.96,2.14,12.08-.06,7.63-2.42,15.18-5.93,21.9-3.22,6.16-7.62,11.7-12.69,16.44-4.3,4.02-9.37,7.45-14.79,9.77-1.39.6-2.81,1.14-4.25,1.59-.61.19-1.22.36-1.84.52-1.04.26-2.05.55-3.12.55-.05,0-.1,0-.15,0Z"/>
    <path class="cls-2" d="M305.56,767.4c-30.64,1.07-46.43-25.83-29.62-51.68,2.43-6.56,11.99-.49,8.39,4.94-14.19,20.42-2.56,41.16,22.57,37.75,18.64-5.49,33.57-21.12,52.02-27.82,2.21-1.52,6.59-1.4,6.61-4.71.43-7.73,5.51-16.7,13.93-17.36,9.67-.12,10.31,8.99,14.06,3.67,2.09-2.48,5.65-3.65,7.47-6.16,1.22-11.81-5.94-23.35-13.13-32.24-4.67-8.34-42.23-34.7-32.49-42.56,7.46-1.69,9.32,9.53,14.31,13.27,14.86,13.92,31.74,27.75,38.24,47.79,4.43,14.11,3.97,19.17-8.51,27.59-6.49,8.55-11.73.62-18.04-2.65-9.51,2.82-3.6,17.62-13.74,19.67-9.95,3.63-18.5,9.69-27.88,14.49-10.78,6.47-20.95,15.72-34.21,16.01Z"/>
    <path class="cls-2" d="M314.15,723.26c-4.05-1.27-6.13-5.85-9.96-7.7-3.67.94-8.51-2.95-8-6.91,3.09-11.47,34.02,13.65,17.96,14.61Z"/>
    <path class="cls-2" d="M325.95,708.02c-5.94-2.1-11.96-4.08-18.02-5.62-1.83-1.07-3.16-3.35-2.4-5.48,4.24-6.17,15.53,1.81,21.36,2.83,5.01,1.23,4.95,9.32-.93,8.27Z"/>
    <path class="cls-2" d="M312.48,690.01c-.17-9.05,13.7-4.31,19.38-4.81,3.32-.19,7.5.9,7.95,4.78-.43,7.59-12.23,2.3-17.13,3.25-3.16,2.62-9.01.94-10.2-3.22Z"/>
    <path class="cls-2" d="M322.51,674.33c-7.54-1.2-4.15-12.74,2.66-9.14,3.8-.71,7.67-1.45,11.54-1.48,3.95,0,7.12,5.89,3.06,8.15-5.7.7-11.53,2.14-17.26,2.46Z"/>
    <path class="cls-2" d="M286.14,763.88c-4.94-2.8-2.1-9.46,3.39-7.68,6.01-1.26,11.7-3.7,17.52-5.64,11.2-6.45,23.12-11.44,34.48-17.63,9.21-6.87,18.7-14.49,29.86-17.49,13.7,5.91-5.85,11.49-10.81,14.66-10.25,8.17-21.3,15.14-33.64,19.76-11.38,5.64-27.79,16.48-40.79,14.03Z"/>
    <path class="cls-2" d="M387.88,718.57c-7.67-3.5-5.19-8.8,1.92-10.71,5.03-1.99,8.18-7.31,13.17-8.94,13.7,3.29-4.39,14.16-9.66,16.73-1.69,1.16-2.78,3.64-5.43,2.92Z"/>
    <path class="cls-2" d="M331.81,625.7c-9.04-1.83-11.56-26.27-13.98-34.32-5.88-15.03-4.3-22.58,7.87-33.31,11.67-13.46,24.5-26.22,36.68-39,3.99-7.63,15.26,2.46,5.87,8.32-15.27,15.24-30.49,30.92-44.06,47.6-1.93,6.96,2.98,13.65,3.82,20.51,1.2,8.46,4.07,16.37,7.33,24.21,1.4,2.78-.04,6.39-3.53,5.99Z"/>
    <path class="cls-2" d="M147,299.17c-6.54-2.26-12.28-6.82-18.56-9.84-3.12-.56-7.29-1.54-7.3-5.67,1.01-10.34,13.13.41,17.94,2.35,3.76,2.37,8.24,3.94,11.4,7.1,2.28,2.71,0,6.62-3.48,6.06Z"/>
    <path class="cls-2" d="M125.76,363.13c-11.87-3.34.57-12.43,4.89-16.85,3.65-4.37,12.06.16,9.41,5.51-5.18,2.59-8.91,11.34-14.3,11.34Z"/>
    <path class="cls-2" d="M140.79,324.7c-6-1.59-24.79,1.11-21.16-9.33,3.61-2.89,16.15.88,21.42.97,4.96,1.09,6,9.11-.26,8.37Z"/>
    <path class="cls-2" d="M479.55,543.02s.03-.02.05-.03c.07-.04.14-.08.2-.12.26.82.52,1.65.78,2.48-.35-.77-.69-1.55-1.03-2.32Z"/>
    <path class="cls-2" d="M480.39,520.54l.04.06c.03.07.06.14.08.21-.04-.09-.08-.18-.13-.27Z"/>
    <path class="cls-2" d="M471.31,518.38c-6.41-7.09,6.41-10.43,8.23-2.59.16.79.34,1.57.52,2.35-.44-.07-.89-.11-1.34-.12-.25-.01-.51-.02-.76-.04-.29-.15-.59-.29-.92-.4-1.89-.65-4.04-.14-5.52,1.17-.03.03-.07.06-.1.09-.03-.15-.07-.31-.1-.46Z"/>
    <path class="cls-2" d="M502.7,633.65c-6.24-2.26-7.14-10.94-10.25-16.17-5.83-8.06-9.34-16.6-9.69-26.68-5.13-25.26-8.93-51.11-11.53-76.57,1.54-6.53,10.42-3.33,9.34,2.68,2.22,29.43,7.88,58.72,13.45,87.6,4.5,6.09,7.64,12.83,10.68,19.74,2.61,3.23,4.28,9.91-2,9.4Z"/>
    <path class="cls-2" d="M487.81,636.81c-.66-4.06,4.34-5.62,7.49-5.03,8.39-1.91,17.32-2.87,24.95-7.08,4.4-3.09,10.58,4.28,5.53,7.36-4.87,2.84-37.48,13.69-37.96,4.74Z"/>
    <path class="cls-2" d="M492.97,658.05c-1.93-4.66-9.51-24.27,1.84-20.1,4.48,3.61,2.82,10.88,5.24,15.8,2.5,1.37,6.16-.65,8.91-1.06,5.36-1.55,11.07-2.42,16.09-4.93,2.64-2.3,2.87-6.69,2.61-9.98-2.35-4.25.66-8.97,5.45-6.47,8.13,8.24,2.26,25.31-9.62,26.51-9.51,1.69-23.07,9.73-30.53.23Z"/>
    <path class="cls-2" d="M504.8,656.02c-5.92-1.63-6.83-13.14-6.95-18.38,1.48-3.87,7.24-2.62,8.38.88-.25,5.04,7.8,17.91-1.43,17.5Z"/>
    <path class="cls-2" d="M516.43,655.98c-6.7-1.99-4.67-11.47-8.11-16.24-3.85-6.51,6.91-8.85,8.46-2.37.61,5.04,9.23,18.73-.36,18.61Z"/>
    <path class="cls-2" d="M528.16,647.71c-5.07.72-10.92-18.5-4.86-19.5,3.76-1.22,8.78,3.07,6.37,6.87.79,4.07,5.98,12.36-1.5,12.63Z"/>
    <path class="cls-2" d="M497.46,778.78c-20.74-2.14-44.19-14.91-35.07-39.17,10.17-22.19,33.89-39.57,33.75-65.7.55-5.1-1.01-10.83,1.04-15.59,2.2-2.92,7.14-1.39,7.69,2.12-.46,7.07.05,14.28-.71,21.37-.38,24.57-40.79,55.2-33.5,74.92,6.02,14.01,32.06,15.03,44.9,12.35,2.33.45,4.44,2.63,4.31,5.1-1.36,6.31-17.21,5.04-22.41,4.6Z"/>
    <path class="cls-2" d="M510.21,778.46c-5.21-1.64-3.66-9.28,1.95-7.99,8.69.36,18.91-2.86,23.19-10.9,5.09-10.15,7.64-21.35,10.99-32.14,2.61-9.9,8.3-19.33,8.66-29.66-.07-4.87-5.16-7.43-7.81-10.99-5.78-7.35-11.2-15.15-15.44-23.48-6.27-9.92,4.87-15.77,6.91-4.83,4.24,9.22,10.27,17.81,16.91,25.46,6.19,5.1,9.81,12.65,7.71,20.68-3.59,13.16-9.02,25.77-12.37,39.02-5.35,21.8-15.83,37.72-40.71,34.83Z"/>
    <path class="cls-2" d="M502.88,681.8c-5.96-1.44-5.96-11.11,1.11-10.65,5.48-.35,10.81,1.27,16.21,1.88,2.04-.23,4.28-.56,5.83,1.17,6.5,11.76-13.32,5.45-18.69,5.23-.82,1.71-2.61,2.65-4.46,2.36Z"/>
    <path class="cls-2" d="M519.56,697.94c-5.23-.83-10.34-2.33-15.36-3.93-1.96,1.26-4.58.44-5.98-1.27-3.15-2.01-2.89-7.32,1.22-7.86,4.97-.26,9.58,2.46,14.4,3.4,2.84,1.01,6.38.57,8.66,2.77,2.7,2.5.94,7.4-2.93,6.89Z"/>
    <path class="cls-2" d="M518.65,717.01c-6.09-2.25-12.24-4.64-18.75-5.49-2.71-.46-6.09-.09-7.59-2.93-4.16-12.35,20.96-2.01,26.01-.41,5.08.88,6.66,9.08.33,8.83Z"/>
    <path class="cls-2" d="M509.75,732.17c-6.02-2.08-11.6-5.61-17.82-7.23-1.97,2.14-5.67,1.18-6.96-1.24-3.51-9.66,7.59-8.05,13.09-5.29,5.08,2.4,11.41,3.7,15.33,7.81,1.71,2.69-.44,6.32-3.65,5.95Z"/>
    <path class="cls-2" d="M497.78,776.51c-5.59-1.32-3.91-8.72-6.84-12.56-2.92-5.95-11.15-8.16-16.22-3.57-1.75,1.5-.67,3.98-1.08,5.95-1.73,5.8-9.96,2.02-8.6-3.24-.57-15.9,23.04-17.29,30.76-6.29,3.24,3.98,11.93,19.74,1.97,19.71Z"/>
    <path class="cls-2" d="M297.47,764.61c-4.6-1.07-16.51-5.05-15.22-11.02.21-.67.65-1.24,1.19-1.68-.5-.76-2.86-.78-4.02-1.02-9.1-3.7-2.94-11.65,4.95-7.41,6.54.79,27.27,18.63,13.1,21.12Z"/>
    <path class="cls-2" d="M479.61,771.05c-.32-.25-.63-.51-.93-.78-.18-.16-.33-.34-.46-.53-10.28,2.27-8.1-11.68.72-11.04,3.65-1.77,8.97-.12,10.33,3.92,4.15-.08,8.08,5.99,3.69,8.57-1.3.87-2.88.22-4.19.17-2.96.74-6.47,1.6-9.15-.31Z"/>
    <path class="cls-2" d="M493.71,784.58c-7.83.14-39.17-12.02-27.48-22.04,3.7-1.35,9.21,2.24,8.1,6.42,12.55,8.62,30.27,10.16,44.47,4.93,4.34-2.03,8.75-4.76,11.86-8.44,1.21-3.83,6.21-4.14,8.26-.85,2.57,4.32-2.56,8.41-5.61,10.87-10.92,9.25-25.85,11.08-39.61,9.12Z"/>
    <path class="cls-2" d="M521.04,789.41c-10.89-.11-21.48-3.09-32.3-4.01-11.86-.35-26.24-3.67-28.67-17.28-.64-3.3-1.03-6.82-.5-10.14,1.3-3.75,6.91-3.05,8.06.46.68,5.84.11,13.7,6.79,16.3,55.65,7.81,59.82,19.07,68.35-42.81.16-4.35,6.05-4.75,8.05-1.45,1.99,4.3-.83,9.4-1.06,13.93-2.9,17.73-5.16,45.18-28.74,44.99Z"/>
  </g>
  <g id="Vector_layer-3" data-name="Vector layer">
    <g>
      <path class="cls-2" d="M387.02,96.75c-7.92-2.09-3.68-9.26,1.08-12.35,4.24-3.43,12.52-10.69,16.29-3.07,1.53,3.42-.89,8.28-5.02,6.52-4.8,1.88-7.3,8.41-12.35,8.9Z"/>
      <path class="cls-2" d="M517.45,156.16c-7.05-1.7-2.43-14.98-5.29-20.88-.55-3.38-2.42-6.51-2.66-9.9.31-4.14,6.02-4.52,7.81-1.18,2.12,5.41,10.33,32.63.13,31.97Z"/>
      <path class="cls-2" d="M354.95,362.02c-18.54-5.07-33.01-15.72-44.9-30.65-17.82-17.53-24.31-43.53-20.67-67.87,2.19-21.73,9.89-42.18,17.3-62.48,2.21-9.04.67-18.95,3.65-27.62.45-3.24,1.12-6.44,1.99-9.57.82.26,1.64.46,2.51.38.41-.03.82-.08,1.24-.11.46-.04.89-.15,1.3-.32.35.3.74.56,1.14.77.95.49,1.94.63,3,.62.11,0,.21,0,.32-.01-.27.78-.54,1.57-.78,2.36-1.7,5.58-1.27,12.24-3.97,17.31-.8,7.36-.85,14.87-2.86,22.03-3.08,9.23-7.61,17.96-9.72,27.54-6.23,22.81-11.42,47.75-2.61,70.58,3.46,8.91,9.69,16.28,16.13,23.2,9.25,11.23,20.51,20.12,34.69,24.1,7.65,2.88,15.72,1.61,23.8.34,4.72-.74,9.44-1.49,14.07-1.4,20.49-3.43,42.96-5.53,60.66-17.09,6.88-7.35,13.47-14.88,21.78-20.71,15.26-11.81,20.83-31.07,29.34-47.61,5.07-10.56,9.42-21.41,10.62-32.97.44-.14.87-.3,1.31-.5-.23.52-.46,1.04-.67,1.56-.28.61-.56,1.23-.72,1.89-.14.59-.18,1.28-.16,1.89.05,1.62.83,3.09,2.01,4.17,1.07.98,2.59,1.57,4.04,1.57.06,0,.12,0,.17,0,.27,0,.54-.04.81-.08-5.55,20.44-16.22,39.23-25.4,58.22-7.94,15.48-24.58,23.17-34.68,36.94-14.84,14.85-50.43,19.23-70.99,22.01-8.4.04-16.9,2.58-25.28,2.58-2.83,0-5.64-.29-8.44-1.06Z"/>
      <path class="cls-2" d="M522.51,216.17c.12-.2.24-.39.36-.59-.02.21-.04.43-.06.65-.1-.02-.2-.04-.3-.05Z"/>
      <path class="cls-2" d="M344.73,210.26c-.95-.57-1.68-1.3-2.05-2.37-.34-1.02-.28-2.14.2-3.11.97-1.99,3.45-2.78,5.41-1.78,1.97,1,2.83,3.49,1.85,5.48-.47.96-1.31,1.69-2.32,2.03-.4.13-.79.19-1.18.19-.65,0-1.28-.17-1.91-.44Z"/>
      <path class="cls-2" d="M413.26,226.26c-.93-.59-1.65-1.35-1.98-2.43-.31-1.02-.21-2.15.29-3.1,1.04-1.96,3.53-2.67,5.46-1.61,1.94,1.06,2.72,3.57,1.69,5.53-.5.94-1.36,1.65-2.38,1.95-.36.1-.72.15-1.07.15-.69,0-1.36-.19-2.01-.49Z"/>
      <path class="cls-2" d="M377.9,243.52c-31.96-1.67-2.82-41.41,1.98-23.99.69,6.32-5.3,2.25-8.61,13.47,2.46,1.76,5.7,1.1,8.34,2.24,3.78,1.83,3.36,8.33-1.05,8.33-.21,0-.43-.01-.66-.05Z"/>
      <path class="cls-3" d="M345.58,291.77c-.74-3.56,3.35-6.08,6.21-3.85,17.25,7.32,46.95-.55,65.67-3.1,11.97-3.78,23.78-9.76,32.29-19.17,2.77-2.52,2.91-6.72,5.47-9.27,3.28-2.22,7.69,1.61,6.7,5.22-15.21,34.81-61.21,35.41-93.89,38.27-6.9-.78-19.58-.64-22.44-8.11Z"/>
      <path class="cls-2" d="M521.52,244.15c-3.19-.5-3.81-3.9-5.3-6.22-1.53-3.22-4.25-5.36-7.05-7.43-7.18-7.02-15.09-13.14-23.4-18.8-3.45-2.38-6.25-5.5-9.38-8.24-5.97-4.35-12.95-7.22-18.71-11.92-11.55-9.9-26.82-14.29-41.1-18.75-35.07-12.8-50.31-15.83-87.1-7.06-4.7.91-9.53,1.02-14.12,1.88-4.47-.03-7.65-7.17-2.77-9.17,2.14-.64,4.47-.29,6.67-.58,28.58-4.97,48.56-10.97,77.43-.66,20.49,6.92,42.24,11.8,60.66,23.54,8.39,8.03,20.04,11.48,27.98,19.99,6.21,5.42,13.26,9.82,19.72,14.95,4.55,3.81,8.49,8.26,13.31,11.78,3.49,3.51,12.92,16.03,3.15,16.69Z"/>
      <path class="cls-2" d="M508.87,271.66c-2.57-.99-6.37-1.65-6.79-4.92-.28-2.18,1.32-4.22,3.49-4.5,3.47.17,6.55,2.83,10.21,2.44,3.49-.46,8.4.51,10.66-2.75,3.52-5.5,1.76-11.7-4.58-13.84-1.77.45-3.84-.09-4.93-1.6-1.31-1.79-.89-4.4.9-5.71,5.12-2.88,11.17,1.62,14.8,5.13,6.62,7.02,3.9,21.01-4.82,25.09-6,1.92-12.84,2.41-18.94.66Z"/>
      <path class="cls-2" d="M302.8,213.96c-26.28-5.17-14.7-48.24,9.14-31.45,2.17,2.42.55,6.73-2.8,6.79-3.5-.26-7.21-4.95-10.04-.54-4.73,5.35-3.85,14.89,3.93,16.61,4.86.87,5.48,9-.22,8.59Z"/>
      <path class="cls-2" d="M527.41,242.48c-7.22-2.32-.22-9.15,1.09-13.35,5.51-14.45-2.21-30.77-14.27-39.33-9.05-7.8-19.25-14.11-28.16-22.03-5.23-5.35-9.68-11.83-16.69-14.97-33.86-16.26-70.28-28.23-107.9-31.3-9.1-.81-37.74.95-41.66,9.68-2.56,8.88-3.81,18-3.69,27.24-.56,3.27,1.27,7.37-1.16,10.03-3.55,2.87-8.1-1.38-7.44-5.33.07-6.79-.19-13.63.6-20.38,2.07-15.52,3.79-25.44,21.6-27.72,40.94-10.83,110.36,12.25,147.09,32.24,6.62,4.47,11.07,11.37,17.06,16.56,6.08,4.78,12.79,8.66,18.43,14.01,6.71,5.28,13.95,10.19,18.41,17.68,8.36,11.71,10.62,28.17,3.35,40.95-1.5,2.59-2.97,6.65-6.65,6.04Z"/>
      <path class="cls-2" d="M513.75,244.8c-4.08-.37-3.78-4.72-3.84-7.78-1.1-3.27,1.58-6.96,5.14-5.72,3.48,1.32,2.82,5.68,3.01,8.69.33,2.59-1.63,5-4.32,4.82Z"/>
      <path class="cls-2" d="M530.69,198.31c-9.07-2.54-1.94-12.87-2.09-19.11-.31-22.84,2.81-48.48-11.02-68.21-5.94-6.92-12.22-13.51-17.68-20.83-4.4-4.3-9.97-7.12-15.2-10.26-20.36-14.96-39.65-15.16-63.68-12.43-17.83,1.63-35.99,5.7-51,15.88-3.63,2.42-6.42,5.76-8.87,9.33-6.16,7.57-13.16,14.45-19,22.29-.05,6.74-9.72,3.47-9.92-1.67.15-6.45,10.18-14.42,14.06-19.82,6.62-6.43,10.87-15.17,19.16-19.8,21.75-13.61,48.03-16.01,73.08-17.2,18.4-1,36.12,6.07,50.95,16.53,10.19,4.97,18.01,12.74,24.49,21.88,14.95,13.42,22.49,32.79,23.58,52.62-.45,7.86,3.42,52.34-6.86,50.8Z"/>
      <path class="cls-2" d="M332.63,151.77c-6.51-.81-4.81-8.35-5.41-13.03-.06-3.93-3.15-11.94,3.66-11.09,5.42,1.19,4.72,7.8,5.29,12.1-.23,3.94,2.73,12-3.54,12.02Z"/>
      <path class="cls-2" d="M357.72,149.14c-3.59-.4-4.8-3.9-4.79-7.06-.37-4.42-1.17-8.91-.59-13.33,1.35-6.73,11.69-2.09,8.62,3.54-1.54,4.62,4.73,16.78-3.24,16.85Z"/>
      <path class="cls-2" d="M381.71,148.46c-5.71-.76-4.46-7.09-4.36-11.25.26-1.21-.88-2.01-.97-3.19-.5-2.65,1.8-5.4,4.55-5.11,4.99.58,5.3,6.36,5.06,10.32-.21,3.44.9,9.55-4.28,9.23Z"/>
      <path class="cls-2" d="M407.54,157.09c-6.45-1.16-4.7-8.16-4.16-12.86.16-1.89.36-3.8.36-5.69-.71-1.35-.69-3.03.09-4.35,1.92-3.43,6.97-1.61,8.24,1.5,1.2,3.1.6,6.58.45,9.82-.94,3.83,1.02,12-4.98,11.58Z"/>
      <path class="cls-2" d="M435.23,165.88c-4.96-.72-5.21-5.92-4.19-9.85.89-2.78-.24-6.29,1.72-8.56,2.25-1.98,5.77-.48,7.1,1.87,1.44,2.43.47,5.3.19,7.91-.64,3.28.08,9.11-4.83,8.63Z"/>
      <path class="cls-2" d="M463.2,176.66c-9.48-2.67-1.31-13.54-.67-19.75,2.91-5.52,10.67.53,8.27,5.41-1.9,3.79-2.17,15.28-7.6,14.34Z"/>
      <path class="cls-2" d="M481.71,194.04c-6.29-1.32-4.77-7.52-2.73-11.85,1.54-3.12,1.79-9.33,6.7-8.02,5.29,1.47,4.35,7.22,2.31,11.02-1.71,3.07-1.45,9.42-6.29,8.85Z"/>
      <path class="cls-2" d="M503.08,205.02c-5.92-.86-3.87-7.04-2.5-10.9.59-1.4-.05-3,.89-4.29,2.6-3.95,8.65-.55,7.89,3.72-1.07,3.87-.95,11.45-6.29,11.48Z"/>
      <path class="cls-2" d="M517.95,218.43c-5.47-.83-3.4-6.56-2.4-10.18-3.81-5.02,4.69-9.39,7.66-4.58,1.99,2.95-.26,15.88-5.25,14.75Z"/>
    </g>
  </g>
</svg>