<?xml version="1.0" encoding="UTF-8"?>
<svg id="Layer_2" data-name="Layer 2" xmlns="http://www.w3.org/2000/svg" viewBox="0 0 805 805">
  <defs>
    <style>
      .cls-1 {
        stroke-width: 3px;
      }

      .cls-1, .cls-2, .cls-3, .cls-4 {
        stroke: #000;
        stroke-miterlimit: 10;
      }

      .cls-1, .cls-3, .cls-4 {
        fill: #000;
      }

      .cls-2 {
        fill: none;
        opacity: 0;
        stroke-width: 5px;
      }

      .cls-4 {
        stroke-width: 2px;
      }
    </style>
  </defs>
  <g id="Vector_layer" data-name="Vector layer">
    <rect class="cls-2" x="2.5" y="2.5" width="800" height="800"/>
  </g>
  <g id="Vector_layer-2" data-name="Vector layer">
    <path class="cls-1" d="M161.03,644.78c-25.03-4.01-31.62-22.06-29.58-45.15.88-9.11,1.63-18.29.98-27.44-.47-9.51-2.17-19.04-1.73-28.57.84-6.47,2.33-12.99,5.36-18.82,2.88-6.93,5.73-13.96,10.46-19.89-.42-2.45,2.24-3.25,3.79-4.47,4.22-3.28,9.16-5.63,14.27-7.19,12.56-4.84,26.22-8.75,39.78-6.95,10.32,1.01,18.99,6.54,26.39,13.41-.05.05-.1.1-.15.16-1.44,1.38-2.97,2.67-4.47,3.99-1.43-1.29-2.86-2.56-4.29-3.83-13.03-10.96-31.27-8.62-46.33-3.71-7.61,3.28-16.67,4.73-22.4,11.19-7.5,9.25-16.33,29.77-15.75,41.72.62,12.64,2.72,25.23,1.92,37.91-.46,14.01-4.15,29.6,4.02,42.15,4,4.64,9.61,7.63,15.61,8.7,5.62,1.35,11.06,3.31,16.67,4.72,7.31,2.58,15.17,4.15,22.74,1.66,6.23-3.23,12.04-8.09,15.51-14.26,3.96-6.32,9.92-11.05,14.07-17.24,2.8-3.49,6.42-6.36,8.52-10.38,4.14-8.9,9.56-17.39,11.27-27.14-.07-3.21.43-4.03.91-4.18.66-.2,1.18.91,2.52,1.19,1.98.41,3.25-1.54,3.86-1.26,1.64.78-1.54,18.31-13.63,35.05-1.03,1.43-4.85,5.36-11.38,14.08-3.46,4.62-8.11,8.29-11.09,13.28-4.16,7.28-10.99,13.27-18.58,16.75-.03.01-.07.02-.1.03-13.29,4.33-26.47-1.98-39.18-5.51Z"/>
    <path class="cls-1" d="M170.32,639.66c-3.61-.5-7.15-1.95-10.81-1.74-5.67.4-12.8-2.53-13.72-8.75-1.74-7.51,5.8-12.15,12.43-12.38,5.7-.64,11.62-2.25,17.28-.53,4.86,1.22,8.32,5.23,9.08,10.15,3.17,10.97-3.54,17.11-14.26,13.25ZM177.14,624.1c.08.23-.19.67.19.66.4.23.26.13.14-.11-.05-.12-.38-.76-.34-.55Z"/>
    <path class="cls-1" d="M188.05,587.97c-8.2-5.87,4.72-14.64,9.7-7.56,3.39,5.3-5.35,10.08-9.7,7.56Z"/>
    <path class="cls-1" d="M151.1,587.02c-5.77,1.86-9.17-7.26-3.56-9.12,6.9-2.85,11.32,6.86,3.56,9.12Z"/>
    <path class="cls-1" d="M132.99,564.46c-4.25.84-5.17-3.88-6.54-6.81-4.08-7.66-5.37-16.73-5.63-25.31,2.91-11.37,8.63-23.75,19.86-28.89,2.65-1.07,6.36-2.55,8.46.22,1.33,1.63,1.11,4.55-1.19,5.13-.83.39-1.68-.2-2.45,0-.71.22-1.42.52-2.08.87-8.94,5.18-13.87,15.83-15.69,25.63.79,5.33,1.35,10.81,2.94,15.96.83,3.5,7.85,11.3,2.31,13.19Z"/>
    <path class="cls-1" d="M164.88,613.69c-5.58.05-4.16-4.63-2.24-7.96,1.63-2.79.2-7.32,3.21-9.1,6.21-1.54,4.97,4.83,3.96,8.64-1,2.63-1.86,7.72-4.92,8.41Z"/>
    <path class="cls-1" d="M252.19,572.55c-9.67,1.24-19.72-6.37-24.93-13.97-.85-3.63,4.13-5.12,5.88-2.06,13.05,16.13,32.52,12.48,30.88-10.1-.51-10.27-7.52-18.67-11.66-27.74-5.63-8.77-16.44-19.55-25.81-8.86-4.35,3.62-7.59,8.2-9.43,13.57-.74,1.47-.52,3.37-1.85,4.52-1.97,1.74-5.31-.01-4.97-2.63,1.86-9.3,7.65-16.98,14.92-22.84,5.42-4.63,14.12-3.59,19.96-.24,9.06,6.02,13.98,15.92,18.89,25.25,9.51,15.42,10.6,41.8-11.9,45.12Z"/>
    <path class="cls-1" d="M185.52,498.86c-3.02.45-4.25-2.27-3.9-4.84-.37-2.97-1.22-5.86-2.04-8.74-2.49-4.4,3.28-7.75,5.55-3.27.72,3.94,6.04,15.34.39,16.85Z"/>
    <path class="cls-1" d="M194.62,498.52c-2.77.68-5.98-2.48-3.94-5.05.93-1.67.89-3.78,1.39-5.63.74-2.83.78-5.86,1.69-8.62,1.58-2.51,5.85-1.38,6.32,1.44-.12,4.17-1.38,8.28-2.07,12.4-.45,2.12-.84,4.96-3.37,5.46Z"/>
    <path class="cls-1" d="M205.75,500.7c-7.76.09-2.78-7.43-.52-10.91,2.52-2.91,6.46-11.84,11.07-9.33,4.15,2.58-.28,6.04-2.16,8.46-2.26,2.91-4.37,6.04-5.89,9.4-.42,1.15-1.29,2.1-2.5,2.37Z"/>
    <path class="cls-1" d="M134.27,635.14c-2.95.5-12.81,2.25-17.55-4.18-3.54-4.81-2.16-12.84,3.59-21.56,3.63-7.44,11.34-13.88,11.52-22.45,1.24-3.9,7.33-1.94,7.4,1.72-.59,10.5-9.8,18.15-13.85,27.48-2.51,5.77-4.32,9.87-2.68,11.56,2.16,2.22,7.91-1.97,13.61,1.24.16.09,3.49,2,3.16,3.72-.31,1.66-3.82,2.25-5.2,2.48Z"/>
    <path class="cls-3" d="M167.1,660.98c-9.6,2.64-18.89-9.78-14.94-18.48,2.41-4.21,10.05.14,5.82,3.85-1.28,3.08,2.81,9.27,6.52,8.77,4.18-.9,6.26-7.56,9.44-7.95,9.66,1.68-2.49,12.58-6.85,13.8Z"/>
    <path class="cls-3" d="M165.64,651.08c-5.22.78-4.87-6.73-2.24-9.25,2.93-2.03,7.05,1.81,4.98,4.78-.22,1.85-.5,4.11-2.73,4.47Z"/>
    <path class="cls-1" d="M204.15,675.3c-8.55-.87-14.1-8.19-14.82-16.41-.08-2.85-1.75-7.58,1.54-9.07,3.19-1.23,6.45,2.25,5.26,5.34-.34,11.6,7.15,17.85,17.91,11.91,8.36-5.55,14.99-13.72,21.02-21.66,5.52-7.27,10.82-10.41,17.04-11.28,2.33-.32,6.4-.45,6.91.98.78,2.2-7.18,7.06-14.8,11.18-10.98,11.76-21.43,31.05-40.07,29.01Z"/>
    <path class="cls-1" d="M409.25,519.34c-6.8-13.37-20.54-19.94-31.53-29.21-14.26-16.33-27.76-18.75-46.65-26.33-15.45-10.76-30.33-7.82-47.91-9.91-18.43-.64-34.95,9.41-51.87,15.32-9.28,3.84-18.38,10.52-23.29,19.35-.81,3.23,3.88,5.45,5.87,2.79,1.09-2.42,2.99-4.25,4.88-6.12,13.03-12.71,32.22-16.16,48.62-22.98,8.7-3.02,17.84-2.25,26.8-1.17,8.55.85,17.85-.74,25.65,3.59,11.1,7.12,24.13,9.66,35.89,15.27,8.28,4.11,13.87,11.68,20.98,17.33,8.48,6.66,18.68,11.7,24.55,21.12,10.63,16.59,19.35,35.72,19.32,55.74-.32,21.43-5.83,43.43-16.06,62.25-3.9,6.15-10.21,10.09-15.66,14.72-4.04,3.54-8.18,7.04-13.02,9.46-11.08,5.3-22.16,11.6-34.02,14.78-17.34,4.29-35.08,2.45-52.14-2.25-10.67-2.94-20.82-8-25.31-18.04-4.22-9.42-1.93-21.43.46-34.01,1.61-8.47,2.94-10.1,2.88-16.29-.12-12.71-5.85-20.42-3.76-21.92,1.89-1.36,9.14,3.15,14.03,10.15,9.92,14.19,1.14,25.73,9.53,35.39,9.33,10.74,29,6.65,31.57,6.14,6.38-1.26,12.94-3.92,16.63-9.56,1.22-2.35,4.01-5.52,1.96-8.07-1.15-1.37-3.33-1.92-4.89-.93-4.98,10.16-11.1,12.53-22.2,13.17-5.76-.46-12.17-1.11-17.29-3.95-1.15-1.08-3-3.11-4.1-6.18-1.45-4.05-.6-7.5-.3-9.67,1.43-10.47-5.7-20.11-6.74-21.48-6.46-8.47-18.81-13.16-22.43-9.88-1.83,1.66-1.11,6.44.34,16.01.82,5.36,1.68,8.24.99,12.79-.6,3.99-2.02,6.76-2.52,7.79-3.86,8.1-7.07,26.47-2.08,38.48,7.05,16.96,24.21,23.4,33.91,27.03,25.26,9.47,48.6,3.13,58.17-.12,14.7-7,30.92-12.08,43.12-23.29,8.38-6.67,17.3-13.23,21.57-23.44,16.81-39.02,19.9-77-3.99-113.89Z"/>
  </g>
  <g id="Vector_layer-3" data-name="Vector layer">
    <g>
      <path class="cls-4" d="M532.27,362.48c-11.62,5.43-25.1,3.72-37.62,5.5-23.05,1.47-50.12,3.18-72.25-4.19-7.56-2.35-12.78-7.45-19.44-11.95-9.87-6.56-20.93-11.48-29.82-19.24-3.17-2.74-5.96-5.93-8.52-9.24-13.2-17.51-27.58-34.59-37.4-54.25-1.23-2.64-2.21-5.39-3.07-8.18-6.04-20.2-14.14-40.3-13.45-61.66.46-15.24-1.78-31.19,4.04-45.61,3.71-9.14,7.68-18.19,11.75-27.17,1.74-3.82,3.72-7.56,6.24-10.93,6.82-9.2,16.3-15.95,25.35-23,9.51-7.88,20.75-13.12,32.65-16.52,18.58-5.52,38.12-4.93,56.75-.79,7.94,1.35,15.99,2.6,23.23,6.15,4.44,2.12,8.56,4.85,12.9,7.15,9.59,4.75,19.4,9.16,27.75,16.03,20.59,15.52,31.57,39.63,37.48,64.07,1.22,4.03,3.03,7.78,5.17,11.38,10.55,17.64,21.06,35.47,27.73,55.03,9.76,25.56,10.64,55.35-3.57,79.49-10.66,19.92-24.76,38.16-45.71,47.85l-.18.08ZM457.42,88.84c-15.71-3.23-31.86-7.36-47.84-5.65-15.49,2.05-31.25,5.88-43.93,15.32-9.29,7.35-19.58,14.02-26.51,23.79-3.41,4.61-5.6,9.95-7.68,15.26-3.11,7.85-7.4,15.28-9.82,23.32-1.09,3.61-1.47,7.38-1.57,11.15-.33,16.03-1.51,32.24,1.5,48.07,1.46,7.66,4.38,14.91,6.66,22.34,2.08,7.46,3.67,15.04,7.09,21.99,5.97,13.13,15.44,24.36,23.73,36.11,6.73,9.43,13.56,19.04,22.53,26.48,6.1,5.31,13.76,8.4,20.58,12.54,7.35,4.16,13.66,10.29,21.36,13.72,19.03,7.16,40.44,5.82,60.71,5.2,4.09-.12,8.11-.53,12.16-.97,10.39-1.2,21.73-.08,31.52-3.92,18.09-7.12,30.78-22.54,39.84-39.26,6.82-11.03,11.75-23.35,11.87-36.5.3-9.09-.99-18.08-3.28-26.88-4.33-16.23-11.56-31.64-19.25-46.44-4.22-7.75-9.7-14.8-13.54-22.76-2.66-5.56-4.15-11.62-5.96-17.49-1.34-4.22-3.44-7.99-5.13-12.14-6.97-20.98-23.6-38.28-43.32-47.88-10.81-4.54-20.17-12.35-31.56-15.35l-.19-.05Z"/>
      <path class="cls-4" d="M511.29,193.71c-4.97,3.55-10.11-3.72-5.25-7.35,4.87-3.26,9.73,3.5,5.39,7.23l-.14.11Z"/>
      <path class="cls-4" d="M439.42,225.84c-4.87,3.68-10.16-3.45-5.43-7.19,4.77-3.41,9.86,3.24,5.58,7.07l-.14.12Z"/>
      <path class="cls-4" d="M481.6,237.27c-4.35.37-6.54-4.34-3.51-7.58,1.52-1.77,4.04-2.53,5.87-3.84,2.27-1.47,1.73-3.94.05-5.69-2.34-2.7-5.15-3.7-7.48-5.45-2.02-1.63-2.08-5.07-.7-7.19,6.39-9.28,30.01,14.34,16.14,25.06-2.79,2.39-6.83,4.45-10.18,4.69h-.18Z"/>
      <path class="cls-4" d="M527.81,283.42c-.17,9.71-21.04,13.89-28.85,14.69-35.33,3.82-82.24,10.01-104.86-22.02-1.24-2.25-1.49-4.83-.29-6.53,2.17-3.12,6.17-1.16,8.13,1.26,9.66,11.77,25.23,16.75,39.75,19.35,7.58,1.22,14.9.38,22.56.39,19.58-.45,40.44-.78,55.83-9.52,2.83-1.58,7.32-1.67,7.72,2.24v.15Z"/>
      <path class="cls-4" d="M532.27,362.48c-10.52,5.03-22.65,3.8-34.07,5.15-22.78,1.88-49.4,3.34-71.64-2.51-4.24-1.22-8.08-2.66-11.53-4.69-3.44-2.05-6.48-4.69-9.76-7-10.42-7.39-22.54-12.45-32.12-20.82-3.17-2.74-5.96-5.93-8.52-9.24-13.2-17.51-27.58-34.59-37.4-54.25-1.23-2.64-2.21-5.39-3.07-8.18-6.03-20.2-14.14-40.3-13.45-61.66.46-15.24-1.78-31.19,4.04-45.61,3.71-9.14,7.68-18.19,11.75-27.17,1.74-3.82,3.72-7.56,6.24-10.93,6.82-9.2,16.3-15.95,25.35-23,9.51-7.88,20.75-13.12,32.65-16.52,18.58-5.52,38.12-4.93,56.75-.79,7.94,1.35,15.99,2.6,23.23,6.15,4.44,2.12,8.56,4.85,12.9,7.15,9.59,4.75,19.4,9.16,27.75,16.03,20.59,15.52,31.57,39.63,37.48,64.07,1.22,4.03,3.03,7.78,5.17,11.38,10.55,17.64,21.06,35.47,27.73,55.03,9.76,25.56,10.64,55.35-3.58,79.49-10.66,19.92-24.76,38.16-45.7,47.85l-.18.08ZM457.42,88.84c-15.71-3.22-31.86-7.36-47.84-5.65-15.49,2.05-31.24,5.88-43.93,15.32-9.29,7.35-19.58,14.02-26.51,23.79-3.41,4.61-5.6,9.95-7.68,15.26-3.11,7.85-7.4,15.28-9.82,23.32-1.09,3.61-1.47,7.38-1.57,11.15-.33,16.03-1.51,32.24,1.5,48.07,1.46,7.66,4.38,14.91,6.66,22.34,2.08,7.46,3.67,15.04,7.09,21.99,5.97,13.13,15.44,24.36,23.73,36.11,6.73,9.43,13.56,19.04,22.53,26.48,6.1,5.31,13.76,8.4,20.58,12.54,7.35,4.16,13.66,10.29,21.36,13.72,19.03,7.16,40.44,5.82,60.71,5.2,4.09-.12,8.11-.54,12.16-.98,10.39-1.2,21.73-.09,31.52-3.93,18.09-7.12,30.78-22.53,39.84-39.26,6.82-11.03,11.75-23.35,11.87-36.49.3-9.09-.99-18.08-3.28-26.89-4.33-16.23-11.56-31.64-19.25-46.44-4.22-7.75-9.7-14.8-13.54-22.76-2.66-5.56-4.15-11.62-5.96-17.49-1.34-4.22-3.44-7.99-5.13-12.14-6.96-20.98-23.61-38.28-43.32-47.88-10.81-4.54-20.17-12.36-31.56-15.35l-.19-.05Z"/>
      <path class="cls-4" d="M511.29,193.71c-4.97,3.55-10.11-3.72-5.25-7.35,4.87-3.26,9.73,3.5,5.39,7.23l-.14.11Z"/>
      <path class="cls-4" d="M439.42,225.84c-4.86,3.68-10.16-3.45-5.43-7.19,4.77-3.41,9.86,3.23,5.58,7.07l-.14.12Z"/>
      <path class="cls-4" d="M481.59,237.27c-4.34.37-6.54-4.34-3.51-7.58,1.52-1.77,4.04-2.53,5.86-3.84,2.27-1.47,1.73-3.94.05-5.69-2.34-2.7-5.15-3.7-7.48-5.45-2.02-1.63-2.08-5.07-.7-7.19,6.39-9.28,30.01,14.34,16.14,25.06-2.79,2.39-6.83,4.45-10.18,4.69h-.18Z"/>
      <path class="cls-4" d="M527.81,283.42c-.18,9.72-21.04,13.89-28.85,14.69-35.33,3.82-82.24,10.01-104.86-22.02-1.24-2.25-1.49-4.83-.29-6.53,2.17-3.12,6.17-1.16,8.13,1.25,9.65,11.77,25.23,16.75,39.75,19.35,7.58,1.22,14.9.38,22.56.39,19.58-.45,40.44-.78,55.83-9.52,2.83-1.58,7.31-1.67,7.72,2.24v.15Z"/>
      <path class="cls-4" d="M337.58,241.15c-5.19,2.2-17.54,6.15-20.49,1.49-1.1-2.06.12-4.68,1.88-6.07,4.74-3.74,12.73-2.28,17.2-6.58,4.45-4.86-3.25-16.13-5.02-21.68-3.73-9.92-6.62-24.77-1.37-34.53,3.06-5.54,7.57-6.52,14.31-6.35,3.86,0,7.87.2,11.72.2,4.33-.25,8.59.36,10.5-2.45.78-1.74.22-3.54-.08-6.14-.29-2.11-.42-4.36-.14-6.45.73-5.62,4.64-7.2,9.99-7.25,7.13-.06,16.06,2.33,23.63,1.73,11.42-.97-3.53-24.88,14.86-22.14,5.03.7,9.91,2.41,14.86,3.2,5.22.69,14.79,2.9,17.42-2.79.95-2.97-.4-6.54-.18-9.64,1.43-19.62,40.92,5.81,49.89,1.42,2.24-1.7-.29-4.82.4-8.01.34-3.04,3.25-5.47,5.98-3.72,2.34,1.32,4.11,4.93,4.89,7.96,3.41,12.18-6.92,16.45-17.22,15.05-9.83-1.04-18.18-5.8-27.48-8.1-2.24-.63-4.97-.65-5.18,2.25-.27,2.23.06,4.78-.99,6.88-2.15,4.37-6.92,8.13-12.06,9.71-6.18,1.64-12.81.33-19.01-.45-3.18-.24-8.28-2.27-10.88-1.92-1.3.29-1.07,3.07-1.06,4.58.06,2.6.05,5.43-.71,7.93-3.38,11.68-20.87,8.73-32.83,7.32-1.7-.12-3.17.17-3.64,1.83-.52,2-.02,4.41-.07,6.56,0,16.1-22.06,12.75-36.07,13.8-2.56.57-4.01,2.45-4.46,4.91-3.01,18.97,25.54,47.68,1.58,57.37l-.18.08Z"/>
      <path class="cls-4" d="M324.12,286.56c-16.48,3.97-35.23-5.44-31.93-23.86,1.07-9.82,9.24-16.46,18.62-18.1,5.88-1.25,18.03-.2,20.42,6.06.89,3.03-2.45,5.06-5.18,4.55-4.25-.64-8.22-2.61-12.66-1.69-7.12.96-12.41,5.88-11.98,13.3.25,11.2,14.27,13.55,24.68,9.22,2.71-1.03,5.74-3.01,8.62-2.17,1.89.57,2.82,2.78,2.04,4.84-2.1,4.71-7.79,6.54-12.42,7.81l-.2.05Z"/>
      <path class="cls-4" d="M561.53,197.35c-5.78.31-5.86-5.74-1.85-8.84,4.55-3.58,9.69-8.22,9.32-14.55-.21-5.93-5.26-12.2-10.91-8.81-3.34,1.73-5.21,6.46-8.81,7.56-2.24.66-4.35-1.07-4.55-3.32-.33-3.14,1.42-5.99,3.44-8.46,4.92-5.88,14.07-9.61,21.14-5.51,5.31,3.29,8.36,9.79,9.34,15.83,1.36,10.36-6.54,22.98-16.96,26.08l-.17.02Z"/>
      <path class="cls-4" d="M330.38,107.16c3,2.45,6.86,6.57,9.06,9.88,2.61,3.73-.31,7.97-4.6,6.99-2.91-.71-5.36-3.44-7.56-6.11-1.82-2.27-4.16-4.96-4.04-7.55.03-3.44,4.25-5.3,6.97-3.31l.16.1Z"/>
      <path class="cls-4" d="M332.66,128.47c-2.56,6.84-14.84,3.57-20.24,2.84-1.94-.37-4.1-.78-5.51-2.2-2.18-2.06-1.32-6.09,1.6-7.12,3.46-1.31,7.41-.02,11,.18,4.6.68,13.84-.53,13.19,6.14l-.04.16Z"/>
      <path class="cls-4" d="M324.88,140.31c4.63,1.27,4.08,7.05-.14,8.51-4.99,1.69-10.47,1.47-15.69,1.87-1.94.06-4.17.03-5.88-.86-3.1-1.38-3.06-5.88-.13-7.48,3.55-1.98,8.29-1.29,12.28-1.83,3.05-.17,6.54-.95,9.37-.26l.18.05Z"/>
    </g>
    <path class="cls-4" d="M500.25,556.59c-29.02-2.69-77.86,5.23-74.48-37.9,4.37-26.11,7.59-52.62,16.47-77.68,4.34-22.55,3.19-45.82,6.05-68.59-.02-1.58.77-2.81,1.89-3.55.55.3,1.11.58,1.68.85,1.45.68,2.99,1.24,4.55,1.62.29.07.58.13.86.19.98,3.2-.46,7.09-.44,10.38-2.38,19.28-1.46,38.88-4.75,58.03-4.12,15.65-10.11,30.79-11.3,47.11-12.05,54.69-7.68,58.29,47.75,59.98,29.24.64,59.68,5.36,88.12-3.43,17.29-8.98,11.6-29.93,9.62-45.51-1.28-13.63-3.72-27.08-6.66-40.44-.06-.46-.14-.91-.22-1.36-.12-.59-.28-1.17-.47-1.75-.6-2.66-1.22-5.31-1.84-7.96-.02-.11-.04-.22-.06-.34-.25-1.3-.5-2.59-.82-3.88-.16-.62-.33-1.25-.55-1.86-.02-.06-.04-.12-.06-.17-2.86-11.73-5.87-23.43-8.58-35.15-5.97-15.27-12.36-30.35-16.25-46.36-.08-.4-.18-.83-.3-1.29.25-1.7.35-3.39-.17-5.08-.11-.36-.25-.7-.41-1.02.98-.52,1.91-1.14,2.86-1.71,1.37-.82,2.81-1.5,4.2-2.28,3.55,7.47,6.09,25.1,8.62,29.47,8.35,19.06,14.23,38.7,18.07,59.17,4.83,20.28,10.24,40.49,11.72,61.37,3.79,20.93,6.62,47.78-18.61,55.84-13.46,3.61-27.32,4.66-41.23,4.66-11.78,0-23.6-.75-35.25-1.34Z"/>
    <path class="cls-4" d="M396.84,687.02c-8.22-15.23,16.09-30.78,29.48-30.59,8.55-.52,17.37-.43,25.61,2.03-.11-1.53-.3-3.2-.43-4.77-2.24-20.72-2.02-41.64-5.21-62.26-.66-8.72-6.71-39.86-.11-44.61,10.93-1.41,5.9,13.9,7.1,20.36,1.28,21.33,5.77,42.36,5.98,63.8-.69,8.2,5.63,34.34,1.26,38.57,4.6,2.72,3.54,9.59-2.31,9.27-4.76,1.72-8.75,5.14-13.59,6.74-14.67,5.33-36.36,19.27-47.77,1.46ZM434.71,666.04c-4.67.19-9.5-.08-13.95,1.53-5.94,2.3-25.23,16.93-9.58,18.35,15.34-1.82,28.99-11.14,43.08-16.77-6.11-2.55-12.95-3.16-19.55-3.11Z"/>
    <path class="cls-4" d="M536.02,720.23c-10.93-6.65-7.9-22.97-.29-31.1,11.05-9.38,29.04-7.92,42.83-7.91-4.15-23.04-7.74-46.23-11.73-69.3-4.08-17.06-9.21-33.92-12.07-51.24-7.61-5.9,5.86-14.03,8.92-5.68,2.59,21.39,9.97,41.91,14.08,63.04,2.92,20.82,6.87,41.46,10.34,62.19.56,3.03,1.35,6.2.79,9.1,1.11,2.23-.02,4.67-1.94,6.02-12.46,10.7-33.43,31.4-50.93,24.9ZM569.35,690.56c-13.44.9-33.79,1.42-30.11,20.41,7.52,5.32,31.09-14.59,37.5-20.3-2.46-.12-4.92-.2-7.38-.11Z"/>
    <path class="cls-4" d="M579.61,457.61c-.06-.45-.14-.89-.22-1.34-.21-1.07-.59-2.09-.91-3.12-.66-2.27-1.03-4.61-1.46-6.92-.25-1.3-.5-2.59-.82-3.88-.16-.62-.33-1.25-.55-1.86-.19-.54-.43-1.06-.66-1.59-.54-1.25-.98-2.54-1.46-3.8-.5-1.36-1.02-2.71-1.43-4.11-.13-.48-.26-.96-.4-1.44-.1-.79-.17-1.58-.2-2.38-.02-.57-.05-1.13-.09-1.69,1.82,2.33,3.59,4.69,5.27,7.12,5.31,7.81,9.08,16.48,13.15,24.99,0,.62.03,1.24.1,1.86.07.64.2,1.28.33,1.91.17.98.27,1.96.35,2.95.08.98.22,1.96.38,2.94.16,1.02.41,2.01.69,3,.07.81.28,1.58.64,2.3.09.38.18.76.25,1.15-.01-.07-.03-.15-.04-.23.22,1.22.34,2.45.53,3.67.21,1.36.51,2.7.85,4.03,0,.3-.02.6-.03.9-.01.45-.05.92-.03,1.38-4.78-8.6-9.66-17.14-14.22-25.87Z"/>
    <path class="cls-4" d="M618.84,587.1c.21-.17.41-.36.6-.55.14.26.29.51.46.75-.36-.06-.71-.13-1.06-.2Z"/>
    <path class="cls-4" d="M624.54,546.52c-3.51-.39-4.07-3.96-4.69-6.8-2.66-8.5-4.86-17.01-6.18-25.84-5.34-19.66-10.11-39.42-16.76-58.68-3.08-9.27-9.36-16.72-14.9-24.56-6.32-9.75-11.8-20.02-16.07-30.83-3.97-4.91,3.91-11.59,7.75-6.32,4.92,19.34,19.05,34.61,28.76,51.72,6.27,14.98,10.86,30.76,14.37,46.61,4.02,11.74,6.14,23.9,8.82,35.95,1.08,5.43,8.62,18.23-1.11,18.74Z"/>
    <path class="cls-4" d="M625.68,597.76c-11.09-3.23-16.16-15.33-15.24-26.11.24-6.38-.34-45.37,12.28-34.87,1.78-6.92,9.26-2.44,12.1,1.28,5.74,8.79,9.49,19.27,12.36,29.34,3.05,13.4-3.73,37.48-21.49,30.37ZM623.44,540.69c-3.67,8.86-3.77,18.52-3.95,27.97-.06,4.5-.51,9.21,1.39,13.43,1.38,4.39,9.2,10.24,13.3,6.94,7.86-9.21,4.46-22.63-.33-32.5-2.5-6.17-4.35-12.71-10.33-16.35-.02.18-.04.35-.07.52Z"/>
    <path class="cls-4" d="M395.39,505.53c2.68-12.05,4.8-24.21,8.82-35.95,3.51-15.85,8.1-31.63,14.37-46.61,9.71-17.11,23.84-32.38,28.76-51.72,3.84-5.26,11.73,1.42,7.75,6.32-4.27,10.81-9.75,21.08-16.07,30.83-5.54,7.84-11.82,15.29-14.9,24.56-6.64,19.27-11.42,39.02-16.76,58.68-1.32,8.83-3.52,17.33-6.18,25.84-.62,2.83-1.19,6.41-4.69,6.8-9.72-.52-2.18-13.31-1.11-18.74Z"/>
    <path class="cls-4" d="M373.87,545.15c2.87-10.08,6.62-20.56,12.36-29.34,2.84-3.72,10.32-8.2,12.1-1.28,12.62-10.49,12.05,28.49,12.28,34.87.91,10.78-4.15,22.89-15.24,26.11-17.77,7.11-24.54-16.97-21.49-30.37ZM397.53,517.93c-5.98,3.64-7.83,10.18-10.33,16.35-4.8,9.87-8.19,23.29-.33,32.5,4.1,3.3,11.92-2.55,13.3-6.94,1.89-4.22,1.44-8.93,1.39-13.43-.19-9.45-.28-19.11-3.95-27.97-.03-.17-.06-.34-.07-.52Z"/>
  </g>
</svg>