<?xml version="1.0" encoding="UTF-8"?>
<svg id="Layer_2" data-name="Layer 2" xmlns="http://www.w3.org/2000/svg" viewBox="0 0 805 805">
  <defs>
    <style>
      .cls-1 {
        stroke-width: 3px;
      }

      .cls-1, .cls-2, .cls-3, .cls-4 {
        stroke: #000;
        stroke-miterlimit: 10;
      }

      .cls-1, .cls-3, .cls-4 {
        fill: #000;
      }

      .cls-2 {
        fill: none;
        opacity: 0;
        stroke-width: 5px;
      }

      .cls-4 {
        stroke-width: 2px;
      }
    </style>
  </defs>
  <g id="Vector_layer" data-name="Vector layer">
    <rect class="cls-2" x="2.5" y="2.5" width="800" height="800"/>
  </g>
  <g id="Vector_layer-2" data-name="Vector layer">
    <path class="cls-1" d="M161.03,644.78c-25.03-4.01-31.62-22.06-29.58-45.15.88-9.11,1.63-18.29.98-27.44-.47-9.51-2.17-19.04-1.73-28.57.84-6.47,2.33-12.99,5.36-18.82,2.88-6.93,5.73-13.96,10.46-19.89-.42-2.45,2.24-3.25,3.79-4.47,4.22-3.28,9.16-5.63,14.27-7.19,12.56-4.84,26.22-8.75,39.78-6.95,10.32,1.01,18.99,6.54,26.39,13.41-.05.05-.1.1-.15.16-1.44,1.38-2.97,2.67-4.47,3.99-1.43-1.29-2.86-2.56-4.29-3.83-13.03-10.96-31.27-8.62-46.33-3.71-7.61,3.28-16.67,4.73-22.4,11.19-7.5,9.25-16.33,29.77-15.75,41.72.62,12.64,2.72,25.23,1.92,37.91-.46,14.01-4.15,29.6,4.02,42.15,4,4.64,9.61,7.63,15.61,8.7,5.62,1.35,11.06,3.31,16.67,4.72,7.31,2.58,15.17,4.15,22.74,1.66,6.23-3.23,12.04-8.09,15.51-14.26,3.96-6.32,9.92-11.05,14.07-17.24,2.8-3.49,6.42-6.36,8.52-10.38,4.14-8.9,9.56-17.39,11.27-27.14-.07-3.21.43-4.03.91-4.18.66-.2,1.18.91,2.52,1.19,1.98.41,3.25-1.54,3.86-1.26,1.64.78-1.54,18.31-13.63,35.05-1.03,1.43-4.85,5.36-11.38,14.08-3.46,4.62-8.11,8.29-11.09,13.28-4.16,7.28-10.99,13.27-18.58,16.75-.03.01-.07.02-.1.03-13.29,4.33-26.47-1.98-39.18-5.51Z"/>
    <path class="cls-1" d="M170.32,639.66c-3.61-.5-7.15-1.95-10.81-1.74-5.67.4-12.8-2.53-13.72-8.75-1.74-7.51,5.8-12.15,12.43-12.38,5.7-.64,11.62-2.25,17.28-.53,4.86,1.22,8.32,5.23,9.08,10.15,3.17,10.97-3.54,17.11-14.26,13.25ZM177.14,624.1c.08.23-.19.67.19.66.4.23.26.13.14-.11-.05-.12-.38-.76-.34-.55Z"/>
    <path class="cls-1" d="M188.05,587.97c-8.2-5.87,4.72-14.64,9.7-7.56,3.39,5.3-5.35,10.08-9.7,7.56Z"/>
    <path class="cls-1" d="M151.1,587.02c-5.77,1.86-9.17-7.26-3.56-9.12,6.9-2.85,11.32,6.86,3.56,9.12Z"/>
    <path class="cls-1" d="M132.99,564.46c-4.25.84-5.17-3.88-6.54-6.81-4.08-7.66-5.37-16.73-5.63-25.31,2.91-11.37,8.63-23.75,19.86-28.89,2.65-1.07,6.36-2.55,8.46.22,1.33,1.63,1.11,4.55-1.19,5.13-.83.39-1.68-.2-2.45,0-.71.22-1.42.52-2.08.87-8.94,5.18-13.87,15.83-15.69,25.63.79,5.33,1.35,10.81,2.94,15.96.83,3.5,7.85,11.3,2.31,13.19Z"/>
    <path class="cls-1" d="M164.88,613.69c-5.58.05-4.16-4.63-2.24-7.96,1.63-2.79.2-7.32,3.21-9.1,6.21-1.54,4.97,4.83,3.96,8.64-1,2.63-1.86,7.72-4.92,8.41Z"/>
    <path class="cls-1" d="M252.19,572.55c-9.67,1.24-19.72-6.37-24.93-13.97-.85-3.63,4.13-5.12,5.88-2.06,13.05,16.13,32.52,12.48,30.88-10.1-.51-10.27-7.52-18.67-11.66-27.74-5.63-8.77-16.44-19.55-25.81-8.86-4.35,3.62-7.59,8.2-9.43,13.57-.74,1.47-.52,3.37-1.85,4.52-1.97,1.74-5.31-.01-4.97-2.63,1.86-9.3,7.65-16.98,14.92-22.84,5.42-4.63,14.12-3.59,19.96-.24,9.06,6.02,13.98,15.92,18.89,25.25,9.51,15.42,10.6,41.8-11.9,45.12Z"/>
    <path class="cls-1" d="M185.52,498.86c-3.02.45-4.25-2.27-3.9-4.84-.37-2.97-1.22-5.86-2.04-8.74-2.49-4.4,3.28-7.75,5.55-3.27.72,3.94,6.04,15.34.39,16.85Z"/>
    <path class="cls-1" d="M194.62,498.52c-2.77.68-5.98-2.48-3.94-5.05.93-1.67.89-3.78,1.39-5.63.74-2.83.78-5.86,1.69-8.62,1.58-2.51,5.85-1.38,6.32,1.44-.12,4.17-1.38,8.28-2.07,12.4-.45,2.12-.84,4.96-3.37,5.46Z"/>
    <path class="cls-1" d="M205.75,500.7c-7.76.09-2.78-7.43-.52-10.91,2.52-2.91,6.46-11.84,11.07-9.33,4.15,2.58-.28,6.04-2.16,8.46-2.26,2.91-4.37,6.04-5.89,9.4-.42,1.15-1.29,2.1-2.5,2.37Z"/>
    <path class="cls-1" d="M134.27,635.14c-2.95.5-12.81,2.25-17.55-4.18-3.54-4.81-2.16-12.84,3.59-21.56,3.63-7.44,11.34-13.88,11.52-22.45,1.24-3.9,7.33-1.94,7.4,1.72-.59,10.5-9.8,18.15-13.85,27.48-2.51,5.77-4.32,9.87-2.68,11.56,2.16,2.22,7.91-1.97,13.61,1.24.16.09,3.49,2,3.16,3.72-.31,1.66-3.82,2.25-5.2,2.48Z"/>
    <path class="cls-3" d="M167.1,660.98c-9.6,2.64-18.89-9.78-14.94-18.48,2.41-4.21,10.05.14,5.82,3.85-1.28,3.08,2.81,9.27,6.52,8.77,4.18-.9,6.26-7.56,9.44-7.95,9.66,1.68-2.49,12.58-6.85,13.8Z"/>
    <path class="cls-3" d="M165.64,651.08c-5.22.78-4.87-6.73-2.24-9.25,2.93-2.03,7.05,1.81,4.98,4.78-.22,1.85-.5,4.11-2.73,4.47Z"/>
    <path class="cls-1" d="M204.15,675.3c-8.55-.87-14.1-8.19-14.82-16.41-.08-2.85-1.75-7.58,1.54-9.07,3.19-1.23,6.45,2.25,5.26,5.34-.34,11.6,7.15,17.85,17.91,11.91,8.36-5.55,14.99-13.72,21.02-21.66,5.52-7.27,10.82-10.41,17.04-11.28,2.33-.32,6.4-.45,6.91.98.78,2.2-7.18,7.06-14.8,11.18-10.98,11.76-21.43,31.05-40.07,29.01Z"/>
    <path class="cls-1" d="M409.25,519.34c-6.8-13.37-20.54-19.94-31.53-29.21-14.26-16.33-27.76-18.75-46.65-26.33-15.45-10.76-30.33-7.82-47.91-9.91-18.43-.64-34.95,9.41-51.87,15.32-9.28,3.84-18.38,10.52-23.29,19.35-.81,3.23,3.88,5.45,5.87,2.79,1.09-2.42,2.99-4.25,4.88-6.12,13.03-12.71,32.22-16.16,48.62-22.98,8.7-3.02,17.84-2.25,26.8-1.17,8.55.85,17.85-.74,25.65,3.59,11.1,7.12,24.13,9.66,35.89,15.27,8.28,4.11,13.87,11.68,20.98,17.33,8.48,6.66,18.68,11.7,24.55,21.12,10.63,16.59,19.35,35.72,19.32,55.74-.32,21.43-5.83,43.43-16.06,62.25-3.9,6.15-10.21,10.09-15.66,14.72-4.04,3.54-8.18,7.04-13.02,9.46-11.08,5.3-22.16,11.6-34.02,14.78-17.34,4.29-35.08,2.45-52.14-2.25-12.6-3.78-20.77-10.14-25.31-18.04-8.95-15.55-6.37-37.24,5.83-51.16,9.43-10.76,21.7-13.69,26.36-14.55-7.05,7.38-11.83,13.71-13.86,17.43-1.55,2.85-1.9,4.93-1.89,6.61.02,1.6.37,2.91.67,3.77.71,2.8,2.27,7.29,6.03,11.22,10.29,10.77,27.17,7.02,31.57,6.14,6.38-1.26,12.94-3.92,16.63-9.56,1.22-2.35,4.01-5.52,1.96-8.07-1.15-1.37-3.33-1.92-4.89-.93-4.98,10.16-11.1,12.53-22.2,13.17-5.76-.46-12.17-1.11-17.29-3.95-1.15-1.08-3-3.11-4.1-6.18-1.6-4.47-.63-8.4-.3-9.67,1.3-4.99,3.89-5.73,9.18-14.05,2.91-4.59,4.36-6.91,3.58-8.39-2.01-3.82-14.9-.63-16.15-.32-2.16.54-6.19,1.57-10.23,3.95-10.33,6.08-14.31,17.19-16.73,24.04-3.11,8.79-8.31,23.5-2.08,38.48,7.05,16.96,24.21,23.4,33.91,27.03,25.26,9.47,48.6,3.13,58.17-.12,14.7-7,30.92-12.08,43.12-23.29,8.38-6.67,17.3-13.23,21.57-23.44,16.81-39.02,19.9-77-3.99-113.89Z"/>
  </g>
  <g id="Vector_layer-3" data-name="Vector layer">
    <g>
      <g>
        <path class="cls-4" d="M456.03,371.28c-22.83-3.4-41.49-16.93-57.33-33.04-20.44-19.16-27.98-48-25.81-75.27.9-20.65,5.95-40.72,11.11-60.61,1.04-4.06,1.72-8.17,1.76-12.38-1.22-25.12,2.53-51.34,17.91-72.03,6.08-8.94,14.25-15.94,22.11-23.2,3.52-3.43,6.71-7.21,10.37-10.49,5.95-5.44,13.33-8.91,20.56-12.44,16.7-9.22,35.29-15.28,54.67-15.22,12.37-.09,24.63,1.77,35.98,6.66,10.67,4.22,21.67,8.03,30.8,14.93,3.36,2.52,6.32,5.55,9.06,8.73,6.43,7.47,12.79,15.05,18.92,22.77,9.64,12.2,11.99,28.13,16.72,42.62,6.68,20.31,4.56,41.88,4.46,62.95-.04,2.92-.2,5.83-.64,8.71-3.89,21.62-12.88,42.07-20.61,62.59-1.53,3.9-3.31,7.75-5.58,11.27-6.34,9.95-15.57,17.78-23.19,26.86-5.12,6.19-8.7,12.55-15.29,16.94-19.16,13.31-45.62,19.29-68.15,24.37-12.52,1.82-24.97,7.26-37.65,5.32l-.2-.03ZM450.82,87.77c-10.08,6.08-16.86,16.21-25.96,23.61-16.22,14.76-27.31,36.05-28.09,58.14-.45,4.46-1.4,8.66-1.5,13.09-.09,6.14.2,12.38-.79,18.46-1.44,8.72-4.72,17.03-6.59,25.65-3.21,16.37-5.8,33.19-5.39,49.98.28,9.1,1.57,18.08,4.42,26.72,3.82,12.58,12.02,23.02,21.67,31.67,13.4,13.49,29.92,24.71,49.28,26.45,10.48.93,21.04-3.33,31.35-5.11,4.02-.72,7.99-1.46,11.94-2.49,19.63-5.12,40.55-9.86,56.79-22.09,6.42-5.46,10.75-13.12,16.63-19.18,5.38-5.9,11.86-11.02,16.22-17.83,6.52-9.66,10.36-20.8,14.17-31.75,4.65-13.61,10.57-27.05,12.6-41.33,1.33-7.64.71-15.35.61-23.1.09-7.77.86-15.55.1-23.31-1.57-16.03-7.26-31.26-12.1-46.55-1.15-3.59-2.58-7.1-4.64-10.26-4.59-7.03-10.8-12.95-15.99-19.61-3.49-4.51-7.1-9.02-11.67-12.48-9.4-7.42-21.15-10.93-32.13-15.36-14.82-5.48-31.02-4.73-46.46-2.33-15.81,2.85-30.14,11.37-44.31,18.89l-.17.1Z"/>
        <path class="cls-4" d="M428.66,203.39c-5.22-2.36-2.46-10.22,3.13-8.46,5.69,2.11,2.8,10.53-2.96,8.53l-.17-.07Z"/>
        <path class="cls-4" d="M506.67,213.98c-5.19-2.48-2.18-10.29,3.36-8.36,5.59,2.26,2.52,10.6-3.19,8.43l-.17-.07Z"/>
        <path class="cls-4" d="M469.42,236.94c-3.28.72-7.73-.12-11.09-1.63-16.32-6.38-.31-35.69,8.43-28.59,1.92,1.65,2.83,4.97,1.35,7.1-1.75,2.34-4.16,4.09-5.65,7.34-1.12,2.15-.94,4.67,1.65,5.44,2.12.74,4.75.76,6.71,2.03,3.82,2.25,3.04,7.39-1.24,8.26l-.17.04Z"/>
        <path class="cls-4" d="M438.22,294.05c-.71-3.87,3.61-5.04,6.78-4.32,17.23,4.06,37.33-1.5,56.25-6.58,7.35-2.17,14.61-3.42,21.54-6.73,13.2-6.59,26.74-15.75,32.69-29.76,1.2-2.87,4.48-5.88,7.44-3.49,1.63,1.29,2.12,3.84,1.56,6.35-12.68,37.11-59.44,44.38-94.42,50.66-7.72,1.43-28.92,3.3-31.82-5.97l-.03-.15Z"/>
        <path class="cls-4" d="M456.03,371.28c-22.83-3.4-41.49-16.93-57.33-33.04-20.44-19.17-27.98-47.99-25.82-75.27.9-20.65,5.96-40.72,11.11-60.61,1.04-4.06,1.72-8.17,1.76-12.38-1.22-25.12,2.53-51.34,17.91-72.03,6.08-8.94,14.25-15.94,22.11-23.2,3.52-3.43,6.71-7.21,10.37-10.49,5.95-5.44,13.33-8.91,20.56-12.44,16.7-9.22,35.29-15.28,54.67-15.22,12.37-.09,24.63,1.77,35.98,6.66,10.67,4.22,21.67,8.03,30.8,14.93,3.36,2.52,6.32,5.55,9.06,8.73,6.43,7.47,12.79,15.05,18.93,22.77,9.64,12.2,11.99,28.13,16.72,42.62,6.68,20.31,4.56,41.87,4.46,62.95-.04,2.92-.2,5.83-.64,8.71-3.89,21.62-12.88,42.07-20.61,62.59-1.53,3.9-3.31,7.75-5.58,11.27-6.84,10.73-17.04,19-24.96,29.02-2.5,3.14-4.67,6.53-7.39,9.47-2.74,2.92-6.03,5.39-9.75,7.75-19.7,11.88-45.65,17.98-68.04,22.59-11.34,1.92-22.63,6.52-34.14,4.66l-.2-.03ZM450.82,87.77c-10.09,6.07-16.86,16.22-25.96,23.61-16.22,14.76-27.31,36.05-28.09,58.14-.45,4.46-1.4,8.66-1.5,13.09-.09,6.14.2,12.38-.79,18.46-1.44,8.72-4.72,17.03-6.59,25.65-3.21,16.37-5.8,33.19-5.39,49.98.28,9.1,1.57,18.08,4.42,26.72,3.82,12.58,12.02,23.01,21.67,31.67,13.41,13.5,29.92,24.71,49.28,26.45,10.47.93,21.04-3.33,31.35-5.11,4.02-.72,7.99-1.45,11.95-2.49,19.63-5.12,40.55-9.86,56.79-22.09,6.42-5.46,10.75-13.12,16.63-19.18,5.38-5.9,11.86-11.02,16.22-17.83,6.52-9.66,10.36-20.8,14.17-31.75,4.65-13.61,10.57-27.05,12.6-41.33,1.32-7.64.71-15.35.61-23.1.09-7.77.86-15.55.1-23.31-1.57-16.03-7.26-31.25-12.1-46.54-1.15-3.59-2.58-7.1-4.64-10.26-4.59-7.03-10.8-12.95-15.99-19.61-3.49-4.51-7.1-9.02-11.67-12.48-9.4-7.42-21.15-10.93-32.13-15.36-14.83-5.48-31.02-4.73-46.46-2.33-15.81,2.85-30.14,11.37-44.31,18.89l-.17.1Z"/>
        <path class="cls-4" d="M428.66,203.4c-5.22-2.36-2.46-10.22,3.13-8.46,5.69,2.11,2.8,10.53-2.96,8.53l-.17-.07Z"/>
        <path class="cls-4" d="M506.67,213.98c-5.19-2.48-2.18-10.29,3.36-8.36,5.59,2.26,2.52,10.6-3.19,8.43l-.17-.07Z"/>
        <path class="cls-4" d="M469.42,236.94c-3.28.72-7.73-.12-11.09-1.63-16.32-6.38-.31-35.69,8.43-28.59,1.92,1.65,2.83,4.97,1.35,7.1-1.75,2.34-4.16,4.09-5.65,7.34-1.12,2.15-.94,4.67,1.65,5.45,2.12.74,4.75.76,6.71,2.03,3.82,2.25,3.04,7.39-1.24,8.26l-.17.04Z"/>
        <path class="cls-4" d="M438.22,294.04c-.71-3.87,3.61-5.04,6.78-4.32,17.23,4.05,37.34-1.5,56.25-6.59,7.35-2.17,14.61-3.42,21.54-6.73,13.2-6.59,26.74-15.75,32.69-29.76,1.2-2.87,4.49-5.88,7.44-3.49,1.64,1.29,2.12,3.84,1.56,6.35-12.68,37.11-59.44,44.38-94.42,50.66-7.72,1.43-28.91,3.3-31.82-5.97l-.03-.15Z"/>
        <path class="cls-4" d="M608.68,200.03c-25.72-2.55-6.42-38.14-14.64-55.49-1.12-2.24-3.04-3.62-5.66-3.46-13.73,2.94-33.96,12.36-38.49-3.08-.65-2.05-.86-4.5-1.92-6.28-.92-1.46-2.41-1.33-4.01-.73-11.09,4.72-27.03,12.48-33.57,2.22-1.43-2.18-2.23-4.89-2.91-7.41-.41-1.45-.98-4.18-2.31-4.1-2.59.4-6.91,3.78-9.89,4.91-5.73,2.49-11.72,5.61-18.11,5.78-5.37-.06-11.01-2.33-14.3-5.92-1.59-1.72-2-4.25-2.88-6.32-1.02-2.73-3.63-1.93-5.6-.7-8.28,4.83-14.94,11.75-24.09,15.51-9.49,4.24-20.6,3.05-20.76-9.6-.11-3.13.58-7.09,2.45-9.02,2.13-2.45,5.61-.94,6.79,1.88,1.56,2.86.01,6.57,2.64,7.57,9.85,1.68,40.58-33.83,47.48-15.41,1.08,2.92.79,6.72,2.54,9.3,4.12,4.72,12.68-.09,17.5-2.23,4.52-2.15,8.72-5.17,13.35-7.26,16.87-7.81,9.26,19.34,20.49,17.06,7.44-1.56,15.33-6.37,22.19-8.32,5.15-1.46,9.34-1.04,11.63,4.15.86,1.93,1.37,4.12,1.69,6.23.44,2.59.41,4.47,1.65,5.92,2.63,2.16,6.54.38,10.77-.6,3.69-1.08,7.49-2.39,11.19-3.49,6.42-2.07,11.02-2.4,15.52,2.06,7.78,7.88,9.2,22.95,8.41,33.52-.14,5.82-4.35,18.8,1.29,22.21,5.5,2.87,12.75-.78,18.36,1.47,2.07.83,3.99,3.01,3.51,5.29-1.53,5.3-14.49,4.99-20.09,4.34l-.19-.03Z"/>
        <path class="cls-4" d="M634.36,239.85c-4.8.08-10.77-.07-14.11-4-1.32-1.76-1.06-4.14.6-5.22,2.53-1.62,6-.57,8.88-.34,11.21,1.22,24-4.98,21.08-15.8-1.68-7.24-8.14-10.46-15.24-9.38-4.52.38-7.78,3.38-11.67,5.19-2.48,1.26-6.25.25-6.25-2.9.53-6.68,11.9-11.11,17.89-11.57,9.46-1.07,19.17,3,22.96,12.12,8.35,16.75-6.99,31.05-23.92,31.89h-.21Z"/>
        <path class="cls-4" d="M381.48,221.13c-10.87-.03-22-9.92-23.61-20.24-.76-6.07.33-13.17,4.51-17.82,5.63-5.93,15.47-4.93,21.84-.67,2.63,1.8,5.11,4.05,5.68,7.15.44,2.22-1.09,4.47-3.43,4.47-3.77-.05-6.89-4.06-10.58-4.78-6.38-1.66-9.46,5.78-7.99,11.53,1.43,6.18,7.67,9.19,13.04,11.34,4.73,1.84,6.36,7.67.72,9l-.17.03Z"/>
        <path class="cls-4" d="M578.17,69.32c2.05-2.68,6.63-2.09,7.62,1.21.85,2.45-.64,5.69-1.75,8.38-1.36,3.18-2.94,6.49-5.54,7.99-3.84,2.14-7.83-1.1-6.38-5.41,1.19-3.79,3.73-8.83,5.92-12.03l.12-.14Z"/>
        <path class="cls-4" d="M581.78,90.41c-2.5-6.22,6.71-7.67,10.93-9.61,3.39-1.2,6.82-3.55,10.51-3.27,3.09.17,5.06,3.8,3.54,6.39-.95,1.76-2.91,2.76-4.66,3.67-4.98,2.22-15.84,8.81-20.22,2.97l-.08-.15Z"/>
        <path class="cls-4" d="M592.82,99.63c2.51-1.46,6.08-1.69,9.06-2.39,3.98-.61,8.33-2.6,12.3-1.7,3.27.7,4.57,5.01,1.99,7.21-1.39,1.34-3.51,2-5.4,2.48-5.12,1.09-10.31,2.84-15.58,2.63-4.46-.22-6.62-5.61-2.53-8.13l.16-.1Z"/>
      </g>
      <path class="cls-4" d="M500.25,556.59c-29.02-2.69-77.86,5.23-74.48-37.9,4.37-26.11,7.59-52.62,16.47-77.68,4.34-22.55,3.19-45.82,6.05-68.59-.02-1.58.77-2.81,1.89-3.55.55.3,1.11.58,1.68.85,1.45.68,2.99,1.24,4.55,1.62.29.07.58.13.86.19.98,3.2-.46,7.09-.44,10.38-2.38,19.28-1.46,38.88-4.75,58.03-4.12,15.65-10.11,30.79-11.3,47.11-12.05,54.69-7.68,58.29,47.75,59.98,29.24.64,59.68,5.36,88.12-3.43,17.29-8.98,11.6-29.93,9.62-45.51-1.28-13.63-3.72-27.08-6.66-40.44-.06-.46-.14-.91-.22-1.36-.12-.59-.28-1.17-.47-1.75-.6-2.66-1.22-5.31-1.84-7.96-.02-.11-.04-.22-.06-.34-.25-1.3-.5-2.59-.82-3.88-.16-.62-.33-1.25-.55-1.86-.02-.06-.04-.12-.06-.17-2.86-11.73-5.87-23.43-8.58-35.15-5.97-15.27-12.36-30.35-16.25-46.36-.08-.4-.18-.83-.3-1.29.25-1.7.35-3.39-.17-5.08-.11-.36-.25-.7-.41-1.02.98-.52,1.91-1.14,2.86-1.71,1.37-.82,2.81-1.5,4.2-2.28,3.55,7.47,6.09,25.1,8.62,29.47,8.35,19.06,14.23,38.7,18.07,59.17,4.83,20.28,10.24,40.49,11.72,61.37,3.79,20.93,6.62,47.78-18.61,55.84-13.46,3.61-27.32,4.66-41.23,4.66-11.78,0-23.6-.75-35.25-1.34Z"/>
      <path class="cls-4" d="M396.84,687.02c-8.22-15.23,16.09-30.78,29.48-30.59,8.55-.52,17.37-.43,25.61,2.03-.11-1.53-.3-3.2-.43-4.77-2.24-20.72-2.02-41.64-5.21-62.26-.66-8.72-6.71-39.86-.11-44.61,10.93-1.41,5.9,13.9,7.1,20.36,1.28,21.33,5.77,42.36,5.98,63.8-.69,8.2,5.63,34.34,1.26,38.57,4.6,2.72,3.54,9.59-2.31,9.27-4.76,1.72-8.75,5.14-13.59,6.74-14.67,5.33-36.36,19.27-47.77,1.46ZM434.71,666.04c-4.67.19-9.5-.08-13.95,1.53-5.94,2.3-25.23,16.93-9.58,18.35,15.34-1.82,28.99-11.14,43.08-16.77-6.11-2.55-12.95-3.16-19.55-3.11Z"/>
      <path class="cls-4" d="M536.02,720.23c-10.93-6.65-7.9-22.97-.29-31.1,11.05-9.38,29.04-7.92,42.83-7.91-4.15-23.04-7.74-46.23-11.73-69.3-4.08-17.06-9.21-33.92-12.07-51.24-7.61-5.9,5.86-14.03,8.92-5.68,2.59,21.39,9.97,41.91,14.08,63.04,2.92,20.82,6.87,41.46,10.34,62.19.56,3.03,1.35,6.2.79,9.1,1.11,2.23-.02,4.67-1.94,6.02-12.46,10.7-33.43,31.4-50.93,24.9ZM569.35,690.56c-13.44.9-33.79,1.42-30.11,20.41,7.52,5.32,31.09-14.59,37.5-20.3-2.46-.12-4.92-.2-7.38-.11Z"/>
      <path class="cls-4" d="M579.61,457.61c-.06-.45-.14-.89-.22-1.34-.21-1.07-.59-2.09-.91-3.12-.66-2.27-1.03-4.61-1.46-6.92-.25-1.3-.5-2.59-.82-3.88-.16-.62-.33-1.25-.55-1.86-.19-.54-.43-1.06-.66-1.59-.54-1.25-.98-2.54-1.46-3.8-.5-1.36-1.02-2.71-1.43-4.11-.13-.48-.26-.96-.4-1.44-.1-.79-.17-1.58-.2-2.38-.02-.57-.05-1.13-.09-1.69,1.82,2.33,3.59,4.69,5.27,7.12,5.31,7.81,9.08,16.48,13.15,24.99,0,.62.03,1.24.1,1.86.07.64.2,1.28.33,1.91.17.98.27,1.96.35,2.95.08.98.22,1.96.38,2.94.16,1.02.41,2.01.69,3,.07.81.28,1.58.64,2.3.09.38.18.76.25,1.15-.01-.07-.03-.15-.04-.23.22,1.22.34,2.45.53,3.67.21,1.36.51,2.7.85,4.03,0,.3-.02.6-.03.9-.01.45-.05.92-.03,1.38-4.78-8.6-9.66-17.14-14.22-25.87Z"/>
      <path class="cls-4" d="M618.84,587.1c.21-.17.41-.36.6-.55.14.26.29.51.46.75-.36-.06-.71-.13-1.06-.2Z"/>
      <path class="cls-4" d="M624.54,546.52c-3.51-.39-4.07-3.96-4.69-6.8-2.66-8.5-4.86-17.01-6.18-25.84-5.34-19.66-10.11-39.42-16.76-58.68-3.08-9.27-9.36-16.72-14.9-24.56-6.32-9.75-11.8-20.02-16.07-30.83-3.97-4.91,3.91-11.59,7.75-6.32,4.92,19.34,19.05,34.61,28.76,51.72,6.27,14.98,10.86,30.76,14.37,46.61,4.02,11.74,6.14,23.9,8.82,35.95,1.08,5.43,8.62,18.23-1.11,18.74Z"/>
      <path class="cls-4" d="M625.68,597.76c-11.09-3.23-16.16-15.33-15.24-26.11.24-6.38-.34-45.37,12.28-34.87,1.78-6.92,9.26-2.44,12.1,1.28,5.74,8.79,9.49,19.27,12.36,29.34,3.05,13.4-3.73,37.48-21.49,30.37ZM623.44,540.69c-3.67,8.86-3.77,18.52-3.95,27.97-.06,4.5-.51,9.21,1.39,13.43,1.38,4.39,9.2,10.24,13.3,6.94,7.86-9.21,4.46-22.63-.33-32.5-2.5-6.17-4.35-12.71-10.33-16.35-.02.18-.04.35-.07.52Z"/>
      <path class="cls-4" d="M395.39,505.53c2.68-12.05,4.8-24.21,8.82-35.95,3.51-15.85,8.1-31.63,14.37-46.61,9.71-17.11,23.84-32.38,28.76-51.72,3.84-5.26,11.73,1.42,7.75,6.32-4.27,10.81-9.75,21.08-16.07,30.83-5.54,7.84-11.82,15.29-14.9,24.56-6.64,19.27-11.42,39.02-16.76,58.68-1.32,8.83-3.52,17.33-6.18,25.84-.62,2.83-1.19,6.41-4.69,6.8-9.72-.52-2.18-13.31-1.11-18.74Z"/>
      <path class="cls-4" d="M373.87,545.15c2.87-10.08,6.62-20.56,12.36-29.34,2.84-3.72,10.32-8.2,12.1-1.28,12.62-10.49,12.05,28.49,12.28,34.87.91,10.78-4.15,22.89-15.24,26.11-17.77,7.11-24.54-16.97-21.49-30.37ZM397.53,517.93c-5.98,3.64-7.83,10.18-10.33,16.35-4.8,9.87-8.19,23.29-.33,32.5,4.1,3.3,11.92-2.55,13.3-6.94,1.89-4.22,1.44-8.93,1.39-13.43-.19-9.45-.28-19.11-3.95-27.97-.03-.17-.06-.34-.07-.52Z"/>
    </g>
  </g>
</svg>