<?xml version="1.0" encoding="UTF-8"?>
<svg id="Layer_2" data-name="Layer 2" xmlns="http://www.w3.org/2000/svg" version="1.1" viewBox="0 0 805 805">
  <defs>
    <style>
      .cls-1 {
        fill: none;
        stroke-opacity: 0;
        stroke-width: 5px;
      }

      .cls-1, .cls-2 {
        stroke: #000;
        stroke-miterlimit: 10;
      }

      .cls-2 {
        fill: #000;
        stroke-width: 2px;
      }
    </style>
  </defs>
  <g id="Vector_layer" data-name="Vector layer">
    <g>
      <path class="cls-2" d="M455.7,370.4c-9.1,2.4-19,2-28.1,4.3-23,2.8-62.8,8.1-83-3.8-14.8-12-35-15.7-48-30.2-15.5-18.2-32.6-35.8-44.4-56.7-6.9-20.2-17.1-39.7-19.1-61.3-.3-14.9-3.1-30.2-.9-45,4.2-12.9,8.9-25.6,13.6-38.2,7.1-15.2,21.2-24.7,33.1-35.9,21.9-16,51.3-22.9,78.1-18.3,10.5,1.2,21.5,1.3,31.1,6.4,3.7,1.8,7.4,3.8,11.1,5.5-.9.3-1.9.7-2.8,1.1-.4.2-.7.3-1,.5-.9.3-1.8.7-2.5,1.3-.2.2-.5.4-.8.6-1,.6-1.9,1.3-2.8,2-.6.5-1.3.9-1.9,1.4-4.8-2.4-9.7-4.6-15.1-5.6-17.5-1.9-35.4-6.1-52.7-1.5-1.2.3-2.3.6-3.5,1-15.7,3.2-30.1,10.3-41.2,22-10.6,8.2-20.4,18.4-24.1,31.7-3,11.2-9.3,21.5-10.6,33.1,1,16,.4,32.2,3.6,48,1.7,10.7,6.9,20.3,10.6,30.4,3.7,15.9,13,28.9,23.3,41.1,13.9,15.5,25.4,34.8,45.2,43.2,10.6,4,19.9,10.2,29.4,16.3,22.4,7.5,47.3,3.4,70.5,1.4,5-1.4,10.3-1.9,15.6-2.5,9.1-.9,18.2-1.8,25.7-7.1,14.2-8.3,23.9-21.1,30.7-35.9,5-9.3,9.7-19,10.9-29.7,3.1-27.2-9.6-52.7-22.8-75.6-5-9.8-12.4-17.9-18.3-27.1-4.2-7.2-6.4-15.3-9.3-23-4.4-4.7-5.8-12-9.2-17.6-2.8-4.4-6-8.6-9.6-12.6-.6-1.6-1.6-2.7-2.9-3.7h0c0,0,.2.1.3.2,0,0-.2-.1-.3-.2,0,0,0,0,0,0h0s0,0,0,0c0,0,0,0,0,0h0c0,0-.2-.1-.2-.2,0,0,.1,0,.1.1-.4-.3-.8-.5-1.2-.7-4-3.8-8.4-7.3-13.1-10.3.6,0,1.2-.1,1.9-.2,1.5,0,3.1,0,4.6,0,.6,0,1.2,0,1.8,0,.9,0,1.8-.1,2.7-.2.8,0,1.6,0,2.4,0,.3,0,.6,0,.9,0,.8.1,1.6.1,2.3.2.5,0,1.1,0,1.7-.2,9.5,8.7,17.2,19.2,22.1,31,5.7,8.5,6.8,19.7,11.7,28.9,13.8,19.9,27.9,39.8,36.4,62.7,10.8,25.3,11.1,55.3-3.2,79.3-8.7,19.5-21.3,35.1-39.9,45.8-2.8,1.6-5.8,2.7-8.8,3.5h0Z"/>
      <path class="cls-2" d="M433.8,130.5h0Z"/>
      <path class="cls-2" d="M433.7,130.4s0,0,0,0c0,0,0,0,0,0h0Z"/>
      <path class="cls-2" d="M388.5,103.4c.1,0,.2,0,.3-.1h-.1c0,0-.1.1-.2.1h0Z"/>
      <path class="cls-2" d="M430.8,200.7c-.4.1-.9.2-1.3.1-1.2,0-2.3-.6-3.1-1.5-1.6-1.9-1.4-4.8.5-6.4s4.7-1.5,6.4.4c.8.9,1.2,2.1,1.1,3.3,0,1.3-.7,2.3-1.5,3.1-.6.5-1.2.8-2,1h0Z"/>
      <path class="cls-2" d="M361,237.5c-.4.1-.8.1-1.2.1-1.2,0-2.3-.6-3.1-1.4-1.7-1.8-1.5-4.8.3-6.5,1.8-1.7,4.7-1.6,6.4.2.8.9,1.2,2.1,1.2,3.3,0,1.3-.6,2.3-1.5,3.2-.6.5-1.3.9-2,1.1h0Z"/>
      <path class="cls-2" d="M405.5,245.3c-4.8,1.2-7.1-5.7-3.5-8.7,2.5-2,6.2-2.2,8.4-4.8-6.8-11.2-12.1-5.1-13.1-12.1.3-20.2,43,14.6,8.9,25.4-.2.1-.5.2-.7.2h0Z"/>
      <path class="cls-2" d="M432.8,303.2c-36.2,6.1-86.1,18.5-112.4-14.9-2.1-3.6,1.6-9,5.8-7.5,3.5,2,4.8,6.5,8.5,8.5,11.9,7.8,26.3,10.9,40.4,11.6,21-2.5,55.4-2.4,72-15.2,2.5-3.2,7.6-1.6,7.8,2.4-1,8.9-14.8,12.3-22,15.1h0Z"/>
      <path class="cls-2" d="M245,245.8c-.4.1-.9.2-1.4.3-7.8,1.8-7.5-12.1-.2-12.3,9.7-2.3,15.2-11.1,19.7-19.3,7.8-11.1,18.3-20,25.6-31.6,8.9-11.9,21.8-19.4,33.8-27.5,17.2-11,35.8-19.5,55.6-24.7,5.4-1.4,10.8-3.4,16.2-5.4,3.7-1.4,7.3-2.8,11-3.9,1-.1,1.9-.2,2.8-.3,2.9-.3,5.8-.7,8.6-1.2-.3,0-.5,0-.8.2,1.7-.3,3.4-.6,5.1-.7,1.5,0,3.1,0,4.6,0,.6,0,1.2,0,1.8,0,.9,0,1.8-.1,2.7-.2.8,0,1.5,0,2.3,0,3.8,2.2,4.6,8.6,1.2,11.4,0,0-.1-.1-.2-.1,0,0,.1.1.2.2-1.3-.9-2.6-1.3-4.2-1.4-.4,0-.7,0-1.1,0-.2,0-.5-.1-.7-.1-1.3-.2-2.5,0-3.7.6-2.5,0-5,.3-7.5.8-19.5,5.2-38.4,12.9-57.9,18.5-17.6,7.6-34,17.7-49.6,28.7-15,11.3-23.6,28.7-37.1,41.6-6.4,11.1-13.7,23.2-26.9,26.7h0Z"/>
      <path class="cls-2" d="M237.2,247c-1.1.3-2.4,0-3.3-.6-2.2-1.5-2.7-4.7-1.5-7,1.2-2.2,4-3.3,6.2-1.8,1.1.7,1.8,1.9,2,3.1.3,1.4,0,2.6-.5,3.9-.7,1.1-1.5,2-2.8,2.3h0Z"/>
      <path class="cls-2" d="M343.4,154.3c-2,.5-4.1-1-4.8-3-1.8-4.2,1.4-7.7,3.6-10.9,5.7-7,8.5-15.8,14.2-22.7,6.3-7.2,14.4-12.6,21.7-18.7,7.2-6.6,15-12.6,24.4-15.7,27-11.2,56.4-15.2,85.1-8.8,20.5,7.1,32.3,12.9,8.3,27.9-6.4,4.7-14.3,6.6-21,10.7-6.6,4.4-13.7,8-21.4,10.2-4,1.4-8.1,2.6-11.6,4.8-4.2,1.5-7.1-3.9-5.2-7.4,4.8-6.1,14.1-6.4,20.8-9.6,9.9-4.2,18.4-11,28.6-14.7,3.1-1.7,7.7-4.2,9.3-6.6-11.1-6.1-24-5.8-36.3-6.3-19-1.7-37.5,5-55.2,11.5-.5.1-.9.3-1.4.5-.4.1-.7.3-1.1.4-.9.4-1.7.8-2.6,1.3-.8.3-1.6.6-2.4.9-.4.2-.7.3-1,.5-.9.3-1.8.7-2.5,1.3-.3.2-.5.4-.8.6-1,.6-1.9,1.3-2.8,2-1.2,1-2.8,1.8-3.6,3.2,0,.2-.2.3-.2.5-6.2,5-12.1,10.6-18.5,15.4-10.2,8.7-13.1,23.2-23,32.3-.2.1-.5.2-.7.3h0Z"/>
      <path class="cls-2" d="M388.5,103.4c.1,0,.2,0,.3-.1h-.1c0,0-.1.1-.2.1h0Z"/>
      <path class="cls-2" d="M266,130.2c-20.5,4.1-31.1-16.5-15.9-30.6,7-5.3,19.1-9.6,25.5-1.2,4,4.4,7,20.1-3.2,15.8-1.9-1.6-1.9-4.6-2.8-6.8-2.6-5.3-10.3-1.1-13.9,1.2-9.9,7.6,2.5,11.3,9.6,10.3,5.3.8,5.1,9.4.7,11.4h0Z"/>
      <path class="cls-2" d="M253,325c-18.4,4.8-32.9-21.8-23.4-36.9,3.2-6.2,9.2-11.4,16.4-12,5.6-.1,16.2-1.3,16.9,6.4,1,5-5.9,8-8.5,3.4-.6-1.4-3.4-.7-4.7-1-13.2-.9-18.4,17.8-9.7,26.2,2.5,2.5,5.4,6.5,9.4,5.4,5.8-1.6,13.5-3.2,16.2-9.3.9-2.6,1.8-6,5.1-5.9,7.3.5,4,9.1,1.3,12.9-4.1,6-11.5,8.5-18.2,10.5-.3,0-.5.2-.8.2h0Z"/>
      <path class="cls-2" d="M489.7,207.9c-5.1,1.3-7.8-5.7-3.3-8.6,7.4-4.9,9-11,4.1-18.6-6.1-7.3-9.1-4.9-13.5,2.1-2.7,2.9-7.8.8-7.7-3.1,5-14.5,19.2-17.1,28.6-4.2,8.4,12.2,4.6,24.7-7.6,32.2-.2,0-.3.1-.5.1h0Z"/>
      <path class="cls-2" d="M455.7,370.3c-9.1,2.4-19,2-28.1,4.3-23,2.8-62.8,8.1-83-3.8-14.8-12-35-15.7-48-30.2-15.5-18.2-32.6-35.8-44.4-56.7-6.9-20.2-17.1-39.7-19.1-61.3-.3-14.9-3.1-30.2-.9-45,4.2-12.9,8.9-25.6,13.6-38.2,7.1-15.2,21.2-24.7,33.1-35.9,21.9-16,51.3-22.9,78.1-18.3,10.5,1.2,21.5,1.3,31.1,6.4,3.7,1.8,7.4,3.8,11.1,5.5-.9.3-1.9.7-2.8,1.1-.4.2-.7.3-1,.5-.9.3-1.8.7-2.5,1.3-.2.2-.5.4-.8.6-1,.6-1.9,1.3-2.8,2-.6.5-1.3.9-1.9,1.4-4.8-2.4-9.7-4.6-15.1-5.6-17.5-1.9-35.4-6.1-52.7-1.5-1.2.3-2.3.6-3.5,1-15.7,3.2-30.1,10.3-41.2,22-10.6,8.2-20.4,18.4-24.1,31.7-3,11.2-9.3,21.5-10.6,33.1,1,16,.4,32.2,3.6,48,1.7,10.7,6.9,20.3,10.6,30.4,3.7,15.9,13,28.9,23.3,41.1,13.9,15.5,25.4,34.8,45.2,43.2,10.6,4,19.9,10.2,29.4,16.3,22.4,7.5,47.3,3.4,70.5,1.4,5-1.4,10.3-1.9,15.6-2.5,9.1-.9,18.2-1.8,25.7-7.1,14.2-8.3,23.9-21.1,30.7-35.9,5-9.3,9.7-19,10.9-29.7,3.1-27.2-9.6-52.7-22.8-75.6-5-9.8-12.4-17.9-18.3-27.1-4.2-7.2-6.4-15.3-9.3-23-4.4-4.7-5.8-12-9.2-17.6-2.8-4.4-6-8.6-9.6-12.6-.6-1.6-1.6-2.7-2.9-3.6h0c0,0,.2.1.3.2,0,0-.2-.1-.3-.2h0s0,0,0,0c0,0,0,0,0,0,0,0,0,0,0,0h0s0,0,0,0c0,0-.1-.1-.2-.1,0,0,.1,0,.2.1-.4-.3-.8-.5-1.2-.7-4-3.8-8.4-7.3-13.1-10.3.6,0,1.2-.1,1.9-.2,1.5,0,3.1,0,4.6,0,.6,0,1.2,0,1.8,0,.9,0,1.8-.1,2.7-.2.8,0,1.6,0,2.4,0,.3,0,.6,0,.9,0,.8.1,1.6.1,2.3.2.5,0,1.1,0,1.7-.2,9.5,8.7,17.2,19.2,22.1,31,5.7,8.5,6.8,19.7,11.7,28.9,13.8,19.9,27.9,39.8,36.4,62.7,10.8,25.3,11.1,55.3-3.2,79.3-8.7,19.5-21.3,35.1-39.9,45.8-2.8,1.6-5.8,2.7-8.8,3.5h0Z"/>
      <path class="cls-2" d="M433.7,130.4s0,0,0,0h0s0,0,0,0h0Z"/>
      <path class="cls-2" d="M388.5,103.4c.1,0,.2,0,.3-.1h-.1c0,0-.1.1-.2.1h0Z"/>
      <path class="cls-2" d="M430.8,200.7c-.4.1-.9.2-1.3.1-1.2,0-2.3-.6-3.1-1.5-1.6-1.9-1.4-4.8.5-6.4s4.7-1.5,6.4.4c.8.9,1.2,2.1,1.1,3.3,0,1.3-.7,2.3-1.5,3.1-.6.5-1.2.8-2,1h0Z"/>
      <path class="cls-2" d="M361,237.5c-.4.1-.8.1-1.2.1-1.2,0-2.3-.6-3.1-1.4-1.7-1.8-1.5-4.8.3-6.5,1.8-1.7,4.7-1.6,6.4.2.8.9,1.2,2.1,1.2,3.3,0,1.3-.6,2.3-1.5,3.2-.6.5-1.3.9-2,1.1h0Z"/>
      <path class="cls-2" d="M405.5,245.3c-4.8,1.2-7.1-5.7-3.5-8.7,2.5-2,6.2-2.2,8.4-4.8-6.8-11.2-12.1-5.1-13.1-12.1.3-20.2,43,14.6,8.9,25.4-.2.1-.5.2-.7.2h0Z"/>
      <path class="cls-2" d="M432.8,303.2c-36.2,6.1-86.1,18.5-112.4-14.9-2.1-3.6,1.6-9,5.8-7.5,3.5,2,4.8,6.5,8.5,8.5,11.9,7.8,26.3,10.9,40.4,11.6,21-2.5,55.4-2.4,72-15.2,2.5-3.2,7.6-1.6,7.8,2.4-1,8.9-14.8,12.3-22,15.1h0Z"/>
      <path class="cls-2" d="M245,245.8c-.4.1-.9.2-1.4.3-7.8,1.8-7.5-12.1-.2-12.3,9.7-2.3,15.2-11.1,19.7-19.3,7.8-11.1,18.3-20,25.6-31.6,8.9-11.9,21.8-19.4,33.8-27.5,17.2-11,35.8-19.5,55.6-24.7,5.4-1.4,10.8-3.4,16.2-5.4,3.7-1.4,7.3-2.8,11-3.9,1-.1,1.9-.2,2.8-.3,2.9-.3,5.8-.7,8.6-1.2-.3,0-.5,0-.8.2,1.7-.3,3.4-.6,5.1-.7,1.5,0,3.1,0,4.6,0,.6,0,1.2,0,1.8,0,.9,0,1.8-.1,2.7-.2.8,0,1.5,0,2.3,0,3.8,2.2,4.6,8.6,1.2,11.4,0,0-.1-.1-.2-.1,0,0,.1.1.2.2-1.3-.9-2.6-1.3-4.2-1.4-.4,0-.7,0-1.1,0-.2,0-.5-.1-.7-.1-1.3-.2-2.5,0-3.7.6-2.5,0-5,.3-7.5.8-19.5,5.2-38.4,12.9-57.9,18.5-17.6,7.6-34,17.7-49.6,28.7-15,11.3-23.6,28.7-37.1,41.6-6.4,11.1-13.7,23.2-26.9,26.7h0Z"/>
      <path class="cls-2" d="M237.2,247c-1.1.3-2.3,0-3.3-.6-2.2-1.5-2.7-4.7-1.5-7,1.2-2.2,4-3.3,6.2-1.8,1.1.7,1.8,1.9,2,3.1.3,1.4,0,2.6-.5,3.9-.7,1.1-1.5,2-2.8,2.3,0,0,0,0,0,0h0Z"/>
      <path class="cls-2" d="M343.4,154.3c-2,.5-4.1-1-4.8-3-1.8-4.2,1.4-7.7,3.6-10.9,5.7-7,8.5-15.8,14.2-22.7,6.3-7.2,14.4-12.6,21.7-18.7,7.2-6.6,15-12.6,24.4-15.7,27-11.2,56.4-15.2,85.1-8.8,20.5,7.1,32.3,12.9,8.3,27.9-6.4,4.7-14.3,6.6-21,10.7-6.6,4.4-13.7,8-21.4,10.2-4,1.4-8.1,2.6-11.6,4.8-4.2,1.5-7.1-3.9-5.2-7.4,4.8-6.1,14.1-6.4,20.8-9.6,9.9-4.2,18.4-11,28.6-14.7,3.1-1.7,7.7-4.2,9.3-6.6-11.1-6.1-24-5.8-36.3-6.3-19-1.7-37.5,5-55.2,11.5-.5.1-.9.3-1.4.5-.4.1-.7.3-1.1.4-.9.4-1.7.8-2.6,1.3-.8.3-1.6.6-2.4.9-.4.2-.7.3-1,.5-.9.3-1.8.7-2.5,1.3-.3.2-.5.4-.8.6-1,.6-1.9,1.3-2.8,2-1.2,1-2.8,1.8-3.6,3.2,0,.2-.2.3-.2.5-6.2,5-12.1,10.6-18.5,15.4-10.2,8.7-13.1,23.2-23,32.3-.2.1-.5.2-.7.3h0Z"/>
      <path class="cls-2" d="M388.5,103.4c.1,0,.2,0,.3-.1h-.1c0,0-.1.1-.2.1h0Z"/>
      <path class="cls-2" d="M266,130.2c-20.5,4.1-31.1-16.5-15.9-30.6,7-5.3,19.2-9.6,25.5-1.2,4,4.4,7,20.1-3.2,15.8-1.9-1.6-1.9-4.6-2.8-6.8-2.6-5.3-10.2-1.1-13.9,1.2-9.9,7.6,2.5,11.3,9.6,10.3,5.3.8,5.1,9.4.7,11.4h0Z"/>
      <path class="cls-2" d="M253,325c-18.4,4.8-32.9-21.8-23.4-36.9,3.2-6.2,9.2-11.4,16.4-12,5.6-.1,16.2-1.3,16.9,6.4,1,5-5.9,8-8.5,3.4-.6-1.4-3.4-.7-4.7-1-13.2-.9-18.4,17.8-9.7,26.2,2.5,2.5,5.4,6.5,9.4,5.4,5.8-1.6,13.5-3.2,16.2-9.3.9-2.6,1.8-6,5.1-5.9,7.3.5,4,9.1,1.3,12.9-4.1,6-11.5,8.5-18.2,10.5-.3,0-.5.2-.8.2h0Z"/>
      <path class="cls-2" d="M489.7,207.9c-5.1,1.3-7.7-5.7-3.3-8.6,7.4-4.9,9-11,4.1-18.6-6.1-7.3-9.1-4.9-13.5,2.1-2.7,2.9-7.8.8-7.7-3.1,5-14.5,19.2-17,28.6-4.2,8.4,12.2,4.6,24.7-7.6,32.2-.2,0-.3.1-.5.1h0Z"/>
    </g>
    <rect class="cls-1" x="2.5" y="2.5" width="800" height="800"/>
  </g>
  <g id="Vector_layer-2" data-name="Vector layer-2">
    <path class="cls-2" d="M377.5,577.5c-23.6-.1-52.2-16.4-46.8-43.5,3.8-23.3,7.2-46.6,11.8-69.8,5.2-27,9.7-54,11.3-81.5-2-10,15-8.7,9.5.5-2.4,39.5-10.7,77.1-17.4,116-.5,18.2-12.3,38.8-1.8,55.6,10.1,9.9,23.3,13.2,37.1,13.8-.1,2.3.5,4.4,1.8,6.4.6,1,1.3,1.8,2.1,2.7-2.5,0-5.1-.1-7.6-.2h0Z"/>
    <path class="cls-2" d="M450.4,389.5c-.9-6.5-17.1-28.1-3.2-27.3,2.7.8,3.2,3.7,4.1,6,6.9,15.2,11.9,31,17.3,46.8,3.4,8.2,7.1,16.2,10.9,24.2-1,.3-1.9.8-2.8,1.3-1.7,1-3.3,2.3-4.9,3.5-8.2-17.8-15.8-35.8-21.5-54.5h0Z"/>
    <path class="cls-2" d="M527.6,566.6c-2-1.9-1.6-4.5-1.1-7,.1-5.2-.4-10.3-1.3-15.4-4.4-21.5-14.7-41-21.9-61.6-5-12.7-9.8-25.5-16.3-37.5-7.2-12.9-20.1-21.4-27.1-34.4-2.3-5.3-6.1-10.1-7.9-15.5-.9-5.6,6.9-6.8,9-2,9.2,23.4,32.1,37.2,40.6,61,10.1,24.4,20.2,49,28.9,73.9,2.5,6.9,13.6,47.6-2.9,38.5h0Z"/>
    <path class="cls-2" d="M277.2,461.1c-4.9-.9-7.5-9.1-1.4-10.1,6.9,1.9,13.8,4.1,21.1,2.5,19.2-1.6,32.9-16.8,46.9-28.5,2.4-1.9,4.2-5.1,7.5-5.3,3.6,0,6.4,4,5.3,7.5-20.3,20-48.3,45.8-79.4,33.9h0Z"/>
    <path class="cls-2" d="M271.9,456.1c-1.2-.6-2.2-1.5-2.9-2.7-.6-1.1-.8-2.5-.5-3.8.8-2.6,3.6-3.5,6-2.5,2.4,1,4.1,3.9,3.4,6.5-.3,1.2-1.2,2.1-2.3,2.6-.5.2-1.1.3-1.6.3s-1.4-.2-2.1-.4h0Z"/>
    <path class="cls-2" d="M273.3,457.6c-9.9-2.6.3-18.9-10.1-25.6-4.9-4.9-9.8-9.9-12.9-16.2-2-4.2-10.7-20.3-12.5-8.2-3.3,10.3,5.1,20.9,1.5,30.7-5.1,4.3-10.3-3-9.1-8.1-1.1-6.9-3.6-13.6-3-20.7-.3-8.2,4.2-19.3,14.2-16.9,9.7,3.8,14.4,14.8,19.3,23.3,7.5,9.4,18.4,17.1,17.6,30.6,0,4.8,2.4,11.8-5.1,11.2h0Z"/>
    <path class="cls-2" d="M217.1,488c-10.2-2.5-17.3-10.8-17.5-21.5-.5-8.5-2.1-18.7,2.8-26.2,8.1-6.5,19.5-13.5,30.1-12.4,3.8,1.5,5.9,8.4.9,9.8-8.2,1.5-17,5.2-23.2,10.9-1.8,7.4-1.3,15.4.1,22.9,3.3,11,22.4,7.7,31.6,8.5,6.4-3.4,4.7-14.4,5.5-20.8.2-5.7.2-11.8-3-16.8-3.9-2.4-10.4-8.5-3.5-11.6,21.6,4.2,18.5,37.5,12.9,53.4-5.1,10.9-26.9,5.5-36.6,3.9h0Z"/>
    <path class="cls-2" d="M260.9,475.2c-10.4,2.3-15.1-10-4.5-10,10.9,2.8,17.7-8.3,22,.4,2,8.8-11.5,9.4-17.5,9.6h0Z"/>
    <path class="cls-2" d="M294.7,729c-16-34.9,37-26.9,50.3-40.3,1.7-34.9-1.5-69.7-3.3-104.5-.3-4.4-.4-8.8-.9-13.2-1.2-1.4-1.8-3.5-.9-5.3,7.8-9,11.1,4.1,10.6,10.7,1.5,30.2,4.2,60.3,4.2,90.5-1.3,9.2,3.3,24.3-4.6,30.6-14.1,9.7-33.2,6.8-47.2,16.5-9.3,19.3,18.4,10.3,25.4,2.8,7.8-5,13.8-13,21.5-17.7,10.6,1.4,3,10.2-1.8,13.8-13.4,11.4-36.8,32.8-53.2,15.9h0Z"/>
    <path class="cls-2" d="M443.4,754.7c-16.2.5-26.4-14.5-14.4-27.5,11.8-10.6,27.9-14.9,41.9-21.9,2.6-.7,2.4-2.4,2.2-4.6-1.9-21.2-1.1-43.5-4.5-64.2-7.5-7.1,6.7-17.9,8.7-5,2.9,14.2,2.4,28.8,3.4,43.2-.7,10.5,5.9,28.9-1.8,36.7,10,3.3-3.6,17.2-5.8,22.9-6.6,10.9-15.8,21.5-29.8,20.3h0ZM473.5,714.5c-10.1,6.2-42,13.3-40.1,27.3,19.4,14.3,33.2-13.6,40.1-27.3Z"/>
  </g>
  <g id="Vector_layer-3" data-name="Vector layer-3">
    <path class="cls-2" d="M429.9,644.1c-19.3-1.1-26.8-20.7-28.4-37.3-2.5-15.3-4.9-30.7-7-46.1-2.3-22-10.5-42.8-13.5-64.6-3-14.7,4.4-27.6,17.1-34.7,8.3-5,19.3-10.2,28.8-8.2,15.1-4.8,30-10.1,44.5-16.6,17.8-8.9,36.4-15.7,55.3-21.6,20.3-8,38.5-8.3,45.2,16.2,10,30.4,12.6,62.7,16.7,94.3.8,13.4,9.1,30.3-5.7,38.8-11.1,8.3-23.6,14.7-34.5,23.3.2-.8.3-1.6.5-2.4.2-.8.3-1.6.5-2.4.4-2,.8-4.1,1.2-6.2.2-1,.4-2.1.4-3.1v-.4c10.4-7,22.1-12.4,30.8-21.5,2.3-3.9-.7-9.3-.7-13.7-4.1-31.2-7.1-62.6-14.3-93.3-8.2-35.5-19.1-25-46.9-16.8-24.6,7.2-46.6,20.8-71.1,28.4-9.1,2.9-18.2,8.1-28,6.7-12.9,3-30.1,11.3-30.6,26.3.7,21.8,9.9,42.3,12.7,63.8,2.8,20.1,5.7,40.2,9.2,60.2,4.3,29.2,25.2,23.8,44.5,11.2,13.4-4.6,25.9-11,37.4-19.1,3.2-1.6,6.3-3,9.5-4.3-.1.3-.2.6-.3.9-.2.3-.4.7-.6,1-.3.5-.6,1-.8,1.6-.2.4-.5.8-.7,1.3-.3.5-.4,1.1-.6,1.7-.2.7,0,1.5.5,2,0,.2,0,.3-.1.5-.1.5-.3,1-.3,1.6,0,.5,0,1,.3,1.4,0,0,.1.2.2.2-13,7.6-25.5,15.8-40,20.3-8.9,4.4-17.4,11.2-27.5,11.2s-2.4,0-3.6-.3h0Z"/>
    <path class="cls-2" d="M502.1,610.6s0,.1-.1.2c0,0,0-.1.1-.2Z"/>
    <path class="cls-2" d="M417.6,647.3c-19.1-2.4-28-12.3-31-31.2-3-16.3-6.5-32.6-8.4-49.1-3.4-26.5-13.6-54.1-7.2-80.7,3.8-11.6,15-16.3,24.1-22.7,10.2-4.5,15.5-6.3,16-5.4.3.5-1.1,2-4.2,4.5-.5,3-3.7,4.6-5.2,7.2-5.7,6-14.9,7.5-19.5,14.9-9.5,15.8-1.5,35.9-.1,53.1,4.8,24.9,7.9,50,13.1,74.7,1.2,6.4,2.5,13.2,6.7,18.4,5.1,7.5,20.4,6,27.9,9.1,12.2-1.8,15.6-1.3,15.9-.3.6,2.1-9.9,8.8-21.3,8.5-2.8,0-5.1-.6-6.8-1.1h0Z"/>
    <path class="cls-2" d="M481.8,555.4c-28-4.7-30.4-52,2.7-48.2,5.2-7,14.7-5.1,20.9-.6,12.8,6.4,12.9,23.3,7.8,34.9-4,9.8-14.6,14.6-24.8,14.6s-4.5-.2-6.7-.7h0ZM469.4,531.6c1.9,8.3,9.5,16.6,19.1,15.5,11.1,1.1,17.8-8.2,18.8-17.5,1-9-3.5-18.1-14.8-17.6,2.2,3.9-2.3,8.6-6.2,6.2-1.3-.6-2.5-2-4-2.1-.3,0-.5,0-.8,0-10.9,0-14,7.8-12.2,15.6Z"/>
    <path class="cls-2" d="M518.9,627.1c-40.3-2.9-17.3-32.1-23.9-45.9-1-5.7,6.2-8.8,9.6-12.3,7.8-7.3,17.1-13.7,28.3-13.4,23.9-1.4,26.4,27.5,21.3,44.9-3.2,16.7-18.6,27.5-35.3,26.8h0ZM532.1,564.5c-11.6.1-19.6,9.7-27.8,16.6,0,0,0,0,0,0,4.5,6.6-3.2,21.9-.6,30.5,7.7,9.9,24.9,7.4,34,.7,11.1-10.1,17.3-49.8-5.6-47.9Z"/>
    <path class="cls-2" d="M482.5,503c-11.7-1.3-7.5-18.6-2.8-25.2,5.3-7.1,15.7-.7,15.5,7,.7,4.5-7.9,18.8-12.7,18.2h0ZM486,484.6c-.5,1-1.3,3.3-1.2,3.9.8-1.1,1.8-2.7,1.4-4.1,0,0,0,0-.1.2h0Z"/>
  </g>
</svg>