<?xml version="1.0" encoding="UTF-8"?>
<svg id="Layer_2" data-name="Layer 2" xmlns="http://www.w3.org/2000/svg" viewBox="0 0 805 805">
  <defs>
    <style>
      .cls-1 {
        fill: none;
        opacity: 0;
        stroke-width: 5px;
      }

      .cls-1, .cls-2 {
        stroke: #000;
        stroke-miterlimit: 10;
      }

      .cls-2 {
        fill: #000;
        stroke-width: 2px;
      }
    </style>
  </defs>
  <g id="Vector_layer" data-name="Vector layer">
    <path class="cls-2" d="M348.3,380.54c-20.74-5.67-36.92-17.58-50.22-34.27-19.93-19.61-27.19-48.7-23.12-75.91,2.45-24.3,11.05-47.18,19.34-69.88,2.47-10.11.75-21.2,4.08-30.89,1.77-12.72,6.57-24.85,13.56-35.61.57-.02,1.13-.12,1.66-.27.75-.21,1.51-.41,2.21-.75.28-.09.55-.18.83-.27.76-.24,1.54-.41,2.32-.57.88-.16,1.75-.3,2.63-.48.58-.12,1.14-.3,1.69-.49,1.46-.44,2.96-.85,4.46-1.16.62-.11,1.24-.21,1.86-.3-3.75,4.11-7.12,8.58-10.05,13.31-.35.28-.69.6-1.01.95.04-.05.08-.1.12-.14-.06.07-.13.15-.19.22h0s0,0,0,0c0,0,0,0,0,.01-.02.02-.03.04-.05.06-.01.02-.03.04-.05.05,0,0,0,0,0,0,0,0-.01.02-.02.02-.07.08-.14.16-.21.25.07-.08.14-.17.21-.25h.01c-1.04,1.25-1.77,2.62-1.91,4.27-2.47,4.68-4.52,9.57-6.09,14.56-1.91,6.25-1.43,13.7-4.44,19.36-.89,8.23-.95,16.63-3.2,24.64-3.44,10.33-8.52,20.09-10.87,30.8-6.97,25.52-12.77,53.4-2.92,78.95,3.87,9.96,10.84,18.21,18.04,25.95,10.35,12.56,22.94,22.5,38.8,26.95,8.55,3.23,17.58,1.8,26.61.38,5.28-.83,10.56-1.67,15.75-1.57,22.92-3.83,48.05-6.18,67.85-19.11,7.7-8.22,15.07-16.64,24.36-23.16,17.06-13.21,23.3-34.75,32.82-53.25,6.94-14.44,12.66-29.37,12.21-45.64,1.03-10.71,3.67-21.3,2.59-32.12-.89-16.07-5.59-31.61-8.62-47.34-4.18-10.88-12.87-19.3-18.61-29.37-6.87-11.95-18.95-19.32-31.3-24.6-13.67-8.59-29.38-11.77-45.41-10.91-1.21-.08-2.43-.12-3.62-.12-17.89,0-34.17,8.5-50.61,14.79-4.96,2.27-9.14,5.65-13.21,9.21-.73-.31-1.51-.56-2.23-.88-1.06-.48-2.14-.87-3.24-1.23-.3-.11-.59-.25-.88-.36-.9-.37-1.83-.56-2.77-.62-.37-.09-.74-.16-1.12-.23-.97-.17-1.96-.26-2.94-.36,3.22-2.6,6.23-5.46,9.37-8.16,8.04-7.27,18.59-10.18,28.48-14,24.75-11.16,54.9-11.91,80.16-1.95,14.26,7.84,30.39,13.45,41.06,26.39,7.83,10.99,15.56,22.14,22.85,33.52,5.93,13.74,7.05,29.25,10.54,43.77,3.57,21.41-1.37,42.79-2.98,64.14-6.14,23.23-18.25,44.53-28.66,66.06-8.88,17.32-27.49,25.92-38.79,41.31-16.6,16.62-56.4,21.51-79.39,24.61-9.4.05-18.89,2.89-28.27,2.89-3.16,0-6.32-.32-9.45-1.19Z"/>
    <path class="cls-2" d="M318.47,144.03s.05-.05.07-.08c-.02.03-.05.06-.07.08,0,0,0,0,0,0Z"/>
    <path class="cls-2" d="M355.17,106.46l-.11-.02c.11.02.21.04.32.06-.07-.01-.14-.03-.21-.04Z"/>
    <path class="cls-2" d="M336.86,210.81c-1.06-.63-1.88-1.45-2.29-2.65-.38-1.14-.31-2.4.22-3.48,1.09-2.22,3.86-3.11,6.05-1.99,2.2,1.12,3.16,3.9,2.07,6.12-.52,1.07-1.47,1.89-2.6,2.27-.45.14-.88.21-1.32.21-.73,0-1.44-.19-2.14-.49Z"/>
    <path class="cls-2" d="M413.5,228.71c-1.04-.66-1.84-1.51-2.21-2.72-.35-1.14-.24-2.4.32-3.46,1.16-2.19,3.95-2.98,6.11-1.8,2.17,1.19,3.05,3.99,1.89,6.18-.55,1.05-1.52,1.84-2.66,2.18-.4.12-.8.17-1.19.17-.77,0-1.52-.21-2.25-.55Z"/>
    <path class="cls-2" d="M373.96,248.01c-35.75-1.86-3.15-46.32,2.21-26.83.77,7.07-5.93,2.52-9.63,15.06,2.75,1.97,6.37,1.23,9.33,2.5,4.23,2.05,3.76,9.32-1.16,9.32-.24,0-.49-.02-.75-.05Z"/>
    <path class="cls-2" d="M337.82,301.97c-.83-3.98,3.74-6.8,6.94-4.3,19.29,8.19,52.51-.61,73.45-3.47,13.39-4.22,26.59-10.91,36.11-21.44,3.11-2.82,3.25-7.52,6.12-10.37,3.66-2.48,8.59,1.8,7.5,5.84-17.01,38.93-68.46,39.6-105.01,42.81-7.72-.88-21.9-.72-25.1-9.07Z"/>
    <path class="cls-2" d="M497.43,188.97c-16.33-9.07-29-23.71-46.42-30.85-17.88-6.78-36.29-12.34-55.21-15.29-20.25-.5-40.46-3.18-60.68-3.25-2.5.18-5.05.46-7.48,1.12-1.21-.29-2.5-.21-3.69.35-.21.1-.43.21-.64.31-.37.04-.73.1-1.09.22-1.54.49-2.69,1.27-3.74,2.43.06-.07.12-.14.18-.21-.06.07-.12.14-.18.21-4.05-1.88-4.9-8.22-1.75-11.36.73-.22,1.48-.39,2.23-.54.88-.16,1.75-.3,2.63-.48.58-.12,1.13-.3,1.69-.49,1.46-.44,2.96-.84,4.46-1.16,1.7-.3,3.41-.52,5.13-.62-.27.02-.54.03-.8.05,2.89-.17,5.75-.6,8.62-.99.95-.13,1.89-.25,2.84-.38,3.88.21,7.78.62,11.68,1.02,5.74.59,11.46,1.19,17.08,1.17,20.43.04,40.6,3.59,60.02,9.88,13.73,4.86,28.08,8.85,39.67,18.09,10,9.39,22.44,15.32,32.79,24.1,6.4,6.79,13.95,13.98,23.93,13.71,7.08-1.66,10.89,11.73,2.87,11.95-.48.02-.95.04-1.42.04-13.64,0-23.7-9.84-32.73-19.02Z"/>
    <path class="cls-2" d="M537.91,207.23c-1.32-.03-2.36-.67-3.29-1.55-.86-1.06-1.43-2.22-1.5-3.61-.06-1.28.32-2.58,1.17-3.55,1.74-2,4.7-1.72,6.43.14,1.77,1.91,2.09,5.14.33,7.16-.77.89-1.89,1.41-3.06,1.41h-.09Z"/>
    <path class="cls-2" d="M411.08,144.24c-11.81-6.29-18.29-19.55-30.37-25.41-7.35-3.01-14.45-6.93-21.74-10.24-.11-.14-.23-.28-.36-.41-1.13-1.23-2.81-1.57-4.27-2.22-1.06-.48-2.14-.86-3.24-1.23-.3-.11-.58-.25-.88-.36-.9-.36-1.83-.56-2.77-.61-.36-.09-.74-.16-1.12-.23-.84-.14-1.68-.23-2.53-.32-.93-.21-1.86-.4-2.8-.57-.38-.04-.75-.07-1.12-.11-.48-.09-.97-.16-1.45-.14-18.74-1.84-38.3-3.63-56.3,2.8-11.72,3.63-24.34,6.63-33.53,15.28,2.15,1.98,7.24,3.23,10.66,4.08,10.79,1.03,20.78,5.46,31.41,7.04,7.29,1.44,16.43-.66,22.55,4.02,2.65,2.88,1.27,8.86-3.21,8.45-4.01-1.26-8.3-1.37-12.49-1.71-7.98-.2-15.74-1.85-23.27-4.48-7.56-2.26-15.64-2.2-23.04-5.08-27.05-8.49-17.01-17.13,1-29.12,26.08-13.5,55.61-17.01,84.5-13,9.87.64,18.91,4.56,27.58,9.07,8.62,4.06,17.78,7.19,25.68,12.61,7.29,5.25,12.27,12.99,19.52,18.34,3.03,2.49,6.97,5.06,6.27,9.57-.16,2.12-1.79,4.09-3.9,4.09-.25,0-.51-.03-.77-.09Z"/>
    <path class="cls-2" d="M355.17,106.46l-.11-.02c.11.02.21.04.32.06-.07-.01-.14-.03-.21-.04Z"/>
    <path class="cls-2" d="M478.39,90.32c7.2-.78,18.18-7.55,6.72-12.38-4.09-1.2-12.53-3.42-13.75,2.4-.35,2.37.45,5.22-1.02,7.3-8.72,6.78-9.86-9.24-7.07-14.47,4.03-9.69,16.87-8.62,24.97-5.25,18.25,9.8,13.26,32.36-7.63,33.57-4.8-.8-7.15-9.02-2.23-11.18Z"/>
    <path class="cls-2" d="M541.54,286.7c-7-.3-14.73-.81-20.25-5.61-3.51-3.03-8.86-10.46-1.98-12.82,3.26-.92,4.99,2.12,6.47,4.43,4.11,5.26,11.93,4.85,17.99,4.95,4.08,0,5.91-4.59,7.7-7.62,6.34-10.35-3.45-27.06-15.98-22.89-1.26.6-4.1.65-4.34,2.14-1.28,5.12-8.75,3.96-9.04-1.12-1.28-7.65,9.2-9.17,14.69-10.48,7.11-1.21,14.17,2.27,18.88,7.47,13.07,12.13,5.76,41.57-13.3,41.57-.28,0-.56,0-.84-.02Z"/>
    <path class="cls-2" d="M283.32,233.15c-13.73-4.19-20.55-15.32-15.52-29.25,5.84-14.81,20.19-15.96,28.7-3.16,1.02,3.75-3.38,7.05-6.67,4.96-6.07-5.73-9.55-7.21-13.6,1.35-2.89,8.56.21,14.11,8.62,16.96,5.05,1.67,4.26,9.16-1.01,9.16-.17,0-.34,0-.52-.02Z"/>
    <path class="cls-2" d="M348.3,380.54c-20.74-5.67-36.92-17.58-50.22-34.27-19.93-19.61-27.19-48.7-23.12-75.91,2.45-24.3,11.05-47.18,19.34-69.88,2.47-10.11.75-21.2,4.08-30.89,1.77-12.72,6.57-24.85,13.56-35.61.57-.02,1.13-.12,1.66-.27.75-.21,1.51-.41,2.21-.75.28-.09.55-.18.83-.27.76-.24,1.54-.41,2.32-.57.88-.16,1.75-.3,2.63-.48.58-.12,1.14-.3,1.69-.49,1.46-.44,2.96-.85,4.46-1.16.62-.11,1.24-.21,1.86-.3-3.75,4.11-7.12,8.58-10.05,13.31-.36.29-.7.61-1.03.97.05-.05.09-.11.14-.17-.05.06-.11.12-.16.19-.01.02-.03.03-.04.04h0s0,0,0,0c-.02.02-.04.04-.05.07-.02.02-.04.04-.05.06h0s0,0-.02.01c-.07.08-.14.17-.21.25.07-.08.14-.17.21-.25h.01c-1.04,1.25-1.77,2.62-1.92,4.27-2.47,4.69-4.52,9.57-6.08,14.56-1.91,6.25-1.43,13.7-4.44,19.36-.89,8.23-.95,16.63-3.2,24.64-3.44,10.33-8.52,20.09-10.87,30.8-6.97,25.52-12.77,53.4-2.92,78.95,3.87,9.96,10.84,18.21,18.04,25.95,10.35,12.56,22.94,22.5,38.8,26.95,8.55,3.23,17.58,1.8,26.61.38,5.28-.83,10.56-1.67,15.75-1.57,22.92-3.83,48.05-6.18,67.85-19.11,7.7-8.22,15.07-16.64,24.36-23.16,17.06-13.21,23.3-34.75,32.82-53.25,6.94-14.44,12.66-29.37,12.21-45.64,1.03-10.71,3.67-21.3,2.59-32.12-.89-16.07-5.59-31.61-8.62-47.34-4.18-10.88-12.87-19.3-18.61-29.37-6.87-11.95-18.95-19.32-31.3-24.6-13.67-8.59-29.38-11.77-45.41-10.91-1.21-.08-2.43-.12-3.62-.12-17.89,0-34.17,8.5-50.61,14.79-4.96,2.27-9.14,5.65-13.21,9.21-.73-.31-1.51-.56-2.23-.88-1.06-.48-2.14-.87-3.24-1.23-.3-.11-.59-.25-.88-.36-.9-.37-1.83-.56-2.77-.62-.37-.09-.74-.16-1.12-.23-.97-.17-1.96-.26-2.94-.36,3.22-2.6,6.23-5.46,9.37-8.16,8.04-7.27,18.59-10.18,28.48-14,24.75-11.16,54.9-11.91,80.16-1.95,14.26,7.84,30.39,13.45,41.06,26.39,7.83,10.99,15.56,22.14,22.85,33.52,5.93,13.74,7.05,29.25,10.54,43.77,3.57,21.41-1.37,42.79-2.98,64.14-6.14,23.23-18.25,44.53-28.66,66.06-8.88,17.32-27.49,25.92-38.79,41.31-16.6,16.62-56.4,21.51-79.39,24.61-9.4.05-18.89,2.89-28.27,2.89-3.16,0-6.32-.32-9.45-1.19Z"/>
    <path class="cls-2" d="M318.5,144l.02-.02s-.04.04-.05.06c.01-.02.02-.03.04-.04Z"/>
    <path class="cls-2" d="M355.17,106.46l-.11-.02c.11.02.21.04.32.06-.07-.01-.14-.03-.21-.04Z"/>
    <path class="cls-2" d="M336.86,210.81c-1.06-.63-1.88-1.45-2.29-2.65-.38-1.14-.31-2.4.22-3.48,1.09-2.22,3.86-3.11,6.05-1.99,2.2,1.12,3.16,3.9,2.07,6.12-.52,1.07-1.47,1.89-2.6,2.27-.45.14-.88.21-1.32.21-.73,0-1.44-.19-2.14-.49Z"/>
    <path class="cls-2" d="M413.5,228.71c-1.04-.66-1.84-1.51-2.21-2.72-.35-1.14-.24-2.4.32-3.46,1.16-2.19,3.95-2.98,6.11-1.8,2.17,1.19,3.05,3.99,1.89,6.18-.55,1.05-1.52,1.84-2.66,2.18-.4.12-.8.17-1.19.17-.77,0-1.52-.21-2.25-.55Z"/>
    <path class="cls-2" d="M373.96,248.01c-35.75-1.86-3.15-46.32,2.21-26.83.77,7.07-5.93,2.52-9.63,15.06,2.75,1.97,6.37,1.23,9.33,2.5,4.23,2.05,3.76,9.32-1.17,9.32-.23,0-.48-.02-.74-.05Z"/>
    <path class="cls-2" d="M337.82,301.97c-.83-3.98,3.74-6.8,6.94-4.3,19.29,8.19,52.51-.61,73.45-3.47,13.39-4.22,26.59-10.91,36.11-21.44,3.11-2.82,3.25-7.52,6.12-10.37,3.66-2.48,8.59,1.8,7.5,5.84-17.01,38.93-68.46,39.6-105.01,42.81-7.72-.88-21.9-.72-25.1-9.07Z"/>
    <path class="cls-2" d="M497.43,188.97c-16.33-9.07-29-23.71-46.42-30.85-17.88-6.78-36.29-12.34-55.21-15.29-20.25-.5-40.46-3.18-60.68-3.25-2.5.18-5.05.46-7.48,1.12-1.21-.29-2.5-.21-3.69.35-.21.1-.43.21-.64.31-.37.04-.73.1-1.09.22-1.54.5-2.69,1.27-3.74,2.43.06-.07.12-.14.18-.21-.06.07-.12.14-.18.21-4.05-1.88-4.9-8.22-1.75-11.36.73-.22,1.48-.39,2.23-.54.88-.16,1.75-.3,2.63-.48.58-.12,1.13-.3,1.69-.49,1.46-.44,2.96-.84,4.46-1.16,1.7-.3,3.41-.52,5.13-.62-.27.02-.54.03-.8.05,2.89-.17,5.75-.6,8.62-.99.95-.13,1.89-.25,2.84-.38,3.88.21,7.78.62,11.68,1.02,5.74.59,11.46,1.19,17.08,1.17,20.43.04,40.6,3.59,60.02,9.88,13.73,4.86,28.08,8.85,39.67,18.09,10,9.39,22.44,15.32,32.79,24.1,6.4,6.79,13.95,13.98,23.93,13.71,7.08-1.66,10.89,11.73,2.87,11.95-.48.02-.95.04-1.42.04-13.64,0-23.7-9.84-32.73-19.02Z"/>
    <path class="cls-2" d="M537.91,207.23c-1.32-.03-2.36-.67-3.29-1.55-.86-1.06-1.43-2.22-1.5-3.61-.06-1.28.32-2.58,1.17-3.55,1.74-2,4.7-1.72,6.43.14,1.77,1.91,2.09,5.14.33,7.16-.77.89-1.89,1.42-3.06,1.42-.03,0-.06,0-.09,0Z"/>
    <path class="cls-2" d="M411.08,144.24c-11.81-6.29-18.29-19.55-30.37-25.41-7.35-3.01-14.45-6.93-21.74-10.24-.11-.14-.23-.28-.36-.42-1.13-1.23-2.81-1.57-4.27-2.22-1.06-.48-2.14-.86-3.24-1.23-.3-.11-.58-.25-.88-.36-.9-.36-1.83-.56-2.77-.61-.36-.09-.74-.16-1.12-.23-.84-.14-1.68-.23-2.53-.31-.93-.21-1.86-.41-2.8-.57-.37-.04-.75-.07-1.12-.11-.48-.09-.96-.16-1.45-.14-18.74-1.84-38.3-3.64-56.3,2.79-11.72,3.63-24.34,6.63-33.53,15.28,2.15,1.98,7.24,3.23,10.66,4.08,10.79,1.03,20.78,5.46,31.41,7.04,7.29,1.44,16.43-.66,22.55,4.02,2.65,2.88,1.27,8.86-3.21,8.45-4.01-1.26-8.3-1.37-12.49-1.71-7.98-.2-15.74-1.85-23.27-4.48-7.56-2.26-15.64-2.2-23.04-5.08-27.05-8.49-17.01-17.13,1-29.12,26.08-13.5,55.61-17.01,84.5-13,9.87.64,18.91,4.56,27.58,9.07,8.62,4.06,17.78,7.19,25.68,12.61,7.29,5.25,12.27,12.99,19.52,18.34,3.03,2.49,6.97,5.06,6.27,9.57-.16,2.12-1.79,4.09-3.9,4.09-.25,0-.51-.03-.77-.09Z"/>
    <path class="cls-2" d="M355.17,106.46l-.11-.02c.11.02.21.04.32.06-.07-.01-.14-.03-.21-.04Z"/>
    <path class="cls-2" d="M478.39,90.32c7.2-.78,18.18-7.55,6.72-12.38-4.09-1.2-12.53-3.42-13.75,2.4-.35,2.37.45,5.22-1.02,7.3-8.73,6.78-9.86-9.23-7.07-14.47,4.02-9.69,16.87-8.62,24.97-5.25,18.25,9.8,13.26,32.36-7.63,33.57-4.8-.8-7.15-9.01-2.23-11.18Z"/>
    <path class="cls-2" d="M541.54,286.7c-7-.3-14.72-.81-20.25-5.61-3.51-3.03-8.86-10.46-1.98-12.82,3.26-.91,4.99,2.12,6.47,4.43,4.11,5.26,11.93,4.85,17.99,4.95,4.09,0,5.91-4.59,7.71-7.62,6.34-10.35-3.45-27.06-15.98-22.89-1.26.61-4.1.65-4.34,2.14-1.28,5.12-8.75,3.97-9.04-1.12-1.29-7.65,9.2-9.17,14.69-10.48,7.11-1.21,14.18,2.27,18.88,7.47,13.07,12.12,5.76,41.57-13.3,41.57-.28,0-.56,0-.84-.02Z"/>
    <path class="cls-2" d="M283.32,233.15c-13.73-4.18-20.55-15.32-15.52-29.25,5.84-14.81,20.19-15.95,28.7-3.16,1.02,3.75-3.38,7.05-6.67,4.96-6.07-5.73-9.55-7.21-13.6,1.35-2.89,8.57.21,14.11,8.62,16.96,5.04,1.67,4.26,9.16-1,9.16-.17,0-.34,0-.52-.02Z"/>
    <rect class="cls-1" x="2.5" y="2.5" width="800" height="800"/>
  </g>
  <g id="Vector_layer-2" data-name="Vector layer">
    <path class="cls-2" d="M377.52,577.55c-23.59-.14-52.17-16.43-46.76-43.48,3.75-23.29,7.17-46.65,11.84-69.76,5.23-27.04,9.74-53.98,11.27-81.54-2.03-10,15-8.71,9.49.51-2.43,39.48-10.74,77.07-17.43,115.98-.5,18.2-12.3,38.85-1.78,55.61,10.09,9.91,23.31,13.19,37.13,13.85-.15,2.28.53,4.4,1.75,6.37.59.95,1.29,1.85,2.07,2.65-2.53-.05-5.06-.11-7.58-.2Z"/>
    <path class="cls-2" d="M450.42,389.51c-.88-6.54-17.14-28.15-3.22-27.3,2.74.77,3.21,3.69,4.15,5.98,6.94,15.17,11.93,31.05,17.34,46.79,3.42,8.17,7.14,16.22,10.94,24.23-.98.31-1.91.76-2.83,1.32-1.72,1.03-3.33,2.26-4.9,3.53-8.16-17.77-15.81-35.76-21.47-54.55Z"/>
    <path class="cls-2" d="M527.56,566.64c-2.05-1.89-1.63-4.55-1.14-6.98.12-5.15-.37-10.32-1.29-15.38-4.4-21.47-14.74-40.98-21.87-61.57-5.01-12.69-9.82-25.54-16.32-37.55-7.22-12.89-20.1-21.42-27.12-34.44-2.33-5.31-6.1-10.08-7.92-15.46-.94-5.65,6.87-6.82,9-2.04,9.17,23.43,32.15,37.24,40.61,61.04,10.13,24.41,20.2,48.97,28.94,73.9,2.48,6.86,13.62,47.6-2.89,38.49Z"/>
    <path class="cls-2" d="M277.18,461.1c-4.87-.89-7.49-9.09-1.42-10.13,6.85,1.91,13.77,4.1,21.09,2.51,19.17-1.62,32.93-16.84,46.91-28.48,2.4-1.86,4.23-5.09,7.51-5.27,3.64.03,6.44,4.01,5.29,7.45-20.26,19.99-48.34,45.83-79.38,33.91Z"/>
    <path class="cls-2" d="M271.9,456.15c-1.24-.62-2.25-1.47-2.9-2.73-.59-1.15-.81-2.51-.45-3.76.75-2.58,3.6-3.5,5.95-2.5,2.41,1.04,4.11,3.88,3.35,6.49-.34,1.16-1.16,2.12-2.28,2.59-.53.22-1.06.32-1.59.32-.7,0-1.39-.16-2.08-.41Z"/>
    <path class="cls-2" d="M273.27,457.59c-9.88-2.62.29-18.88-10.09-25.59-4.89-4.9-9.81-9.94-12.87-16.23-1.96-4.2-10.73-20.32-12.49-8.23-3.27,10.31,5.15,20.91,1.51,30.71-5.1,4.27-10.34-2.96-9.13-8.06-1.14-6.9-3.65-13.59-2.96-20.72-.27-8.21,4.25-19.33,14.23-16.93,9.7,3.8,14.41,14.8,19.33,23.33,7.54,9.39,18.4,17.11,17.58,30.57.02,4.75,2.43,11.75-5.12,11.17Z"/>
    <path class="cls-2" d="M217.06,487.98c-10.24-2.53-17.31-10.83-17.52-21.45-.54-8.54-2.09-18.66,2.75-26.19,8.09-6.46,19.51-13.54,30.11-12.35,3.84,1.48,5.91,8.4.93,9.75-8.24,1.5-16.97,5.2-23.19,10.87-1.82,7.4-1.33,15.38.1,22.85,3.26,11.01,22.38,7.69,31.56,8.47,6.36-3.39,4.66-14.36,5.48-20.75.23-5.69.21-11.84-3.03-16.75-3.87-2.37-10.41-8.55-3.51-11.65,21.62,4.18,18.51,37.49,12.87,53.36-5.11,10.86-26.9,5.46-36.55,3.85Z"/>
    <path class="cls-2" d="M260.89,475.2c-10.37,2.33-15.15-9.97-4.46-9.97,10.94,2.83,17.69-8.34,21.99.4,1.98,8.75-11.55,9.35-17.53,9.56Z"/>
    <path class="cls-2" d="M294.74,728.99c-16.05-34.91,36.95-26.88,50.3-40.33,1.66-34.87-1.46-69.67-3.27-104.46-.3-4.4-.44-8.85-.89-13.21-1.22-1.44-1.82-3.51-.93-5.31,7.75-9.03,11.07,4.1,10.56,10.74,1.54,30.16,4.19,60.27,4.18,90.48-1.28,9.24,3.29,24.28-4.56,30.64-14.08,9.72-33.21,6.78-47.2,16.53-9.32,19.27,18.4,10.32,25.39,2.82,7.83-4.97,13.77-13.01,21.45-17.65,10.59,1.43,3.03,10.2-1.82,13.85-13.35,11.39-36.76,32.81-53.23,15.92Z"/>
    <path class="cls-2" d="M443.43,754.69c-16.18.48-26.4-14.51-14.36-27.46,11.8-10.61,27.91-14.92,41.93-21.89,2.58-.71,2.35-2.38,2.17-4.62-1.94-21.21-1.07-43.49-4.54-64.17-7.51-7.14,6.73-17.87,8.74-4.97,2.85,14.23,2.42,28.8,3.38,43.22-.73,10.5,5.87,28.92-1.75,36.73,10.03,3.26-3.61,17.16-5.75,22.88-6.57,10.94-15.82,21.52-29.81,20.28ZM473.49,714.53c-10.08,6.25-41.95,13.34-40.15,27.33,19.43,14.35,33.23-13.62,40.15-27.33Z"/>
  </g>
  <g id="Vector_layer-3" data-name="Vector layer">
    <path class="cls-2" d="M429.88,644.11c-19.3-1.09-26.75-20.7-28.37-37.35-2.5-15.34-4.92-30.7-6.96-46.11-2.27-21.98-10.48-42.81-13.46-64.64-3.05-14.66,4.44-27.59,17.13-34.74,8.27-5.01,19.34-10.21,28.83-8.22,15.06-4.81,30.05-10.11,44.5-16.6,17.75-8.9,36.36-15.7,55.32-21.57,20.29-8.02,38.45-8.31,45.21,16.18,10,30.38,12.62,62.71,16.73,94.29.78,13.36,9.13,30.33-5.74,38.75-11.11,8.35-23.59,14.72-34.54,23.26.18-.79.32-1.6.49-2.39.16-.79.33-1.59.49-2.38.39-2.05.78-4.1,1.16-6.15.2-1.04.36-2.07.37-3.14,0-.13,0-.25,0-.38,10.38-7.01,22.07-12.38,30.75-21.48,2.26-3.93-.69-9.34-.71-13.73-4.11-31.18-7.12-62.65-14.34-93.3-8.23-35.47-19.12-24.98-46.91-16.79-24.61,7.24-46.62,20.82-71.08,28.41-9.13,2.92-18.18,8.13-27.96,6.68-12.85,2.95-30.09,11.33-30.57,26.27.71,21.78,9.89,42.29,12.74,63.8,2.76,20.12,5.68,40.22,9.16,60.23,4.34,29.23,25.25,23.83,44.5,11.25,13.41-4.57,25.85-11,37.41-19.14,3.17-1.58,6.33-3,9.46-4.35-.1.31-.21.62-.3.93-.19.34-.38.68-.56,1.02-.28.52-.56,1.05-.84,1.57-.23.42-.45.85-.66,1.29-.26.55-.44,1.11-.62,1.69-.22.69-.05,1.51.5,1.97-.04.16-.08.32-.12.49-.12.54-.29,1.05-.33,1.6-.03.5.07,1.02.32,1.44.05.08.11.16.17.24-12.95,7.59-25.46,15.84-40.04,20.26-8.88,4.38-17.35,11.15-27.48,11.15-1.18,0-2.39-.09-3.62-.29Z"/>
    <path class="cls-2" d="M502.12,610.62c-.04.05-.09.11-.13.16.05-.05.09-.11.13-.16Z"/>
    <path class="cls-2" d="M417.6,647.26c-19.09-2.38-28.04-12.34-31.03-31.16-2.97-16.35-6.55-32.58-8.42-49.12-3.39-26.45-13.61-54.12-7.16-80.66,3.76-11.56,15.02-16.26,24.07-22.68,10.16-4.5,15.5-6.29,16.01-5.38.3.54-1.09,2.02-4.18,4.45-.53,3-3.67,4.63-5.16,7.24-5.7,5.97-14.94,7.52-19.46,14.86-9.54,15.84-1.49,35.92-.14,53.11,4.83,24.86,7.9,49.95,13.07,74.73,1.21,6.41,2.55,13.17,6.68,18.41,5.08,7.54,20.38,6.02,27.88,9.1,12.17-1.83,15.62-1.35,15.94-.28.61,2.07-9.85,8.84-21.27,8.48-2.76-.09-5.08-.58-6.82-1.07Z"/>
    <path class="cls-2" d="M481.81,555.37c-28.05-4.73-30.43-52.04,2.7-48.25,5.16-6.97,14.73-5.15,20.91-.59,12.79,6.43,12.85,23.3,7.82,34.91-3.96,9.77-14.56,14.64-24.77,14.64-2.26,0-4.51-.24-6.66-.72ZM469.39,531.62c1.94,8.32,9.46,16.64,19.07,15.48,11.07,1.07,17.84-8.24,18.83-17.55.96-9.05-3.52-18.11-14.81-17.61,2.2,3.86-2.27,8.56-6.16,6.23-1.32-.61-2.55-2-3.96-2.12-.27,0-.54-.01-.8-.01-10.89,0-13.98,7.79-12.17,15.58Z"/>
    <path class="cls-2" d="M518.94,627.09c-40.32-2.91-17.34-32.09-23.89-45.94-1-5.65,6.24-8.75,9.58-12.3,7.8-7.32,17.14-13.69,28.28-13.43,23.86-1.38,26.36,27.54,21.33,44.92-3.15,16.74-18.6,27.54-35.29,26.76ZM532.13,564.46c-11.58.14-19.59,9.7-27.79,16.58-.03.03-.06.05-.08.08,4.51,6.64-3.2,21.9-.56,30.55,7.7,9.91,24.88,7.43,34.01.69,11.07-10.1,17.32-49.82-5.58-47.9Z"/>
    <path class="cls-2" d="M482.51,503.03c-11.74-1.28-7.53-18.63-2.82-25.23,5.31-7.09,15.71-.7,15.49,7,.73,4.47-7.86,18.78-12.67,18.24ZM485.95,484.61c-.48,1.04-1.33,3.31-1.23,3.91.84-1.13,1.84-2.66,1.36-4.09-.03,0-.07.05-.13.17Z"/>
  </g>
</svg>