<?xml version="1.0" encoding="UTF-8"?>
<svg id="Layer_2" data-name="Layer 2" xmlns="http://www.w3.org/2000/svg" viewBox="0 0 805 805">
  <defs>
    <style>
      .cls-1 {
        fill: none;
        opacity: 0;
        stroke-width: 5px;
      }

      .cls-1, .cls-2 {
        stroke: #000;
        stroke-miterlimit: 10;
      }

      .cls-2 {
        fill: #000;
        stroke-width: 2px;
      }
    </style>
  </defs>
  <g id="Vector_layer" data-name="Vector layer">
    <g>
      <path class="cls-2" d="M440.4,379.33c-11.55,5.57-25.05,4.03-37.55,5.97-23.03,1.76-50.08,3.81-72.3-3.29-7.59-2.26-12.87-7.29-19.59-11.7-9.95-6.44-21.08-11.22-30.05-18.87-3.2-2.7-6.03-5.86-8.64-9.14-13.41-17.34-28.01-34.25-38.08-53.78-1.27-2.63-2.28-5.36-3.17-8.14-6.29-20.12-14.64-40.12-14.22-61.49.27-15.24-2.17-31.16,3.47-45.65,3.6-9.18,7.46-18.29,11.41-27.32,1.69-3.84,3.63-7.61,6.1-11,6.71-9.28,16.1-16.15,25.06-23.32,9.41-8,20.59-13.38,32.44-16.93,18.51-5.75,38.06-5.41,56.73-1.5,7.95,1.25,16.02,2.4,23.31,5.86,4.47,2.07,8.62,4.74,12.99,6.99,9.65,4.63,19.51,8.92,27.95,15.68,20.78,15.26,32.06,39.23,38.27,63.6,1.27,4.01,3.13,7.74,5.31,11.32,10.77,17.51,21.5,35.21,28.42,54.68,10.08,25.43,11.33,55.21-2.58,79.53-10.41,20.05-24.28,38.46-45.11,48.42l-.18.08ZM362.15,106.64c-15.75-3.03-31.95-6.96-47.9-5.05-15.46,2.24-31.17,6.27-43.73,15.87-9.2,7.47-19.4,14.26-26.21,24.12-3.35,4.65-5.47,10.02-7.49,15.36-3.01,7.88-7.21,15.38-9.53,23.44-1.05,3.63-1.38,7.4-1.43,11.17-.13,16.04-1.1,32.26,2.1,48.05,1.55,7.64,4.57,14.85,6.94,22.25,2.18,7.43,3.85,14.99,7.36,21.9,6.13,13.05,15.74,24.16,24.18,35.81,6.85,9.35,13.79,18.87,22.86,26.19,6.16,5.23,13.86,8.22,20.74,12.29,7.4,4.06,13.78,10.12,21.52,13.45,19.12,6.92,40.5,5.31,60.77,4.44,4.09-.17,8.1-.64,12.15-1.13,10.37-1.33,21.72-.35,31.47-4.32,18-7.34,30.49-22.92,39.35-39.75,6.68-11.11,11.46-23.49,11.42-36.64.19-9.1-1.22-18.06-3.62-26.84-4.53-16.17-11.95-31.49-19.82-46.2-4.31-7.7-9.89-14.67-13.83-22.59-2.73-5.53-4.29-11.57-6.18-17.42-1.39-4.2-3.54-7.94-5.28-12.07-7.23-20.89-24.08-37.99-43.92-47.33-10.86-4.4-20.32-12.1-31.74-14.95l-.19-.05Z"/>
      <path class="cls-2" d="M417.32,210.83c-4.92,3.61-10.15-3.59-5.34-7.28,4.83-3.32,9.77,3.38,5.48,7.17l-.14.12Z"/>
      <path class="cls-2" d="M345.86,243.86c-4.82,3.74-10.2-3.33-5.52-7.13,4.73-3.47,9.9,3.11,5.66,7l-.14.12Z"/>
      <path class="cls-2" d="M388.17,254.76c-4.34.42-6.59-4.26-3.61-7.53,1.5-1.79,4.01-2.58,5.82-3.91,2.25-1.5,1.69-3.96-.02-5.69-2.37-2.67-5.19-3.63-7.55-5.36-2.04-1.6-2.14-5.04-.79-7.18,6.27-9.36,30.18,13.96,16.45,24.85-2.76,2.43-6.77,4.54-10.12,4.81h-.18Z"/>
      <path class="cls-2" d="M434.95,300.33c-.05,9.72-20.86,14.15-28.66,15.05-35.28,4.26-82.11,11.04-105.13-20.71-1.27-2.23-1.55-4.81-.37-6.53,2.13-3.15,6.15-1.23,8.14,1.15,9.8,11.65,25.44,16.43,39.99,18.85,7.59,1.13,14.9.19,22.56.11,19.58-.69,40.43-1.28,55.7-10.22,2.82-1.61,7.29-1.76,7.75,2.14l.02.15Z"/>
      <path class="cls-2" d="M440.4,379.33c-10.45,5.16-22.6,4.08-34,5.57-22.75,2.16-49.35,3.95-71.67-1.62-4.25-1.17-8.12-2.56-11.59-4.55-3.47-2-6.54-4.61-9.85-6.88-10.51-7.26-22.7-12.17-32.38-20.42-3.2-2.7-6.03-5.86-8.64-9.14-13.41-17.34-28.01-34.25-38.08-53.78-1.27-2.63-2.28-5.36-3.17-8.14-6.28-20.12-14.64-40.12-14.22-61.49.27-15.24-2.17-31.16,3.47-45.65,3.6-9.18,7.46-18.29,11.41-27.32,1.69-3.84,3.63-7.61,6.1-11,6.7-9.28,16.1-16.16,25.06-23.32,9.41-8,20.59-13.38,32.44-16.92,18.51-5.75,38.06-5.41,56.73-1.5,7.95,1.25,16.02,2.4,23.31,5.86,4.47,2.07,8.62,4.74,12.99,6.99,9.65,4.63,19.51,8.92,27.95,15.68,20.78,15.26,32.06,39.23,38.27,63.6,1.27,4.01,3.13,7.74,5.31,11.32,10.77,17.51,21.5,35.21,28.42,54.68,10.08,25.44,11.32,55.21-2.58,79.53-10.41,20.05-24.28,38.46-45.1,48.42l-.18.08ZM362.15,106.64c-15.75-3.03-31.95-6.96-47.9-5.05-15.46,2.24-31.17,6.27-43.73,15.86-9.2,7.46-19.4,14.27-26.21,24.12-3.35,4.65-5.47,10.02-7.49,15.36-3.01,7.88-7.21,15.38-9.53,23.44-1.05,3.63-1.38,7.4-1.43,11.17-.13,16.04-1.1,32.26,2.1,48.05,1.55,7.64,4.57,14.85,6.94,22.25,2.18,7.43,3.86,14.99,7.36,21.9,6.13,13.05,15.74,24.16,24.18,35.81,6.85,9.35,13.79,18.87,22.86,26.19,6.16,5.23,13.86,8.22,20.74,12.29,7.4,4.06,13.78,10.12,21.52,13.45,19.12,6.92,40.5,5.31,60.77,4.44,4.09-.17,8.1-.64,12.15-1.13,10.38-1.32,21.73-.36,31.47-4.32,18-7.35,30.5-22.91,39.35-39.75,6.68-11.11,11.46-23.49,11.41-36.64.19-9.1-1.22-18.07-3.62-26.84-4.53-16.17-11.95-31.49-19.82-46.2-4.31-7.7-9.89-14.67-13.83-22.59-2.73-5.53-4.29-11.57-6.18-17.42-1.39-4.2-3.54-7.94-5.28-12.07-7.23-20.89-24.08-37.99-43.92-47.33-10.86-4.4-20.32-12.1-31.74-14.95l-.19-.05Z"/>
      <path class="cls-2" d="M417.32,210.84c-4.92,3.61-10.15-3.59-5.34-7.28,4.83-3.32,9.77,3.38,5.48,7.17l-.14.12Z"/>
      <path class="cls-2" d="M345.86,243.86c-4.82,3.74-10.21-3.33-5.52-7.13,4.73-3.47,9.9,3.11,5.66,7l-.14.12Z"/>
      <path class="cls-2" d="M388.17,254.76c-4.34.42-6.59-4.26-3.61-7.53,1.5-1.79,4.01-2.58,5.82-3.91,2.25-1.5,1.68-3.96-.02-5.69-2.37-2.67-5.19-3.64-7.55-5.36-2.04-1.6-2.14-5.04-.79-7.18,6.27-9.36,30.18,13.96,16.45,24.85-2.76,2.43-6.77,4.54-10.12,4.81h-.18Z"/>
      <path class="cls-2" d="M434.95,300.33c-.06,9.72-20.86,14.15-28.66,15.05-35.28,4.26-82.11,11.04-105.13-20.71-1.27-2.23-1.55-4.81-.37-6.53,2.13-3.15,6.15-1.24,8.14,1.15,9.8,11.65,25.44,16.43,39.99,18.86,7.59,1.13,14.9.19,22.56.11,19.58-.69,40.43-1.29,55.71-10.22,2.81-1.61,7.29-1.76,7.75,2.14l.02.15Z"/>
      <path class="cls-2" d="M244.21,260.44c-5.16,2.27-17.46,6.37-20.47,1.75-1.13-2.05.07-4.69,1.8-6.09,4.69-3.8,12.7-2.44,17.12-6.8,4.39-4.91-3.45-16.09-5.29-21.61-3.86-9.88-6.92-24.69-1.8-34.51,2.99-5.58,7.48-6.62,14.23-6.53,3.86-.04,7.87.11,11.72.05,4.33-.3,8.59.26,10.47-2.58.76-1.75.18-3.54-.16-6.14-.32-2.11-.47-4.35-.22-6.45.66-5.63,4.55-7.26,9.9-7.38,7.13-.15,16.09,2.13,23.65,1.44,11.41-1.12-3.84-24.84,14.58-22.32,5.04.64,9.94,2.29,14.9,3.02,5.23.63,14.82,2.72,17.38-3.01.91-2.98-.48-6.53-.3-9.64,1.18-19.63,40.99,5.3,49.91.79,2.22-1.73-.35-4.82.3-8.01.3-3.05,3.18-5.51,5.94-3.79,2.35,1.29,4.17,4.88,4.98,7.9,3.56,12.14-6.71,16.53-17.03,15.27-9.85-.91-18.25-5.57-27.58-7.76-2.25-.6-4.98-.59-5.15,2.32-.24,2.24.12,4.78-.9,6.89-2.09,4.39-6.82,8.22-11.94,9.85-6.16,1.71-12.81.49-19.01-.21-3.19-.2-8.3-2.17-10.9-1.79-1.29.31-1.03,3.09-1,4.59.09,2.6.12,5.43-.61,7.93-3.24,11.72-20.76,8.99-32.74,7.73-1.71-.1-3.17.21-3.62,1.88-.49,2.01.03,4.41,0,6.56.2,16.09-21.9,13.02-35.89,14.25-2.55.61-3.98,2.5-4.39,4.96-2.77,19,26.13,47.36,2.29,57.35l-.18.08Z"/>
      <path class="cls-2" d="M231.32,306.01c-16.43,4.17-35.29-5-32.23-23.46.94-9.84,9.03-16.57,18.39-18.33,5.86-1.32,18.03-.42,20.5,5.81.93,3.01-2.38,5.09-5.12,4.61-4.25-.59-8.25-2.5-12.68-1.53-7.11,1.05-12.33,6.03-11.82,13.44.39,11.2,14.44,13.37,24.79,8.91,2.69-1.07,5.7-3.09,8.59-2.28,1.9.55,2.85,2.75,2.1,4.82-2.04,4.73-7.7,6.63-12.32,7.96l-.2.05Z"/>
      <path class="cls-2" d="M467.6,213.84c-5.78.38-5.94-5.67-1.96-8.81,4.51-3.63,9.58-8.34,9.14-14.66-.28-5.93-5.41-12.13-11.02-8.68-3.32,1.77-5.13,6.52-8.71,7.67-2.24.69-4.36-1.01-4.59-3.26-.36-3.14,1.35-6.01,3.33-8.5,4.84-5.94,13.95-9.78,21.07-5.77,5.35,3.22,8.48,9.69,9.54,15.71,1.48,10.34-6.25,23.06-16.63,26.28l-.17.02Z"/>
      <path class="cls-2" d="M235.35,126.54c3.03,2.41,6.94,6.48,9.19,9.76,2.65,3.7-.21,7.97-4.51,7.05-2.92-.67-5.4-3.37-7.64-6.02-1.85-2.25-4.22-4.91-4.13-7.5-.01-3.44,4.18-5.35,6.93-3.4l.16.1Z"/>
      <path class="cls-2" d="M237.89,147.82c-2.47,6.87-14.79,3.75-20.21,3.1-1.95-.35-4.11-.73-5.54-2.13-2.21-2.03-1.39-6.07,1.51-7.14,3.44-1.35,7.41-.11,11,.04,4.6.62,13.83-.7,13.27,5.98l-.04.16Z"/>
      <path class="cls-2" d="M230.26,159.76c4.65,1.21,4.17,6.99-.03,8.51-4.97,1.75-10.45,1.6-15.66,2.06-1.94.09-4.17.08-5.89-.79-3.12-1.35-3.14-5.85-.22-7.47,3.53-2.03,8.27-1.39,12.26-1.98,3.05-.21,6.53-1.03,9.36-.37l.18.05Z"/>
    </g>
    <rect class="cls-1" x="2.5" y="2.5" width="800" height="800"/>
  </g>
  <g id="Vector_layer-2" data-name="Vector layer">
    <path class="cls-2" d="M400.17,573.84c-29.02-2.69-77.86,5.23-74.48-37.9,4.37-26.11,7.59-52.62,16.47-77.68,4.34-22.55,3.19-45.82,6.05-68.59-.02-1.58.77-2.81,1.89-3.55.55.3,1.11.58,1.68.85,1.45.68,2.99,1.24,4.55,1.62.29.07.58.13.86.19.98,3.2-.46,7.09-.44,10.38-2.38,19.28-1.46,38.88-4.75,58.03-4.12,15.65-10.11,30.79-11.3,47.11-12.05,54.69-7.68,58.29,47.75,59.98,29.24.64,59.68,5.36,88.12-3.43,17.29-8.98,11.6-29.93,9.62-45.51-1.28-13.63-3.72-27.08-6.66-40.44-.06-.46-.14-.91-.22-1.36-.12-.59-.28-1.17-.47-1.75-.6-2.66-1.22-5.31-1.84-7.96-.02-.11-.04-.22-.06-.34-.25-1.3-.5-2.59-.82-3.88-.16-.62-.33-1.25-.55-1.86-.02-.06-.04-.12-.06-.17-2.86-11.73-5.87-23.43-8.58-35.15-5.97-15.27-12.36-30.35-16.25-46.36-.08-.4-.18-.83-.3-1.29.25-1.7.35-3.39-.17-5.08-.11-.36-.25-.7-.41-1.02.98-.52,1.91-1.14,2.86-1.71,1.37-.82,2.81-1.5,4.2-2.28,3.55,7.47,6.09,25.1,8.62,29.47,8.35,19.06,14.23,38.7,18.07,59.17,4.83,20.28,10.24,40.49,11.72,61.37,3.79,20.93,6.62,47.78-18.61,55.84-13.46,3.61-27.32,4.66-41.23,4.66-11.78,0-23.6-.75-35.25-1.34Z"/>
    <path class="cls-2" d="M296.77,704.28c-8.22-15.23,16.09-30.78,29.48-30.59,8.55-.52,17.37-.43,25.61,2.03-.11-1.53-.3-3.2-.43-4.77-2.24-20.72-2.02-41.64-5.21-62.26-.66-8.72-6.71-39.86-.11-44.61,10.93-1.41,5.9,13.9,7.1,20.36,1.28,21.33,5.77,42.36,5.98,63.8-.69,8.2,5.63,34.34,1.26,38.57,4.6,2.72,3.54,9.59-2.31,9.27-4.76,1.72-8.75,5.14-13.59,6.74-14.67,5.33-36.36,19.27-47.77,1.46ZM334.63,683.3c-4.67.19-9.5-.08-13.95,1.53-5.94,2.3-25.23,16.93-9.58,18.35,15.34-1.82,28.99-11.14,43.08-16.77-6.11-2.55-12.95-3.16-19.55-3.11Z"/>
    <path class="cls-2" d="M435.94,737.48c-10.93-6.65-7.9-22.97-.29-31.1,11.05-9.38,29.04-7.92,42.83-7.91-4.15-23.04-7.74-46.23-11.73-69.3-4.08-17.06-9.21-33.92-12.07-51.24-7.61-5.9,5.86-14.03,8.92-5.68,2.59,21.39,9.97,41.91,14.08,63.04,2.92,20.82,6.87,41.46,10.34,62.19.56,3.03,1.35,6.2.79,9.1,1.11,2.23-.02,4.67-1.94,6.02-12.46,10.7-33.43,31.4-50.93,24.9ZM469.27,707.81c-13.44.9-33.79,1.42-30.11,20.41,7.52,5.32,31.09-14.59,37.5-20.3-2.46-.12-4.92-.2-7.38-.11Z"/>
    <path class="cls-2" d="M229.29,421.2c-21.45-2.56-35.77-24.39-33.08-28.55.97-1.5,4.43-1.07,7.8-.24.95.24,1.74.89,2.17,1.78,1.33,2.8,3.78,6.93,8.12,10.69,4.41,3.81,8.89,5.61,11.68,6.48.33.1.67.15,1.02.14,10.15-.21,22.9-1.48,30.74-8.27.44-.38.77-.88.94-1.44,2.54-8.24-1.02-18.29-6.22-24.85-.12-.15-.25-.29-.39-.42-11.32-10.65-30.49-8.28-41.9,1-4.39,3.76-3.72,10.11-4.61,15.31-.86,5.66-9.21,4.49-9.44-.87.54-4.48.78-9.12,2.14-13.48.17-.54.49-1.04.91-1.42,20.17-18.71,46.96-19.04,59.83-6.35,10.36,10.21,9.15,26.35,8.59,30.92-.07.55-.27,1.08-.59,1.53-9.06,12.6-23.47,19.74-37.7,18.04Z"/>
    <path class="cls-2" d="M169.38,541.27c-30.11-9.1-23.54-21.33-17.05-46.16,5.93-21.1,8.07-43.22,9.63-65,.49-9.12-3.6-17.87-2.46-26.94,1.32-11.23,14.42-11.44,23.25-11.27,5.24.75,11.8-1.41,16.16,2.17,4.23,4.03-1.84,11.36-6.68,8.67-5.55-2.71-15.72-1.61-21.73.21-4.25,6.64,1.53,15.32,1.03,22.7.38,22.21-3.11,44.75-7.74,66.46-2.52,10.6-6.53,21.57-7.05,32.32,17.25,15.67,45.55,4.9,66.92,6.45,62.13-3.71,57.6,9.62,54.66-57.01-.95-22.83,1.95-45.7.85-68.5-3.88-5.62-14.63-2.82-15.99-10.26,1.91-10.65,18.31.42,23.03,4.16,5.09,5.53,2.93,14.08,3.22,20.96-2.16,33.33.23,66.68-.03,99.94-3.26,27.1-36.05,17.18-54.7,19.66-21.66.73-43.78,4.27-65.31,1.43Z"/>
    <path class="cls-2" d="M200.95,425.4c-6.43-.26-12.89-.92-19.16-.76-4.61-1.25-5.66-9.01-.45-10.15,12.14.29,24.37,1.09,36.56.78,5.55-1.01,14.71,1.4,11.25,8.7-6.57,3.88-20.11.6-28.21,1.42Z"/>
    <path class="cls-2" d="M201.16,448.22c-4.8-.77-6.97-9.01-1.53-10.48,6.54-.68,13.15.25,19.7.47,14.57,1.2,29.36-2.96,43.77-1.53,3.81,1.62,4.42,8.14-.16,9.13-5.96.31-11.95.68-17.92,1.12-14.82,2.56-29.74-.75-43.86,1.3Z"/>
    <path class="cls-2" d="M246.87,466.6c-9-.79-18.05-.36-27.08-.48-7.01-1.28-20.35,4.72-22.51-4.93-.31-4.79,4.58-4.75,8.07-4.67,18.64-1.31,37.37.53,55.89.65,3.58.31,6.31,4.65,4.6,7.92-4.54,4.86-13.04,1.31-18.98,1.51Z"/>
    <path class="cls-2" d="M254.06,487.34c-14.08-1.45-28.17-2.32-42.35-1.59-3.17,2.27-7.48,1.48-8.84-2.6-2.31-6.17,4.9-7.44,9.43-7.12,10.9-.17,21.87-.67,32.7.84,3.65.88,7.74-.01,11.12,1.63,3.85,2.29,2.98,9.19-2.07,8.84Z"/>
    <path class="cls-2" d="M258.22,507.28c-13.92.07-27.82-.58-41.68-1.8-5.76-.95-19.78,1.83-16.47-8.13,5.48-5.39,29.74.89,38.69-.1,7.48.95,16.13-1.47,23.01,1.54,3.79,3.04,1.58,9.48-3.55,8.49Z"/>
    <path class="cls-2" d="M307.7,443.94c-10.96-3.14-20.84-9.94-30.37-15.75-4.27-4.07,1.07-10.44,5.88-7.1,34.1,23.76,36.44,10.34,69.68,13.67,5.92,5.93-1.65,9.61-7.44,8.84-12.56.22-25.31,3.2-37.75.33Z"/>
    <path class="cls-2" d="M479.53,474.87c-.06-.45-.14-.89-.22-1.34-.21-1.07-.59-2.09-.91-3.12-.66-2.27-1.03-4.61-1.46-6.92-.25-1.3-.5-2.59-.82-3.88-.16-.62-.33-1.25-.55-1.86-.19-.54-.43-1.06-.66-1.59-.54-1.25-.98-2.54-1.46-3.8-.5-1.36-1.02-2.71-1.43-4.11-.13-.48-.26-.96-.4-1.44-.1-.79-.17-1.58-.2-2.38-.02-.57-.05-1.13-.09-1.69,1.82,2.33,3.59,4.69,5.27,7.12,5.31,7.81,9.08,16.48,13.15,24.99,0,.62.03,1.24.1,1.86.07.64.2,1.28.33,1.91.17.98.27,1.96.35,2.95.08.98.22,1.96.38,2.94.16,1.02.41,2.01.69,3,.07.81.28,1.58.64,2.3.09.38.18.76.25,1.15-.01-.07-.03-.15-.04-.23.22,1.22.34,2.45.53,3.67.21,1.36.51,2.7.85,4.03,0,.3-.02.6-.03.9-.01.45-.05.92-.03,1.38-4.78-8.6-9.66-17.14-14.22-25.87Z"/>
    <path class="cls-2" d="M518.77,604.36c.21-.17.41-.36.6-.55.14.26.29.51.46.75-.36-.06-.71-.13-1.06-.2Z"/>
    <path class="cls-2" d="M524.47,563.77c-3.51-.39-4.07-3.96-4.69-6.8-2.66-8.5-4.86-17.01-6.18-25.84-5.34-19.66-10.11-39.42-16.76-58.68-3.08-9.27-9.36-16.72-14.9-24.56-6.32-9.75-11.8-20.02-16.07-30.83-3.97-4.91,3.91-11.59,7.75-6.32,4.92,19.34,19.05,34.61,28.76,51.72,6.27,14.98,10.86,30.76,14.37,46.61,4.02,11.74,6.14,23.9,8.82,35.95,1.08,5.43,8.62,18.23-1.11,18.74Z"/>
    <path class="cls-2" d="M525.6,615.02c-11.09-3.23-16.16-15.33-15.24-26.11.24-6.38-.34-45.37,12.28-34.87,1.78-6.92,9.26-2.44,12.1,1.28,5.74,8.79,9.49,19.27,12.36,29.34,3.05,13.4-3.73,37.48-21.49,30.37ZM523.36,557.94c-3.67,8.86-3.77,18.52-3.95,27.97-.06,4.5-.51,9.21,1.39,13.43,1.38,4.39,9.2,10.24,13.3,6.94,7.86-9.21,4.46-22.63-.33-32.5-2.5-6.17-4.35-12.71-10.33-16.35-.02.18-.04.35-.07.52Z"/>
  </g>
</svg>