<?xml version="1.0" encoding="UTF-8"?>
<svg id="Layer_2" data-name="Layer 2" xmlns="http://www.w3.org/2000/svg" viewBox="0 0 419.68 660.6">
  <defs>
    <style>
      .cls-1 {
        fill: #000;
        stroke: #000;
        stroke-miterlimit: 10;
        stroke-width: 2px;
      }
    </style>
  </defs>
  <g id="Vector_layer" data-name="Vector layer">
    <g>
      <path class="cls-1" d="M200.18,309.51c-22.41-5.54-39.71-20.77-53.96-38.3-18.54-21.01-23.33-50.42-18.6-77.37,2.84-20.47,9.77-39.97,16.78-59.29,1.42-3.94,2.48-7.97,2.92-12.16,1.15-25.12,7.36-50.88,24.63-70.02,6.89-8.33,15.69-14.52,24.2-21.01,3.83-3.09,7.36-6.54,11.31-9.47,6.44-4.85,14.11-7.61,21.64-10.44,17.5-7.6,36.57-11.89,55.87-10,12.32,1.08,24.36,4.09,35.19,10.02,10.23,5.21,20.82,10.04,29.26,17.77,3.11,2.83,5.77,6.12,8.2,9.54,5.69,8.05,11.31,16.19,16.69,24.45,8.45,13.05,9.28,29.14,12.62,44.01,4.73,20.84.59,42.12-1.5,63.09-.31,2.9-.75,5.78-1.46,8.61-5.91,21.16-16.79,40.67-26.43,60.36-1.89,3.74-4.02,7.41-6.61,10.69-7.25,9.3-17.18,16.23-25.62,24.55-5.68,5.68-9.84,11.68-16.82,15.42-20.33,11.44-47.23,14.9-70.14,17.83-12.63.63-25.54,4.87-37.98,1.74l-.19-.05ZM221.74,26.77c-10.61,5.1-18.32,14.55-28.07,21.06-17.54,13.16-30.59,33.31-33.45,55.23-.87,4.4-2.22,8.49-2.73,12.89-.66,6.11-.97,12.34-2.53,18.31-2.26,8.55-6.31,16.5-8.98,24.92-4.74,15.99-8.91,32.5-10.08,49.25-.58,9.08-.14,18.15,1.88,27.02,2.62,12.88,9.79,24.05,18.59,33.58,12.07,14.7,27.46,27.42,46.57,30.98,10.34,1.91,21.26-1.33,31.69-2.13,4.07-.34,8.09-.7,12.13-1.35,20.02-3.24,41.3-5.99,58.62-16.63,6.91-4.83,11.94-12.05,18.36-17.52,5.91-5.37,12.85-9.85,17.83-16.22,7.4-9.01,12.28-19.73,17.1-30.27,5.91-13.11,13.07-25.93,16.44-39.96,2.04-7.48,2.15-15.22,2.78-22.94.82-7.73,2.32-15.4,2.3-23.2-.05-16.11-4.28-31.8-7.65-47.48-.81-3.68-1.9-7.31-3.65-10.65-3.9-7.43-9.53-13.92-14.07-21.03-3.05-4.82-6.21-9.65-10.44-13.53-8.66-8.28-20.02-12.87-30.54-18.33-14.24-6.86-30.44-7.64-46.03-6.7-16.01,1.35-31.08,8.48-45.89,14.63l-.18.08Z"/>
      <path class="cls-1" d="M188.77,139.79c-4.97-2.84-1.49-10.4,3.92-8.12,5.46,2.64,1.8,10.75-3.75,8.21l-.16-.09Z"/>
      <path class="cls-1" d="M265.43,157.68c-4.93-2.95-1.2-10.45,4.13-8,5.35,2.77,1.51,10.79-3.97,8.09l-.16-.09Z"/>
      <path class="cls-1" d="M226.19,177.03c-3.34.41-7.69-.85-10.88-2.67-15.65-7.89,3.05-35.56,11.09-27.66,1.75,1.82,2.35,5.21.68,7.2-1.96,2.16-4.53,3.68-6.31,6.77-1.32,2.04-1.38,4.56,1.13,5.58,2.04.94,4.66,1.2,6.49,2.65,3.59,2.6,2.33,7.64-2.01,8.11l-.17.03Z"/>
      <path class="cls-1" d="M189.73,230.94c-.34-3.92,4.07-4.68,7.16-3.66,16.77,5.66,37.31,2.03,56.62-1.25,7.52-1.47,14.87-2.03,22.08-4.67,13.76-5.31,28.11-13.15,35.35-26.54,1.47-2.74,5.02-5.43,7.74-2.78,1.51,1.44,1.75,4.02.96,6.47-16.13,35.75-63.36,38.58-98.78,41.53-7.82.7-29.1.56-31.11-8.94l-.02-.15Z"/>
      <path class="cls-1" d="M200.18,309.51c-22.4-5.54-39.7-20.77-53.96-38.3-18.54-21.01-23.33-50.42-18.6-77.37,2.84-20.47,9.77-39.97,16.78-59.29,1.42-3.94,2.48-7.97,2.92-12.16,1.15-25.12,7.36-50.88,24.63-70.02,6.89-8.33,15.69-14.52,24.2-21.01,3.83-3.09,7.36-6.54,11.31-9.47,6.44-4.85,14.11-7.61,21.64-10.44,17.5-7.6,36.57-11.89,55.87-10,12.32,1.08,24.36,4.09,35.19,10.02,10.23,5.2,20.82,10.04,29.26,17.77,3.11,2.83,5.77,6.13,8.2,9.54,5.7,8.05,11.31,16.19,16.69,24.45,8.45,13.05,9.28,29.14,12.62,44.01,4.73,20.84.59,42.12-1.5,63.09-.31,2.9-.75,5.78-1.46,8.61-5.91,21.16-16.79,40.67-26.43,60.36-1.89,3.74-4.02,7.41-6.61,10.69-7.82,10.04-18.76,17.31-27.59,26.54-2.78,2.89-5.27,6.06-8.26,8.73-3,2.65-6.51,4.79-10.43,6.8-20.73,9.97-47.15,13.59-69.86,16.07-11.47.84-23.14,4.36-34.43,1.41l-.19-.05ZM221.74,26.77c-10.61,5.1-18.32,14.55-28.07,21.06-17.54,13.16-30.59,33.31-33.45,55.23-.87,4.4-2.22,8.49-2.73,12.89-.66,6.11-.97,12.34-2.53,18.31-2.26,8.55-6.31,16.5-8.98,24.92-4.74,15.99-8.91,32.49-10.08,49.25-.58,9.08-.14,18.15,1.88,27.02,2.62,12.88,9.79,24.04,18.58,33.58,12.07,14.7,27.46,27.42,46.57,30.98,10.34,1.91,21.26-1.33,31.69-2.13,4.07-.34,8.09-.69,12.13-1.35,20.02-3.24,41.3-5.99,58.62-16.63,6.91-4.83,11.94-12.05,18.36-17.52,5.91-5.37,12.85-9.85,17.83-16.22,7.4-9.01,12.28-19.73,17.1-30.27,5.91-13.11,13.07-25.93,16.44-39.96,2.04-7.48,2.16-15.22,2.79-22.94.82-7.73,2.32-15.4,2.3-23.2-.05-16.11-4.28-31.8-7.65-47.48-.81-3.68-1.9-7.31-3.65-10.65-3.9-7.43-9.53-13.92-14.07-21.03-3.05-4.82-6.21-9.65-10.44-13.53-8.66-8.28-20.02-12.88-30.54-18.33-14.24-6.86-30.44-7.63-46.03-6.7-16.01,1.35-31.08,8.48-45.89,14.62l-.18.08Z"/>
      <path class="cls-1" d="M188.77,139.79c-4.97-2.84-1.49-10.4,3.92-8.12,5.46,2.64,1.8,10.75-3.75,8.21l-.16-.09Z"/>
      <path class="cls-1" d="M265.43,157.68c-4.93-2.96-1.2-10.45,4.13-8,5.36,2.78,1.51,10.79-3.97,8.09l-.16-.09Z"/>
      <path class="cls-1" d="M226.19,177.03c-3.34.41-7.69-.85-10.88-2.67-15.65-7.89,3.05-35.56,11.09-27.66,1.75,1.83,2.35,5.21.68,7.2-1.96,2.16-4.53,3.68-6.31,6.77-1.32,2.04-1.38,4.56,1.13,5.58,2.04.94,4.66,1.2,6.49,2.65,3.59,2.6,2.33,7.64-2.01,8.11l-.17.03Z"/>
      <path class="cls-1" d="M189.73,230.93c-.34-3.92,4.07-4.67,7.15-3.66,16.77,5.66,37.31,2.03,56.62-1.25,7.52-1.47,14.87-2.03,22.08-4.67,13.76-5.31,28.11-13.15,35.35-26.55,1.47-2.74,5.02-5.43,7.74-2.77,1.51,1.44,1.75,4.02.96,6.47-16.12,35.75-63.36,38.57-98.78,41.53-7.82.7-29.1.56-31.11-8.94l-.02-.15Z"/>
      <path class="cls-1" d="M368.3,153.43c-25.36-4.97-2.79-38.58-9.34-56.63-.91-2.33-2.69-3.9-5.31-3.97-13.95,1.63-34.97,9.1-38.03-6.7-.46-2.1-.43-4.56-1.32-6.43-.77-1.54-2.27-1.56-3.92-1.11-11.48,3.66-28.09,9.87-33.63-.96-1.22-2.31-1.76-5.08-2.2-7.65-.28-1.48-.58-4.26-1.91-4.3-2.62.15-7.23,3.11-10.31,3.95-5.94,1.94-12.2,4.48-18.58,4.05-5.34-.57-10.74-3.36-13.68-7.24-1.43-1.86-1.59-4.42-2.27-6.57-.76-2.81-3.43-2.27-5.51-1.23-8.7,4.03-15.99,10.29-25.45,13.17-9.84,3.32-20.8,1.09-19.76-11.51.19-3.12,1.24-7,3.29-8.74,2.35-2.24,5.67-.41,6.58,2.52,1.29,3-.61,6.54,1.91,7.79,9.65,2.61,43.59-29.85,48.72-10.86.8,3.01.15,6.77,1.65,9.5,3.66,5.09,12.64,1.1,17.63-.57,4.71-1.72,9.17-4.32,13.98-5.97,17.53-6.19,7.39,20.13,18.79,18.92,7.55-.85,15.86-4.89,22.87-6.19,5.26-.97,9.4-.16,11.18,5.22.67,2,.97,4.23,1.09,6.36.2,2.62-.01,4.49,1.08,6.05,2.42,2.4,6.48.99,10.78.41,3.78-.72,7.68-1.68,11.47-2.42,6.59-1.45,11.2-1.34,15.26,3.52,7,8.58,6.99,23.71,5.21,34.16-.69,5.78-6.11,18.31-.82,22.24,5.21,3.37,12.77.42,18.14,3.2,1.98,1.02,3.69,3.37,2.99,5.6-2.02,5.14-14.9,3.6-20.41,2.43l-.19-.05Z"/>
      <path class="cls-1" d="M390.12,195.49c-4.79-.37-10.72-1.09-13.67-5.31-1.15-1.88-.66-4.22,1.09-5.14,2.67-1.37,6.02,0,8.88.5,11.04,2.27,24.36-2.69,22.48-13.74-.99-7.37-7.11-11.19-14.29-10.78-4.54-.05-8.06,2.63-12.11,4.07-2.59,1.02-6.25-.34-5.95-3.48,1.16-6.6,12.89-9.94,18.9-9.83,9.52-.17,18.8,4.79,21.71,14.24,6.73,17.46-9.89,30.26-26.82,29.49h-.21Z"/>
      <path class="cls-1" d="M140.13,152.99c-10.82-1.06-20.96-11.96-21.6-22.38-.18-6.11,1.58-13.08,6.17-17.31,6.16-5.37,15.86-3.45,21.8,1.39,2.45,2.04,4.71,4.51,4.98,7.66.23,2.25-1.51,4.35-3.84,4.12-3.74-.4-6.48-4.69-10.09-5.75-6.19-2.25-9.96,4.86-9.04,10.72.84,6.29,6.76,9.87,11.91,12.52,4.53,2.28,5.6,8.24-.14,9.03h-.17Z"/>
      <path class="cls-1" d="M350.26,20.42c2.3-2.47,6.79-1.45,7.48,1.92.61,2.52-1.18,5.61-2.53,8.18-1.66,3.04-3.54,6.19-6.27,7.44-4.03,1.77-7.69-1.84-5.84-5.99,1.54-3.67,4.54-8.44,7.02-11.42l.14-.13Z"/>
      <path class="cls-1" d="M351.87,41.75c-1.9-6.43,7.4-7,11.79-8.54,3.49-.87,7.13-2.89,10.77-2.26,3.06.46,4.68,4.26,2.92,6.69-1.11,1.66-3.15,2.48-4.99,3.21-5.17,1.74-16.61,7.28-20.41,1.05l-.07-.15Z"/>
      <path class="cls-1" d="M361.99,51.97c2.64-1.22,6.22-1.11,9.25-1.53,4.02-.23,8.54-1.81,12.41-.53,3.19,1.01,4.08,5.42,1.3,7.36-1.51,1.2-3.69,1.66-5.61,1.96-5.2.6-10.53,1.86-15.76,1.14-4.42-.64-6.06-6.21-1.75-8.33l.17-.08Z"/>
    </g>
  </g>
  <g id="Vector_layer-2" data-name="Vector layer">
    <path class="cls-1" d="M254.33,494.73c-29.02-2.69-77.86,5.23-74.48-37.9,4.37-26.11,7.59-52.62,16.47-77.68,4.34-22.55,3.19-45.82,6.05-68.59-.02-1.58.77-2.81,1.89-3.55.55.3,1.11.58,1.68.85,1.45.68,2.99,1.24,4.55,1.62.29.07.58.13.86.19.98,3.2-.46,7.09-.44,10.38-2.38,19.28-1.46,38.88-4.75,58.03-4.12,15.65-10.11,30.79-11.3,47.11-12.05,54.69-7.68,58.29,47.75,59.98,29.24.64,59.68,5.36,88.12-3.43,17.29-8.98,11.6-29.93,9.62-45.51-1.28-13.63-3.72-27.08-6.66-40.44-.06-.46-.14-.91-.22-1.36-.12-.59-.28-1.17-.47-1.75-.6-2.66-1.22-5.31-1.84-7.96-.02-.11-.04-.22-.06-.34-.25-1.3-.5-2.59-.82-3.88-.16-.62-.33-1.25-.55-1.86-.02-.06-.04-.12-.06-.17-2.86-11.73-5.87-23.43-8.58-35.15-5.97-15.27-12.36-30.35-16.25-46.36-.08-.4-.18-.83-.3-1.29.25-1.7.35-3.39-.17-5.08-.11-.36-.25-.7-.41-1.02.98-.52,1.91-1.14,2.86-1.71,1.37-.82,2.81-1.5,4.2-2.28,3.55,7.47,6.09,25.1,8.62,29.47,8.35,19.06,14.23,38.7,18.07,59.17,4.83,20.28,10.24,40.49,11.72,61.37,3.79,20.93,6.62,47.78-18.61,55.84-13.46,3.61-27.32,4.66-41.23,4.66-11.78,0-23.6-.75-35.25-1.34Z"/>
    <path class="cls-1" d="M150.93,625.16c-8.22-15.23,16.09-30.78,29.48-30.59,8.55-.52,17.37-.43,25.61,2.03-.11-1.53-.3-3.2-.43-4.77-2.24-20.72-2.02-41.64-5.21-62.26-.66-8.72-6.71-39.86-.11-44.61,10.93-1.41,5.9,13.9,7.1,20.36,1.28,21.33,5.77,42.36,5.98,63.8-.69,8.2,5.63,34.34,1.26,38.57,4.6,2.72,3.54,9.59-2.31,9.27-4.76,1.72-8.75,5.14-13.59,6.74-14.67,5.33-36.36,19.27-47.77,1.46ZM188.8,604.18c-4.67.19-9.5-.08-13.95,1.53-5.94,2.3-25.23,16.93-9.58,18.35,15.34-1.82,28.99-11.14,43.08-16.77-6.11-2.55-12.95-3.16-19.55-3.11Z"/>
    <path class="cls-1" d="M290.11,658.37c-10.93-6.65-7.9-22.97-.29-31.1,11.05-9.38,29.04-7.92,42.83-7.91-4.15-23.04-7.74-46.23-11.73-69.3-4.08-17.06-9.21-33.92-12.07-51.24-7.61-5.9,5.86-14.03,8.92-5.68,2.59,21.39,9.97,41.91,14.08,63.04,2.92,20.82,6.87,41.46,10.34,62.19.56,3.03,1.35,6.2.79,9.1,1.11,2.23-.02,4.67-1.94,6.02-12.46,10.7-33.43,31.4-50.93,24.9ZM323.44,628.69c-13.44.9-33.79,1.42-30.11,20.41,7.52,5.32,31.09-14.59,37.5-20.3-2.46-.12-4.92-.2-7.38-.11Z"/>
    <path class="cls-1" d="M83.46,342.08c-21.45-2.56-35.77-24.39-33.08-28.55.97-1.5,4.43-1.07,7.8-.24.95.24,1.74.89,2.17,1.78,1.33,2.8,3.78,6.93,8.12,10.69,4.41,3.81,8.89,5.61,11.68,6.48.33.1.67.15,1.02.14,10.15-.21,22.9-1.48,30.74-8.27.44-.38.77-.88.94-1.44,2.54-8.24-1.02-18.29-6.22-24.85-.12-.15-.25-.29-.39-.42-11.32-10.65-30.49-8.28-41.9,1-4.39,3.76-3.72,10.11-4.61,15.31-.86,5.66-9.21,4.49-9.44-.87.54-4.48.78-9.12,2.14-13.48.17-.54.49-1.04.91-1.42,20.17-18.71,46.96-19.04,59.83-6.35,10.36,10.21,9.15,26.35,8.59,30.92-.07.55-.27,1.08-.59,1.53-9.06,12.6-23.47,19.74-37.7,18.04Z"/>
    <path class="cls-1" d="M23.55,462.15C-6.56,453.05,0,440.82,6.49,415.99c5.93-21.1,8.07-43.22,9.63-65,.49-9.12-3.6-17.87-2.46-26.94,1.32-11.23,14.42-11.44,23.25-11.27,5.24.75,11.8-1.41,16.16,2.17,4.23,4.03-1.84,11.36-6.68,8.67-5.55-2.71-15.72-1.61-21.73.21-4.25,6.64,1.53,15.32,1.03,22.7.38,22.21-3.11,44.75-7.74,66.46-2.52,10.6-6.53,21.57-7.05,32.32,17.25,15.67,45.55,4.9,66.92,6.45,62.13-3.71,57.6,9.62,54.66-57.01-.95-22.83,1.95-45.7.85-68.5-3.88-5.62-14.63-2.82-15.99-10.26,1.91-10.65,18.31.42,23.03,4.16,5.09,5.53,2.93,14.08,3.22,20.96-2.16,33.33.23,66.68-.03,99.94-3.26,27.1-36.05,17.18-54.7,19.66-21.66.73-43.78,4.27-65.31,1.43Z"/>
    <path class="cls-1" d="M55.12,346.29c-6.43-.26-12.89-.92-19.16-.76-4.61-1.25-5.66-9.01-.45-10.15,12.14.29,24.37,1.09,36.56.78,5.55-1.01,14.71,1.4,11.25,8.7-6.57,3.88-20.11.6-28.21,1.42Z"/>
    <path class="cls-1" d="M55.33,369.1c-4.8-.77-6.97-9.01-1.53-10.48,6.54-.68,13.15.25,19.7.47,14.57,1.2,29.36-2.96,43.77-1.53,3.81,1.62,4.42,8.14-.16,9.13-5.96.31-11.95.68-17.92,1.12-14.82,2.56-29.74-.75-43.86,1.3Z"/>
    <path class="cls-1" d="M101.04,387.49c-9-.79-18.05-.36-27.08-.48-7.01-1.28-20.35,4.72-22.51-4.93-.31-4.79,4.58-4.75,8.07-4.67,18.64-1.31,37.37.53,55.89.65,3.58.31,6.31,4.65,4.6,7.92-4.54,4.86-13.04,1.31-18.98,1.51Z"/>
    <path class="cls-1" d="M108.23,408.23c-14.08-1.45-28.17-2.32-42.35-1.59-3.17,2.27-7.48,1.48-8.84-2.6-2.31-6.17,4.9-7.44,9.43-7.12,10.9-.17,21.87-.67,32.7.84,3.65.88,7.74-.01,11.12,1.63,3.85,2.29,2.98,9.19-2.07,8.84Z"/>
    <path class="cls-1" d="M112.39,428.17c-13.92.07-27.82-.58-41.68-1.8-5.76-.95-19.78,1.83-16.47-8.13,5.48-5.39,29.74.89,38.69-.1,7.48.95,16.13-1.47,23.01,1.54,3.79,3.04,1.58,9.48-3.55,8.49Z"/>
    <path class="cls-1" d="M161.86,364.82c-10.96-3.14-20.84-9.94-30.37-15.75-4.27-4.07,1.07-10.44,5.88-7.1,34.1,23.76,36.44,10.34,69.68,13.67,5.92,5.93-1.65,9.61-7.44,8.84-12.56.22-25.31,3.2-37.75.33Z"/>
    <path class="cls-1" d="M333.7,395.75c-.06-.45-.14-.89-.22-1.34-.21-1.07-.59-2.09-.91-3.12-.66-2.27-1.03-4.61-1.46-6.92-.25-1.3-.5-2.59-.82-3.88-.16-.62-.33-1.25-.55-1.86-.19-.54-.43-1.06-.66-1.59-.54-1.25-.98-2.54-1.46-3.8-.5-1.36-1.02-2.71-1.43-4.11-.13-.48-.26-.96-.4-1.44-.1-.79-.17-1.58-.2-2.38-.02-.57-.05-1.13-.09-1.69,1.82,2.33,3.59,4.69,5.27,7.12,5.31,7.81,9.08,16.48,13.15,24.99,0,.62.03,1.24.1,1.86.07.64.2,1.28.33,1.91.17.98.27,1.96.35,2.95.08.98.22,1.96.38,2.94.16,1.02.41,2.01.69,3,.07.81.28,1.58.64,2.3.09.38.18.76.25,1.15-.01-.07-.03-.15-.04-.23.22,1.22.34,2.45.53,3.67.21,1.36.51,2.7.85,4.03,0,.3-.02.6-.03.9-.01.45-.05.92-.03,1.38-4.78-8.6-9.66-17.14-14.22-25.87Z"/>
    <path class="cls-1" d="M372.93,525.24c.21-.17.41-.36.6-.55.14.26.29.51.46.75-.36-.06-.71-.13-1.06-.2Z"/>
    <path class="cls-1" d="M378.63,484.65c-3.51-.39-4.07-3.96-4.69-6.8-2.66-8.5-4.86-17.01-6.18-25.84-5.34-19.66-10.11-39.42-16.76-58.68-3.08-9.27-9.36-16.72-14.9-24.56-6.32-9.75-11.8-20.02-16.07-30.83-3.97-4.91,3.91-11.59,7.75-6.32,4.92,19.34,19.05,34.61,28.76,51.72,6.27,14.98,10.86,30.76,14.37,46.61,4.02,11.74,6.14,23.9,8.82,35.95,1.08,5.43,8.62,18.23-1.11,18.74Z"/>
    <path class="cls-1" d="M379.77,535.9c-11.09-3.23-16.16-15.33-15.24-26.11.24-6.38-.34-45.37,12.28-34.87,1.78-6.92,9.26-2.44,12.1,1.28,5.74,8.79,9.49,19.27,12.36,29.34,3.05,13.4-3.73,37.48-21.49,30.37ZM377.53,478.83c-3.67,8.86-3.77,18.52-3.95,27.97-.06,4.5-.51,9.21,1.39,13.43,1.38,4.39,9.2,10.24,13.3,6.94,7.86-9.21,4.46-22.63-.33-32.5-2.5-6.17-4.35-12.71-10.33-16.35-.02.18-.04.35-.07.52Z"/>
  </g>
</svg>