<?xml version="1.0" encoding="UTF-8"?>
<svg id="Layer_1" data-name="Layer 1" xmlns="http://www.w3.org/2000/svg" viewBox="0 0 360 613">
  <defs>
    <style>
      .cls-1 {
        fill: #000;
        stroke-width: 0px;
      }
    </style>
  </defs>
  <g id="D8dWXI.tif">
    <g>
      <path class="cls-1" d="M360,207c-3.16,13.01-12.43,19.49-24.54,22.66-5.1,1.34-10.2-.15-15.25-1.04-.96-.17-1.93-.36-3.27-.61-1.57,5.34-3.01,10.57-4.65,15.73-10.34,32.67-26.89,61.48-52.73,84.41-9.63,8.55-20.34,15.49-32.04,20.88-1.64.76-3.25,1.57-4.78,2.31,4.53,11.21,8.94,22.12,13.47,33.34,15.84,9.25,29.7,21.2,40.41,36.66,10.61,15.31,17.63,31.94,19.01,49.91,2.2,2.41,4.3,4.12,5.65,6.29,6.29,10.14,11.32,20.85,10.78,33.13-.21,4.72-1.34,9.6-3.06,14.02-2.5,6.44-7.38,10.57-14.92,11.26-9.3-.91-14.91-6.86-17.92-15.44-5.09-14.52-3.56-28.14,6.49-40.3.63-.77,1.27-1.53,1.99-2.39,1.23-7.53-.33-14.87-2.29-22.07-4.09-15.06-11.76-28.22-22.47-39.49-4.68-4.93-9.93-9.32-14.96-13.91-.84-.76-1.9-1.28-3.48-2.33.39,1.72.6,2.78.86,3.82,2.57,10.31,5.58,20.53,7.61,30.94,2.16,11.08,2.12,22.23-3.64,32.52-1.86,3.31-4.22,6.34-6.52,9.74,2.57,7.29,3.17,15.25,3.74,23.18.82,11.44,1.12,22.92,2.11,34.34.56,6.42,1.89,12.8,3.24,19.13.92,4.29,3.21,7.97,6.53,10.99,5.54,5.03,11.02,10.11,16.46,15.25,3.43,3.24,5.93,7.16,7.72,11.53,4.03,9.8,1.13,17.28-8.34,21.53h-6.98c-3.33-1.79-6.87-3.28-9.96-5.42-9.56-6.63-14.35-16.49-16.87-27.41-1.38-5.94-1.52-12.17-2.08-18.28-.27-2.87.09-5.67,2.36-7.54-4.31-23.24-3.45-46.68-6.87-70.45-10.49,5.76-21.28,9.15-32.73,10.27-11.43,1.12-22.71.47-34.15-3.18,4.69,23.73,4.76,47.15,4.81,70.73.82.4,1.5.83,2.24,1.08,2.92.97,4.18,3.29,4.5,6.04.22,1.94-.01,3.99-.36,5.94-1.24,6.97-4.05,13.38-7.6,19.42-5.75,9.77-14.6,14.83-25.69,15.77-5.2.44-10.23-.89-14.77-3.61-6.83-4.1-8.63-12.9-4.14-19.56,2.81-4.17,6.97-6.6,11.13-9.02,2.87-1.67,5.91-3.03,8.85-4.59,1.9-1.01,3.71-2.22,5.63-3.2,7.18-3.68,10.06-9.72,9.76-17.57-.33-8.65-.39-17.31-1.01-25.94-.72-9.93-1.8-19.85-2.97-29.74-.44-3.77-1.56-7.46-2.49-11.75-1.72-1.85-4.1-3.97-5.96-6.49-6.6-8.91-8.04-19.13-6.98-29.88,1.45-14.83,5.81-28.96,10.28-43.07.49-1.55.85-3.14,1.41-5.22-3.85-.76-7.4-1.4-10.91-2.17-20.98-4.59-40.66-12.24-58.02-25.19-3.58-2.67-6.92-5.68-10.55-8.69-7.49,3.84-15.79,4.23-24.03,4.94-7.92.69-15.84,1.44-23.77,1.97-4.45.3-8.46-1.38-12.25-3.59-7.52-4.4-6.85-13.63-.44-17.05,3.94-2.1,7.91-4.15,12.51-6.56-3.9-2.38-7.49-4.56-11.06-6.77-3.72-2.31-7-5.07-9.08-9.36-.06-.58-.22-1.4-.23-2.23-.06-4.96,2-7.46,7.03-7.75,4.64-.27,9.3,0,13.95.02,2.13,0,4.27,0,7.1,0-.23-2.1-.18-3.88-.66-5.5-1.38-4.71-1.73-9.5-1.41-14.34.11-1.63.42-3.32,1.03-4.83,2.33-5.85,7.81-7.44,12.96-3.75,3.85,2.76,6.77,6.43,8.82,10.68,2.3,4.79,4.32,9.73,6.5,14.58,1.63,3.62,3.33,7.2,4.93,10.64,4.25-1.39,7.99-2.76,11.83-3.79,2.05-.55,4.27-.79,6.38-.66,6.76.44,10.84,6.49,9.14,13.1-1.29,5.02-4.3,8.96-7.69,12.66-2.36,2.56-4.85,4.99-7.73,7.93,22.37,20.51,48.55,31.97,78.6,35.95,3.73-11.35,6.17-22.81,8.56-34.72-2.78-.92-5.59-1.76-8.34-2.77-24.8-9.13-43.73-24.86-54.74-49.34-4.04-8.99-6.36-18.56-8.29-28.18-2.87-14.35-4.9-28.82-5.23-43.5-.19-8.46-.78-16.92-1.2-25.79-1.07-.35-2.28-.75-3.5-1.14-9.18-2.88-16.13-8.35-20.16-17.28-5.19-11.54,3.18-22.8,12.21-24.7,4.46-.94,8.92-.49,13.32,1.25.48-5.79.78-11.4,1.44-16.97,1.31-11.05,2.32-22.17,4.34-33.09,3.53-19.1,7.69-38.09,11.65-57.11.84-4.06,1.74-8.13,2.91-12.1,1.67-5.62,3.34-6.49,9.26-5.35,4.01-3.3,7.98-6.84,12.21-10.01,13.42-10.05,28.34-17.25,44.05-22.89,6.88-2.47,13.83-4.69,21.19-5.2.44-.03.85-.44,1.27-.68,6.98,0,13.96,0,20.94,0,1.75.33,3.49.68,5.25.99,20.82,3.68,39.65,11.86,56.3,24.99.98.77,2.09,1.37,3.01,1.96,3.24-2.62,4.1-7.22,8.58-7.69,5.43,2.13,6.13,3.24,5.57,9.03-1.83,2.34-3.73,4.76-5.63,7.18,1.76,1.98,3.17,3.57,4.58,5.16,2.66-1.74,5.12-3.36,7.34-4.81,6.15,1.66,7.3,3.4,6.55,9.63-2.05,1.83-4.26,3.79-6.51,5.8.88,1.72,1.59,3.22,2.41,4.64.8,1.39,1.73,2.7,2.47,3.86,10.3-1.71,11.72-1.07,13.47,5.52-.67,4.98-5.59,4.22-8.36,6.49.28.85.5,1.64.79,2.41,6.46,17.25,9.97,35.11,11.16,53.47.34,5.31,1.05,10.6,1.13,15.91.18,10.96.09,21.93.02,32.89-.02,3.03-.56,6.08.11,9.4,1.54-.79,2.54-1.36,3.59-1.82,10.37-4.54,20.67-2.36,27.82,6.42,2.22,2.73,3.33,6.36,4.96,9.58v5ZM110.29,75.35c-6.51,28.09-10.73,55.82-13.13,83.81-1.24,14.41-1.61,28.9-2.08,43.36-.2,6.13.51,12.29.59,18.44.14,11.82.81,23.59,2.1,35.34,1.69,15.46,4.73,30.57,11.29,44.74,5.9,12.74,14.05,23.8,25.9,31.65,24.25,16.06,50.3,19.88,77.89,10.47,29.18-9.95,50.81-29.48,67.6-54.89,10.72-16.23,18.43-33.85,23.76-52.53,3.43-12,6.1-24.14,6.92-36.65.8-12.27,2.21-24.51,2.66-36.79.34-9.29-.4-18.62-.66-27.93-.39-13.86-2.56-27.47-6.28-40.78-2.18-7.77-3.88-15.86-9.23-22.39-.7-.86-.91-2.12-1.35-3.2-.81-1.98-1.36-4.11-2.47-5.89-2.64-4.21-5.35-8.41-8.39-12.33-7.95-10.22-17.49-18.65-28.9-24.86-19.12-10.41-39.22-15.7-61.2-13.01-16.47,2.01-31.47,7.8-45.72,15.92-11.14,6.34-21.42,13.86-30.32,23.21,3.51,5.39,3.51,5.92.47,12.14-.77,1.58-1.35,3.25-2.05,4.94,4.45,1.16,4.86,1.09,9.19-.18,6.51-1.91,12.91-4.29,19.86-4.2,8.2.1,13.4,3.68,16.17,11.46.83,2.32,1.57,4.68,2.56,7.66,4.14-1.35,8.17-2.29,11.88-3.96,8.32-3.74,16.51-7.78,24.7-11.81,3.88-1.91,7.42-1.6,10.62,1.23,1.98,1.75,3.82,3.68,5.55,5.68,2.34,2.71,5.1,4.2,8.74,3.74,3.61-.46,7.29-.63,10.81-1.47,7.89-1.89,15.7-4.11,23.77-6.26,4.87.98,8.33,4.09,10.76,8.55,2.19,4.03,3.14,8.29,3.26,12.91.13,4.79.37,9.84,4.99,12.94,11.07,7.42,15.84,18.48,17.71,31.08.76,5.17,1.52,9.98,5.68,13.87,3,2.81,2.5,5.18-.49,8.58-2.51.91-4.55-.28-6.42-1.7-2.69-2.04-4.97-4.51-5.95-7.82-1.13-3.81-2.3-7.65-2.99-11.56-1.53-8.63-3.24-16.88-11.24-22.41-7.39-5.11-10.95-12.68-11.8-21.62-.32-3.39-1.01-6.74-1.46-9.71-9.58,2.26-18.65,4.95-27.9,6.45-9.85,1.59-18.88-.54-25.03-9.52-.44-.65-1.15-1.11-1.67-1.6-1.91.76-3.66,1.34-5.3,2.14-5.37,2.62-10.63,5.5-16.08,7.94-4.53,2.03-9.16,3.97-13.93,5.25-7.71,2.07-14.26-1.04-17.9-8.15-1.34-2.62-2.11-5.54-3.39-8.99-1.27-1.32-3.42-1.74-5.86-1.04-3.66,1.05-7.33,2.09-10.99,3.15-2.71.78-5.36,1.85-8.12,2.33-6.48,1.14-12.11-.86-17.08-5.74ZM172.06,357.86c-.4,3.38-.4,5.91-1.02,8.28-3.17,12.22-6.25,24.47-9.84,36.57-4.87,16.42-9.68,32.83-12.18,49.82-1.66,11.33,2.81,21.49,13.35,26.45,6.13,2.89,12.57,4.32,19.19,4.75,13.47.87,26.46-1.49,38.78-7.06,9.09-4.1,15.48-10.79,18.23-20.57,1.88-6.66,2.12-13.51,1.26-20.3-1.35-10.58-4.06-20.87-7.59-30.93-4.02-11.45-8.01-22.92-12.32-34.26-2-5.26-4.72-10.23-7.36-15.87-13.24,3.7-26.66,4.8-40.52,3.12ZM19.78,359.43c.07.35.13.7.2,1.05,1.59,0,3.2.13,4.78-.02,8.73-.85,17.46-1.7,26.18-2.68,4.93-.55,9.85-1.27,14.12-4.23-.61-2.66.5-4.63,2.13-6.4,1.8-1.96,3.71-3.82,5.45-5.83,2.55-2.95,5.31-5.77,7.23-10.58-6.01,2.48-11.12,4.58-16.64,6.85-2.22-1.64-4.75-2.83-6.31-4.81-2.66-3.35-5.01-7.03-6.93-10.86-2.45-4.89-4.26-10.1-6.49-15.11-.8-1.79-1.24-3.95-4.02-5.71.51,3.83.86,6.76,1.29,9.68.41,2.79,1.17,5.55,1.3,8.34.24,5.12-1.65,7.98-6.7,8.93-4.16.79-8.53.55-12.81.61-1.84.03-3.69-.32-5.54-.5,1.69,1.78,3.52,2.88,5.4,3.88,3.08,1.64,6.29,3.05,9.27,4.85,3.61,2.18,6.85,4.79,6.89,9.86-3.62,7.98-12.69,8.17-18.8,12.66ZM293.24,526.06c5-2.95,6.69-5.55,7.71-10.58,1.89-9.38-.2-18.11-4.1-26.56-.65-1.42-1.74-2.63-2.87-4.28-7.33,5.95-11.29,13.08-10.38,21.94.76,7.41,1.7,15.28,9.64,19.48ZM326.64,219.71c.15-.15.3-.31.45-.46,2.06-.46,4.12-.99,6.2-1.37,5.81-1.05,10.55-3.89,14.09-8.6,2.32-3.09,2.2-6.59.71-9.96-1.46-3.3-4.43-4.11-7.8-4.35-4.76-.34-8.75,1.44-12.55,3.99-2.04,1.37-4.09,2.72-6.33,4.22-.41,4.78-2.41,9.64-1.91,14.96,2.67.58,4.91,1.07,7.15,1.56ZM246.46,569.71c.8,9.6,2.96,17.48,8.02,24.39,2.19,2.98,4.75,5.58,8.22,7.05,2.35,1,4.73,1.52,7.16-.5,1.02-5.15-.87-9.46-4.45-12.99-5.9-5.82-12.02-11.41-18.94-17.95ZM162.41,575.69c-6.86,3.85-13.49,7.54-20.07,11.3-2.59,1.48-5.16,3.02-7.57,4.77-1.71,1.24-3.5,2.7-2.61,5.95,1.41.33,3.09.94,4.8,1.07,11.74.94,21.86-7.99,25.44-23.1ZM79.99,173.04c-1.5.4-2.14.56-2.77.73-4.02,1.09-6.77,3.34-7.26,7.77-.51,4.57,1.54,7.74,5.45,9.7,2.76,1.38,5.7,2.42,9.2,3.87.42-6.42.79-12.15,1.17-17.99-2.17-1.53-4.01-2.83-5.78-4.08Z"/>
      <path class="cls-1" d="M158.31,287.22c-4.41-4.02-4.5-4.41-2.33-8.93,3.48-1.7,7.4-2.02,11.35-2.44,27.96-2.96,53.3-11.77,72.78-33.35,2.33-2.58,4.65-4.86,8.48-3.28,3.69,4.1,3.82,6.12.5,9.85-13.94,15.68-31.05,26.31-51.2,31.97-11.65,3.28-23.51,5.47-35.62,6.17-1.31.08-2.64.01-3.98.01Z"/>
      <path class="cls-1" d="M169.61,171.78c-.79,5.1-3.69,8.82-6.01,12.81-1.58,2.72-3.29,5.38-4.67,8.2-.77,1.58-.99,3.43-1.38,4.89,1.53,2.2,3.28,1.98,5.15,1.71,6.23-.9,7.81.13,9.75,6.16-.4,2.96-2.36,4.34-5.07,4.55-2.76.21-5.6.42-8.32.03-9.23-1.32-13.24-7.51-11.28-17.34.51-2.57,1.46-5.15,2.71-7.46,2.75-5.1,5.81-10.04,8.76-15.03,1.23-2.08,2.72-3.88,5.46-3.56,2.85.33,4.35,2.13,4.91,5.02Z"/>
      <path class="cls-1" d="M214.17,175.89c-9.38.42-13.55-3.17-11.56-8.94,4.34-3.66,8.2-3.78,11.77-.36,2.72,2.61,2.7,5.48-.21,9.3Z"/>
      <path class="cls-1" d="M131.78,158.49c1.55-3.85,3.23-5.14,5.87-4.52,2.67.63,4.66,3.74,4.43,6.92-.19,2.63-1.49,4.06-3.88,4.28-3.32.31-4.84-1.28-6.41-6.69Z"/>
    </g>
  </g>
</svg>