<?xml version="1.0" encoding="UTF-8"?>
<svg id="Layer_2" data-name="Layer 2" xmlns="http://www.w3.org/2000/svg" version="1.1" viewBox="0 0 805 805">
  <defs>
    <style>
      .cls-1 {
        fill: #000;
        stroke: #000;
        stroke-miterlimit: 10;
        stroke-width: 2px;
      }
    </style>
  </defs>
  <path class="cls-1" d="M586.4,718.9c-19.8,5.2-41.3,4.3-61.2,9.5-50.1,6.1-136.6,17.6-180.7-8.2-32.3-26.2-76.1-34.1-104.3-65.7-33.7-39.6-71-77.8-96.6-123.3-15.1-44-37.3-86.4-41.5-133.4-.7-32.5-6.8-65.8-1.9-98,9.1-27.9,19.2-55.7,29.7-83.1,15.3-33.1,46.2-53.7,72-78.1,47.7-34.8,111.6-49.8,169.8-39.9,22.9,2.6,46.8,2.9,67.6,13.8,8.1,4,16,8.3,24.2,12-2,.8-4,1.5-6,2.4-.8.3-1.5.7-2.2,1.1-2,.6-3.8,1.5-5.5,2.8-.5.4-1.1.9-1.6,1.3-2.1,1.4-4.2,2.8-6.1,4.3-1.4,1.1-2.8,2-4.2,3.1-10.5-5.3-21.2-10.1-32.9-12.2-38.1-4.2-77-13.2-114.6-3.3-2.6.7-5,1.4-7.6,2.2-34.2,7-65.6,22.3-89.6,48-23.1,17.9-44.5,40-52.4,69-6.6,24.4-20.2,46.8-23.1,72.1,2.3,34.8.9,70.1,7.8,104.4,3.7,23.3,15.1,44.2,23.1,66.2,8,34.5,28.3,62.8,50.8,89.3,30.2,33.7,55.2,75.6,98.4,94.1,23.2,8.6,43.3,22.3,64.1,35.3,48.8,16.4,103,7.5,153.3,3,10.8-3.1,22.5-4.2,34-5.4,19.8-2,39.6-3.9,55.9-15.4,30.9-18.1,52-45.9,66.9-78.1,10.9-20.3,21-41.5,23.7-64.6,6.7-59.2-20.8-114.7-49.5-164.6-10.8-21.3-26.9-39-39.8-58.9-9.1-15.7-13.9-33.3-20.3-50.2-9.5-10.3-12.5-26.2-20-38.3-6-9.6-13-18.8-20.8-27.3-1.2-3.4-3.5-5.9-6.4-7.9h0c.2.2.4.3.6.4-.2-.2-.4-.3-.6-.4h-.4c-.2-.2-.3-.3-.5-.3,0,0,.3.2.3.3-.9-.6-1.7-1-2.6-1.4-8.8-8.3-18.3-15.9-28.4-22.5,1.4-.2,2.7-.3,4.1-.4,3.3-.2,6.7-.2,10.1,0,1.3,0,2.6.2,3.8,0,2,0,3.8-.3,5.8-.4,1.7,0,3.5-.2,5.2,0h1.9c1.6.3,3.4.3,5.1.3s2.5,0,3.7-.3c20.6,18.8,37.4,41.7,48.1,67.5,12.4,18.6,14.8,42.8,25.6,62.8,29.9,43.3,60.6,86.7,79.1,136.5,23.5,55.1,24.2,120.3-7,172.6-18.8,42.4-46.3,76.4-86.9,99.7-6.1,3.6-12.6,6-19.2,7.7h0l-.3.2v-.3Z"/>
  <path class="cls-1" d="M538.9,197h0Z"/>
  <path class="cls-1" d="M538.6,196.9s-.2,0-.2-.2c0,0,.2,0,.2.2h0Z"/>
  <path class="cls-1" d="M440.2,138.1c.3,0,.4-.3.6-.3h-.3c-.2.2-.3.3-.4.3h0Z"/>
  <path class="cls-1" d="M380.6,429.7c-.9.3-1.7.3-2.6.3-2.6,0-5.1-1.2-6.8-3.2-3.7-4-3.3-10.4.6-14.1s10.2-3.5,13.9.4c1.8,2,2.7,4.5,2.6,7.2,0,2.7-1.4,4.9-3.2,6.9-1.4,1.1-2.8,2-4.4,2.4h-.1Z"/>
  <path class="cls-1" d="M477.3,446.8c-10.4,2.7-15.3-12.4-7.6-19,5.5-4.3,13.5-4.7,18.2-10.4-14.6-24.4-26.3-11.2-28.5-26.4.6-43.9,93.6,31.7,19.4,55.3-.5.3-1,.4-1.5.5h0Z"/>
  <path class="cls-1" d="M536.7,572.9c-78.7,13.3-187.4,40.2-244.6-32.5-4.5-7.9,3.5-19.7,12.6-16.4,7.6,4.4,10.5,14.2,18.6,18.5,25.8,16.9,57.3,23.8,87.8,25.3,45.7-5.5,120.4-5.2,156.6-33,5.4-7.1,16.5-3.6,16.9,5.3-2.1,19.3-32.1,26.8-47.9,32.9h0Z"/>
  <path class="cls-1" d="M128,447.8c-.9.3-2,.5-3,.7-17,3.9-16.4-26.3-.5-26.7,21.1-4.9,33.1-24.2,42.8-42,16.9-24.2,39.9-43.5,55.8-68.7,19.3-25.8,47.4-42.1,73.6-59.9,37.5-23.8,77.9-42.5,120.9-53.7,11.8-3.1,23.6-7.4,35.3-11.8,8-3,16-6,24-8.5,2-.3,4.2-.5,6.2-.8,6.3-.8,12.5-1.4,18.7-2.6-.6,0-1.2.3-1.7.3,3.7-.8,7.4-1.2,11.2-1.5,3.3-.2,6.7-.2,10.1,0,1.3,0,2.6.2,3.8,0,2,0,3.8-.3,5.8-.4,1.7,0,3.3-.2,5,0,8.3,4.9,10.1,18.7,2.6,24.9-.2,0-.3-.3-.5-.3.2,0,.3.3.5.3-2.8-1.9-5.7-2.8-9.2-3.1-.9,0-1.6,0-2.4.2-.5,0-1-.3-1.5-.3-2.8-.5-5.5,0-7.9,1.3-5.5,0-11,.8-16.4,1.7-42.5,11.2-83.6,28-126,40.2-38.2,16.6-73.9,38.4-107.8,62.5-32.7,24.6-51.4,62.3-80.8,90.5-14,24.3-29.7,50.5-58.4,58h-.2v-.3Z"/>
  <path class="cls-1" d="M111.1,450.5c-2.5.7-5.1.2-7.2-1.3-4.9-3.3-5.9-10.3-3.2-15.2,2.6-4.9,8.7-7.1,13.5-3.8,2.3,1.5,3.8,4.1,4.4,6.8.6,3,0,5.7-1.2,8.4-1.4,2.4-3.3,4.3-6,5.1h-.3Z"/>
  <path class="cls-1" d="M342.2,248.7c-4.4,1.2-8.9-2.1-10.5-6.5-3.9-9.1,2.9-16.7,7.9-23.6,12.4-15.2,18.6-34.2,31-49.3,13.6-15.8,31.3-27.3,47.2-40.6,15.8-14.2,32.6-27.5,53.1-34.2,58.6-24.3,122.7-33.1,185.1-19.1,44.5,15.3,70.4,28,18.1,60.7-14,10.1-31,14.5-45.7,23.3-14.4,9.6-29.8,17.4-46.5,22.2-8.6,3.1-17.6,5.6-25.4,10.5-9.2,3.3-15.4-8.5-11.4-16,10.3-13.2,30.7-13.8,45.3-20.9,21.5-9.2,40.1-23.9,62.3-32.1,6.7-3.7,16.8-9.1,20.2-14.5-24.1-13.2-52.3-12.5-79-13.7-41.4-3.7-81.6,10.9-120.1,25-1,.3-2,.6-3,1.1-.8.3-1.5.6-2.3.9-1.9.9-3.7,1.8-5.6,2.7-1.7.7-3.5,1.3-5.2,2-.8.3-1.5.7-2.2,1.1-2,.6-3.8,1.5-5.5,2.8-.6.4-1.1.9-1.6,1.3-2.1,1.4-4.2,2.8-6.1,4.3-2.7,2.2-6,3.8-7.8,7.1-.2.3-.3.7-.5,1.1-13.5,11-26.3,23.2-40.1,33.5-22.2,19-28.5,50.4-50,70.2-.5.3-1,.4-1.6.6h0Z"/>
  <path class="cls-1" d="M440.2,138.1c.3,0,.4-.2.6-.3h-.3c-.2.2-.3.3-.4.3h0Z"/>
  <path class="cls-1" d="M173.9,196.4c-44.6,8.9-67.5-35.9-34.5-66.5,15.2-11.6,41.7-20.9,55.4-2.6,8.8,9.5,15.2,43.8-6.9,34.3-4.3-3.6-4.1-10.1-6.1-14.8-5.8-11.6-22.3-2.3-30.2,2.5-21.5,16.4,5.4,24.7,21,22.4,11.6,1.9,11.2,20.4,1.4,24.8h0Z"/>
  <path class="cls-1" d="M145.6,620.3c-40.1,10.5-71.6-47.5-50.8-80.2,7.1-13.5,20-24.7,35.6-26.1,12.3-.3,35.2-2.8,36.7,14,2.2,10.8-12.9,17.4-18.4,7.3-1.4-3.1-7.3-1.5-10.3-2.1-28.7-1.9-40.1,38.7-21.1,57,5.5,5.4,11.8,14.1,20.4,11.8,12.7-3.5,29.4-7,35.2-20.3,1.9-5.7,3.8-13,11.2-12.9,15.8,1.2,8.6,19.8,2.9,28.1-9,13.1-25,18.5-39.5,22.9-.6.2-1.2.3-1.8.5h0Z"/>
  <path class="cls-1" d="M660.5,365.5c-11.1,2.9-16.9-12.4-7.2-18.7,16.1-10.6,19.6-24,8.9-40.5-13.2-15.8-19.8-10.7-29.4,4.6-5.8,6.2-16.9,1.7-16.8-6.8,10.9-31.6,41.7-37.1,62.2-9.1,18.2,26.6,10.1,53.7-16.6,70.1-.3.2-.7.3-1.1.3h0Z"/>
  <path class="cls-1" d="M586.4,718.8c-19.8,5.2-41.3,4.3-61.2,9.5-50.1,6.1-136.6,17.6-180.7-8.2-32.3-26.2-76.1-34.1-104.3-65.7-33.7-39.6-71-77.8-96.6-123.3-15.1-44-37.3-86.4-41.5-133.4-.7-32.5-6.8-65.8-1.9-98,9.1-27.9,19.2-55.7,29.7-83.1,15.3-33.1,46.2-53.7,72-78.1,47.7-34.8,111.6-49.8,169.8-39.9,22.9,2.6,46.8,2.9,67.6,13.8,8.1,4,16,8.3,24.2,12-2,.8-4,1.5-6,2.4-.8.3-1.5.7-2.2,1.1-2,.6-3.8,1.5-5.5,2.8-.5.4-1.1.9-1.6,1.3-2.1,1.4-4.2,2.8-6.1,4.3-1.4,1.1-2.8,2-4.2,3.1-10.5-5.3-21.2-10.1-32.9-12.2-38.1-4.2-77-13.2-114.6-3.3-2.6.7-5,1.4-7.6,2.2-34.2,7-65.6,22.3-89.6,48-23.1,17.9-44.5,40-52.4,69-6.6,24.4-20.2,46.8-23.1,72.1,2.3,34.8.9,70.1,7.8,104.4,3.7,23.3,15.1,44.2,23.1,66.2,8,34.5,28.3,62.8,50.8,89.3,30.2,33.7,55.2,75.6,98.4,94.1,23.2,8.6,43.3,22.3,64.1,35.3,48.8,16.4,103,7.5,153.3,3,10.8-3.1,22.5-4.2,34-5.4,19.8-2,39.6-3.9,55.9-15.4,30.9-18.1,52-45.9,66.9-78.1,10.9-20.3,21-41.5,23.7-64.6,6.7-59.2-20.8-114.7-49.5-164.6-10.8-21.3-26.9-39-39.8-58.9-9.1-15.7-13.9-33.3-20.3-50.2-9.5-10.3-12.5-26.2-20-38.3-6-9.6-13-18.8-20.8-27.3-1.2-3.4-3.5-5.9-6.4-7.9h0c.2.2.4.3.6.4-.2-.2-.4-.3-.6-.4h-.4c-.2,0-.3-.3-.4-.3.2,0,.3.2.4.3-.9-.6-1.8-1.1-2.7-1.4-8.8-8.3-18.3-15.9-28.4-22.5,1.4-.2,2.7-.3,4.1-.4,3.3-.2,6.7-.2,10.1,0,1.3,0,2.6.2,3.8,0,2,0,3.8-.3,5.8-.4,1.7,0,3.5-.2,5.2,0h1.9c1.6.3,3.4.3,5.1.3s2.5,0,3.7-.3c20.6,18.8,37.4,41.7,48.1,67.5,12.4,18.6,14.8,42.8,25.6,62.8,29.9,43.3,60.6,86.7,79.1,136.5,23.5,55.1,24.2,120.3-7,172.6-18.8,42.4-46.3,76.4-86.9,99.7-6.1,3.6-12.6,6-19.2,7.7h0l-.3.2v-.3Z"/>
  <path class="cls-1" d="M538.6,196.9h-.2.2Z"/>
  <path class="cls-1" d="M440.2,138.1c.3,0,.4-.3.6-.3h-.3c-.2.2-.3.3-.4.3h0Z"/>
  <path class="cls-1" d="M380.6,429.7c-.9.3-1.7.3-2.6.3-2.6,0-5.1-1.2-6.8-3.2-3.7-4-3.3-10.4.6-14.1s10.2-3.5,13.9.4c1.8,2,2.7,4.5,2.6,7.2,0,2.7-1.4,4.9-3.2,6.9-1.4,1.1-2.8,2-4.4,2.4h-.1Z"/>
  <path class="cls-1" d="M477.3,446.8c-10.4,2.7-15.3-12.4-7.6-19,5.5-4.3,13.5-4.7,18.2-10.4-14.6-24.4-26.3-11.2-28.5-26.4.6-43.9,93.6,31.7,19.4,55.3-.5.3-1,.4-1.5.5h0Z"/>
  <path class="cls-1" d="M536.7,572.9c-78.7,13.3-187.4,40.2-244.6-32.5-4.5-7.9,3.5-19.7,12.6-16.4,7.6,4.4,10.5,14.2,18.6,18.5,25.8,16.9,57.3,23.8,87.8,25.3,45.7-5.5,120.4-5.2,156.6-33,5.4-7.1,16.5-3.6,16.9,5.3-2.1,19.3-32.1,26.8-47.9,32.9h0Z"/>
  <path class="cls-1" d="M128,447.8c-.9.3-2,.5-3,.7-17,3.9-16.4-26.3-.5-26.7,21.1-4.9,33.1-24.2,42.8-42,16.9-24.2,39.9-43.5,55.8-68.7,19.3-25.8,47.4-42.1,73.6-59.9,37.5-23.8,77.9-42.5,120.9-53.7,11.8-3.1,23.6-7.4,35.3-11.8,8-3,16-6,24-8.5,2-.3,4.2-.5,6.2-.8,6.3-.8,12.5-1.4,18.7-2.6-.6,0-1.2.3-1.7.3,3.7-.8,7.4-1.2,11.2-1.5,3.3-.2,6.7-.2,10.1,0,1.3,0,2.6.2,3.8,0,2,0,3.8-.3,5.8-.4,1.7,0,3.3-.2,5,0,8.3,4.9,10.1,18.7,2.6,24.9-.2,0-.3-.3-.5-.3.2,0,.3.3.5.3-2.8-1.9-5.7-2.8-9.2-3.1-.9,0-1.6,0-2.4.2-.5,0-1-.3-1.5-.3-2.8-.5-5.5,0-7.9,1.3-5.5,0-11,.8-16.4,1.7-42.5,11.2-83.6,28-126,40.2-38.2,16.6-73.9,38.4-107.8,62.5-32.7,24.6-51.4,62.3-80.8,90.5-14,24.3-29.7,50.5-58.4,58h-.2v-.3Z"/>
  <path class="cls-1" d="M111.1,450.5c-2.5.7-5.1.2-7.2-1.3-4.9-3.3-5.9-10.3-3.2-15.2,2.6-4.9,8.7-7.1,13.5-3.8,2.3,1.5,3.8,4.1,4.4,6.8.6,3,0,5.7-1.2,8.4-1.4,2.4-3.3,4.3-6,5.1h-.3Z"/>
  <path class="cls-1" d="M342.2,248.7c-4.4,1.2-8.9-2.1-10.5-6.5-3.9-9.1,2.9-16.7,7.9-23.6,12.4-15.2,18.6-34.2,31-49.3,13.6-15.8,31.3-27.3,47.2-40.6,15.8-14.2,32.6-27.5,53.1-34.2,58.6-24.3,122.7-33.1,185.1-19.1,44.5,15.3,70.4,28,18.1,60.7-14,10.1-31,14.5-45.7,23.3-14.4,9.6-29.8,17.4-46.5,22.2-8.6,3.1-17.6,5.6-25.4,10.5-9.2,3.3-15.4-8.5-11.4-16,10.3-13.2,30.7-13.8,45.3-20.9,21.5-9.2,40.1-23.9,62.3-32.1,6.7-3.7,16.8-9.1,20.2-14.5-24.1-13.2-52.3-12.5-79-13.7-41.4-3.7-81.6,10.9-120.1,25-1,.3-2,.6-3,1.1-.8.3-1.5.6-2.3.9-1.9.9-3.7,1.8-5.6,2.7-1.7.7-3.5,1.3-5.2,2-.8.3-1.5.7-2.2,1.1-2,.6-3.8,1.5-5.5,2.8-.6.4-1.1.9-1.6,1.3-2.1,1.4-4.2,2.8-6.1,4.3-2.7,2.2-6,3.8-7.8,7.1-.2.3-.3.7-.5,1.1-13.5,11-26.3,23.2-40.1,33.5-22.2,19-28.5,50.4-50,70.2-.5.3-1,.5-1.6.6h0Z"/>
  <path class="cls-1" d="M440.2,138.1c.3,0,.4-.2.6-.3h-.3c-.2.2-.3.3-.4.3h0Z"/>
  <path class="cls-1" d="M173.9,196.4c-44.6,8.9-67.5-35.9-34.5-66.5,15.2-11.6,41.7-20.9,55.4-2.6,8.8,9.5,15.2,43.8-6.9,34.3-4.3-3.6-4.1-10.1-6.1-14.8-5.8-11.6-22.3-2.3-30.2,2.5-21.5,16.4,5.4,24.7,21,22.4,11.6,1.9,11.2,20.4,1.4,24.8h0Z"/>
  <path class="cls-1" d="M145.6,620.3c-40.1,10.5-71.7-47.5-50.8-80.2,7.1-13.5,20-24.7,35.6-26.1,12.3-.3,35.2-2.8,36.7,14,2.2,10.9-12.9,17.4-18.4,7.3-1.4-3.1-7.3-1.5-10.3-2.1-28.7-1.9-40.1,38.7-21.1,57,5.5,5.4,11.8,14.1,20.4,11.8,12.7-3.5,29.4-7,35.2-20.3,1.9-5.7,3.8-13,11.2-12.9,15.8,1.2,8.6,19.8,2.9,28.1-9,13.1-25,18.5-39.5,22.9-.6.2-1.2.3-1.8.5h0Z"/>
  <path class="cls-1" d="M660.5,365.5c-11.1,2.9-16.9-12.4-7.2-18.7,16.1-10.6,19.6-24,8.9-40.5-13.2-15.8-19.8-10.7-29.4,4.6-5.8,6.2-16.9,1.7-16.8-6.8,10.9-31.6,41.7-37.1,62.2-9.1,18.2,26.6,10.1,53.7-16.6,70.1-.3.2-.7.3-1.1.3h0Z"/>
  <path class="cls-1" d="M530.1,349.7c-.9.3-1.7.3-2.6.3-2.6,0-5.1-1.2-6.8-3.2-3.7-4-3.3-10.4.6-14.1,3.9-3.7,10.2-3.5,13.9.4,1.8,2,2.7,4.5,2.6,7.2,0,2.7-1.4,4.9-3.2,6.9-1.4,1.1-2.8,2-4.4,2.4h0Z"/>
</svg>