<?xml version="1.0" encoding="UTF-8"?>
<svg id="Layer_2" data-name="Layer 2" xmlns="http://www.w3.org/2000/svg" version="1.1" viewBox="0 0 805 805">
  <defs>
    <style>
      .cls-1 {
        fill: #000;
        stroke: #000;
        stroke-miterlimit: 10;
        stroke-width: 2px;
      }
    </style>
  </defs>
  <path class="cls-1" d="M617.5,775.8c-23.2,6.1-48.5,5.1-71.8,11.1-58.8,7.2-160.4,20.7-212.1-9.6-37.9-30.8-89.4-40-122.5-77.1-39.6-46.5-83.3-91.4-113.4-144.8-17.7-51.7-43.8-101.4-48.7-156.6-.8-38.1-8-77.2-2.2-115,10.7-32.8,22.6-65.4,34.9-97.6,18-38.9,54.3-63.1,84.5-91.7,56-40.9,131-58.5,199.4-46.9,26.9,3.1,54.9,3.4,79.4,16.2,9.5,4.7,18.8,9.8,28.4,14.1-2.4.9-4.7,1.8-7,2.8-.9.4-1.8.8-2.6,1.3-2.3.7-4.5,1.8-6.5,3.3-.6.5-1.3,1-1.9,1.5-2.5,1.6-4.9,3.3-7.2,5.1-1.6,1.3-3.3,2.4-4.9,3.6-12.3-6.2-24.9-11.8-38.6-14.3-44.7-4.9-90.4-15.5-134.6-3.9-3,.8-5.9,1.6-8.9,2.6-40.2,8.2-77,26.2-105.2,56.3-27.1,21-52.2,47-61.5,81-7.7,28.6-23.7,55-27.1,84.6,2.7,40.8,1.1,82.3,9.2,122.6,4.3,27.4,17.7,51.9,27.1,77.7,9.4,40.5,33.2,73.7,59.6,104.9,35.5,39.6,64.8,88.8,115.5,110.5,27.2,10.1,50.8,26.2,75.2,41.5,57.3,19.2,120.9,8.8,180,3.5,12.7-3.6,26.4-4.9,39.9-6.3,23.2-2.3,46.5-4.6,65.6-18.1,36.3-21.2,61.1-53.9,78.5-91.7,12.8-23.8,24.7-48.7,27.8-75.8,7.9-69.5-24.4-134.7-58.1-193.3-12.7-25-31.6-45.8-46.7-69.1-10.7-18.4-16.3-39.1-23.8-58.9-11.1-12.1-14.7-30.8-23.5-45-7.1-11.3-15.3-22.1-24.4-32.1-1.4-4-4.1-6.9-7.5-9.3h0c.2.2.5.4.7.5-.2-.2-.5-.3-.7-.5,0,0,0,0,0,0h0c0,0-.1,0-.2-.1,0,0-.1,0-.2-.1h0c-.2-.2-.4-.3-.6-.4.1.1.3.2.4.3-1-.7-2-1.2-3.1-1.7-10.3-9.8-21.5-18.7-33.4-26.4,1.6-.2,3.2-.3,4.8-.5,3.9-.2,7.9-.2,11.8,0,1.5.1,3,.2,4.5.1,2.3-.1,4.5-.3,6.8-.5,2-.1,4.1-.2,6.1-.1.7,0,1.5,0,2.2.1,1.9.4,4,.4,6,.4,1.4,0,2.9-.1,4.3-.4,24.2,22.1,43.9,49,56.5,79.3,14.5,21.8,17.4,50.3,30,73.7,35.1,50.8,71.1,101.8,92.9,160.3,27.6,64.7,28.4,141.2-8.2,202.6-22.1,49.8-54.4,89.7-102,117.1-7.2,4.2-14.8,7-22.6,9h0Z"/>
  <path class="cls-1" d="M561.7,163.1h0Z"/>
  <path class="cls-1" d="M561.3,162.9s-.2-.1-.2-.2c0,0,.2.1.2.2h0Z"/>
  <path class="cls-1" d="M445.8,93.9c.3-.1.5-.3.7-.4h-.3c-.2.2-.3.3-.5.4h0Z"/>
  <path class="cls-1" d="M375.8,436.3c-1,.3-2,.4-3.1.3-3-.1-6-1.4-8-3.7-4.3-4.7-3.9-12.2.7-16.5,4.6-4.3,12-4.1,16.3.5,2.1,2.3,3.2,5.3,3,8.4-.1,3.2-1.6,5.8-3.7,8.1-1.6,1.3-3.3,2.3-5.2,2.8h0Z"/>
  <path class="cls-1" d="M489.4,456.3c-12.2,3.2-18-14.5-8.9-22.3,6.5-5,15.9-5.5,21.4-12.2-17.2-28.6-30.9-13.1-33.5-31,.7-51.6,109.9,37.2,22.8,64.9-.6.3-1.2.5-1.8.6h0Z"/>
  <path class="cls-1" d="M559.1,604.4c-92.4,15.6-220,47.2-287.2-38.1-5.3-9.3,4.1-23.1,14.8-19.3,8.9,5.2,12.3,16.7,21.8,21.7,30.3,19.9,67.3,27.9,103.1,29.7,53.6-6.4,141.4-6.1,183.8-38.8,6.3-8.3,19.4-4.2,19.9,6.2-2.5,22.7-37.7,31.5-56.2,38.6h0Z"/>
  <path class="cls-1" d="M79.3,457.5c-1.1.3-2.3.6-3.5.8-20,4.6-19.2-30.9-.6-31.4,24.8-5.8,38.9-28.4,50.3-49.3,19.9-28.4,46.9-51.1,65.5-80.7,22.7-30.3,55.6-49.4,86.4-70.3,44-28,91.5-49.9,142-63.1,13.9-3.6,27.7-8.7,41.5-13.9,9.4-3.5,18.8-7,28.2-10,2.4-.3,4.9-.6,7.3-.9,7.4-.9,14.7-1.7,21.9-3.1-.7.1-1.4.3-2,.4,4.3-.9,8.7-1.4,13.1-1.8,3.9-.2,7.9-.2,11.8,0,1.5.1,3,.2,4.5.1,2.3-.1,4.5-.3,6.8-.5,2-.1,3.9-.2,5.9-.1,9.8,5.7,11.8,21.9,3,29.2-.2-.1-.4-.3-.6-.4.2.1.4.3.6.4-3.3-2.2-6.7-3.3-10.8-3.6-1,0-1.9,0-2.8.2-.6-.1-1.2-.3-1.8-.4-3.3-.6-6.5,0-9.3,1.5-6.4,0-12.9.9-19.2,2-49.9,13.2-98.1,32.9-147.9,47.2-44.9,19.5-86.8,45.1-126.6,73.4-38.4,28.9-60.3,73.2-94.9,106.2-16.4,28.5-34.9,59.3-68.6,68.1h0Z"/>
  <path class="cls-1" d="M59.4,460.7c-2.9.8-6,.2-8.5-1.5-5.7-3.9-6.9-12.1-3.8-17.9,3.1-5.7,10.2-8.3,15.8-4.5,2.7,1.8,4.5,4.8,5.2,8,.7,3.5,0,6.7-1.4,9.9-1.7,2.8-3.9,5-7.1,6h-.2Z"/>
  <path class="cls-1" d="M330.7,223.8c-5.2,1.4-10.5-2.5-12.3-7.6-4.6-10.7,3.4-19.6,9.3-27.7,14.5-17.9,21.8-40.2,36.4-57.9,16-18.5,36.7-32.1,55.4-47.7,18.5-16.7,38.3-32.3,62.3-40.2,68.8-28.5,144.1-38.9,217.3-22.4,52.2,18,82.6,32.9,21.3,71.3-16.4,11.9-36.4,17-53.7,27.4-16.9,11.3-35,20.4-54.6,26.1-10.1,3.6-20.7,6.6-29.8,12.3-10.8,3.9-18.1-10-13.4-18.8,12.1-15.5,36.1-16.2,53.2-24.5,25.3-10.8,47.1-28.1,73.1-37.7,7.9-4.3,19.7-10.7,23.7-17-28.3-15.5-61.4-14.7-92.7-16.1-48.6-4.3-95.8,12.8-141,29.4-1.2.3-2.4.7-3.5,1.3-.9.3-1.8.7-2.7,1-2.2,1-4.4,2.1-6.6,3.2-2,.8-4.1,1.5-6.1,2.4-.9.4-1.8.8-2.6,1.3-2.3.7-4.5,1.8-6.5,3.3-.7.5-1.3,1-1.9,1.5-2.5,1.6-4.9,3.3-7.2,5.1-3.2,2.6-7.1,4.5-9.1,8.3-.2.4-.4.8-.6,1.3-15.9,12.9-30.9,27.2-47.1,39.3-26.1,22.3-33.5,59.2-58.7,82.4-.6.3-1.2.5-1.9.7h0Z"/>
  <path class="cls-1" d="M445.8,93.9c.3-.1.5-.2.7-.4h-.3c-.2.2-.3.3-.5.4h0Z"/>
  <path class="cls-1" d="M133.1,162.3c-52.4,10.4-79.3-42.1-40.5-78.1,17.9-13.6,48.9-24.5,65.1-3.1,10.3,11.1,17.8,51.4-8.1,40.3-5-4.2-4.8-11.8-7.2-17.4-6.8-13.6-26.2-2.7-35.5,2.9-25.2,19.3,6.3,29,24.6,26.3,13.6,2.2,13.1,24,1.7,29.1h0Z"/>
  <path class="cls-1" d="M99.9,660c-47.1,12.3-84.1-55.8-59.7-94.2,8.3-15.9,23.5-29,41.8-30.7,14.4-.3,41.3-3.3,43.1,16.4,2.6,12.7-15.1,20.4-21.6,8.6-1.6-3.6-8.6-1.8-12.1-2.5-33.7-2.2-47.1,45.4-24.8,66.9,6.4,6.3,13.8,16.5,24,13.9,14.9-4.1,34.5-8.2,41.3-23.8,2.2-6.7,4.5-15.3,13.1-15.1,18.5,1.4,10.1,23.2,3.4,33-10.6,15.4-29.3,21.7-46.4,26.9-.7.2-1.4.4-2.1.6h0Z"/>
  <path class="cls-1" d="M704.4,360.9c-13,3.4-19.8-14.6-8.4-22,18.9-12.5,23-28.2,10.4-47.5-15.5-18.5-23.2-12.6-34.5,5.4-6.8,7.3-19.8,2-19.7-8,12.8-37.1,49-43.6,73-10.7,21.4,31.2,11.8,63.1-19.5,82.3-.4.2-.8.3-1.3.4h0Z"/>
  <path class="cls-1" d="M617.5,775.7c-23.2,6.1-48.5,5.1-71.8,11.1-58.8,7.2-160.4,20.7-212.1-9.6-37.9-30.8-89.4-40-122.5-77.1-39.6-46.5-83.3-91.4-113.4-144.8-17.7-51.7-43.8-101.4-48.7-156.6-.8-38.1-8-77.2-2.2-115,10.7-32.8,22.6-65.4,34.9-97.6,18-38.9,54.3-63.1,84.5-91.7,56-40.9,131-58.5,199.4-46.9,26.9,3.1,54.9,3.4,79.4,16.2,9.5,4.7,18.8,9.8,28.4,14.1-2.4.9-4.7,1.8-7,2.8-.9.4-1.8.8-2.6,1.3-2.3.7-4.5,1.8-6.5,3.3-.6.5-1.3,1-1.9,1.5-2.5,1.6-4.9,3.3-7.2,5.1-1.6,1.3-3.3,2.4-4.9,3.6-12.3-6.2-24.9-11.8-38.6-14.3-44.7-4.9-90.4-15.5-134.6-3.9-3,.8-5.9,1.6-8.9,2.6-40.2,8.2-77,26.2-105.2,56.3-27.1,21-52.2,47-61.5,81-7.7,28.6-23.7,55-27.1,84.6,2.7,40.8,1.1,82.3,9.2,122.6,4.3,27.4,17.7,51.9,27.1,77.7,9.4,40.5,33.2,73.7,59.6,104.9,35.5,39.6,64.8,88.8,115.5,110.5,27.2,10.1,50.8,26.2,75.2,41.5,57.3,19.2,120.9,8.8,180,3.5,12.7-3.6,26.4-4.9,39.9-6.3,23.2-2.3,46.5-4.6,65.6-18.1,36.3-21.2,61.1-53.9,78.5-91.7,12.8-23.8,24.7-48.7,27.8-75.8,7.9-69.5-24.4-134.7-58.1-193.3-12.7-25-31.6-45.8-46.7-69.1-10.7-18.4-16.3-39.1-23.8-58.9-11.1-12.1-14.7-30.8-23.5-45-7.1-11.3-15.3-22.1-24.4-32.1-1.4-4-4.1-6.9-7.5-9.3h0c.2.2.5.4.7.5-.2-.2-.5-.3-.7-.5h0s0,0,0,0c0,0-.1,0-.2-.1,0,0-.1,0-.2-.1h0s0,0-.1,0c-.2-.1-.3-.3-.5-.4.2.1.3.2.5.3-1-.7-2.1-1.3-3.2-1.7-10.3-9.8-21.5-18.7-33.4-26.4,1.6-.2,3.2-.3,4.8-.5,3.9-.2,7.9-.2,11.8,0,1.5.1,3,.2,4.5.1,2.3-.1,4.5-.3,6.8-.5,2-.1,4.1-.2,6.1-.1.7,0,1.5,0,2.2.1,1.9.4,4,.4,6,.4,1.4,0,2.9-.1,4.3-.4,24.2,22.1,43.9,49,56.5,79.3,14.5,21.8,17.4,50.3,30,73.7,35.1,50.8,71.1,101.8,92.9,160.3,27.6,64.7,28.4,141.2-8.2,202.6-22.1,49.8-54.4,89.7-102,117.1-7.2,4.2-14.8,7-22.6,9h0Z"/>
  <path class="cls-1" d="M561.3,162.9s-.1,0-.2-.1h0s0,0,.1.1h0Z"/>
  <path class="cls-1" d="M445.8,93.9c.3-.1.5-.3.7-.4h-.3c-.2.2-.3.3-.5.4h0Z"/>
  <path class="cls-1" d="M375.8,436.3c-1,.3-2,.4-3.1.3-3-.1-6-1.4-8-3.7-4.3-4.7-3.9-12.2.7-16.5,4.6-4.3,12-4.1,16.3.5,2.1,2.3,3.2,5.3,3,8.4-.1,3.2-1.6,5.8-3.7,8.1-1.6,1.3-3.3,2.3-5.2,2.8h0Z"/>
  <path class="cls-1" d="M489.4,456.3c-12.2,3.2-18-14.5-8.9-22.3,6.5-5,15.9-5.5,21.4-12.2-17.2-28.6-30.9-13.1-33.5-31,.7-51.6,109.9,37.2,22.8,64.9-.6.3-1.2.5-1.8.6h0Z"/>
  <path class="cls-1" d="M559.1,604.4c-92.4,15.6-220,47.2-287.2-38.1-5.3-9.3,4.1-23.1,14.8-19.3,8.9,5.2,12.3,16.7,21.8,21.7,30.3,19.9,67.3,27.9,103.1,29.7,53.6-6.4,141.4-6.1,183.8-38.8,6.3-8.3,19.4-4.2,19.9,6.2-2.5,22.7-37.7,31.5-56.2,38.6h0Z"/>
  <path class="cls-1" d="M79.3,457.5c-1.1.3-2.3.6-3.5.8-20,4.6-19.2-30.9-.6-31.4,24.8-5.8,38.9-28.4,50.3-49.3,19.9-28.4,46.9-51.1,65.5-80.7,22.7-30.3,55.6-49.4,86.4-70.3,44-28,91.5-49.9,142-63.1,13.9-3.6,27.7-8.7,41.5-13.9,9.4-3.5,18.8-7,28.2-10,2.4-.3,4.9-.6,7.3-.9,7.4-.9,14.7-1.7,21.9-3.1-.7.1-1.4.3-2,.4,4.3-.9,8.7-1.4,13.1-1.8,3.9-.2,7.9-.2,11.8,0,1.5.1,3,.2,4.5.1,2.3-.1,4.5-.3,6.8-.5,2-.1,3.9-.2,5.9-.1,9.8,5.7,11.8,21.9,3,29.2-.2-.1-.4-.3-.6-.4.2.1.4.3.6.4-3.3-2.2-6.7-3.3-10.8-3.6-1,0-1.9,0-2.8.2-.6-.1-1.2-.3-1.8-.4-3.3-.6-6.5,0-9.3,1.5-6.4,0-12.9.9-19.2,2-49.9,13.2-98.1,32.9-147.9,47.2-44.9,19.5-86.8,45.1-126.6,73.4-38.4,28.9-60.3,73.2-94.9,106.2-16.4,28.5-34.9,59.3-68.6,68.1h0Z"/>
  <path class="cls-1" d="M59.4,460.7c-2.9.8-6,.2-8.5-1.5-5.7-3.9-6.9-12.1-3.8-17.9,3.1-5.7,10.2-8.3,15.8-4.5,2.7,1.8,4.5,4.8,5.2,8,.7,3.5,0,6.7-1.4,9.9-1.7,2.8-3.9,5-7.1,6,0,0-.2,0-.2,0h0Z"/>
  <path class="cls-1" d="M330.7,223.8c-5.2,1.4-10.5-2.5-12.3-7.6-4.6-10.7,3.4-19.6,9.3-27.7,14.5-17.9,21.8-40.2,36.4-57.9,16-18.5,36.7-32.1,55.4-47.7,18.5-16.7,38.3-32.3,62.3-40.2,68.8-28.5,144.1-38.9,217.3-22.4,52.2,18,82.6,32.9,21.3,71.3-16.4,11.9-36.4,17-53.7,27.4-16.9,11.3-35,20.4-54.6,26.1-10.1,3.6-20.7,6.6-29.8,12.3-10.8,3.9-18.1-10-13.4-18.8,12.1-15.5,36.1-16.2,53.2-24.5,25.3-10.8,47.1-28.1,73.1-37.7,7.9-4.3,19.7-10.7,23.7-17-28.3-15.5-61.4-14.7-92.7-16.1-48.6-4.3-95.8,12.8-141,29.4-1.2.3-2.4.7-3.5,1.3-.9.3-1.8.7-2.7,1-2.2,1-4.4,2.1-6.6,3.2-2,.8-4.1,1.5-6.1,2.4-.9.4-1.8.8-2.6,1.3-2.3.7-4.5,1.8-6.5,3.3-.7.5-1.3,1-1.9,1.5-2.5,1.6-4.9,3.3-7.2,5.1-3.2,2.6-7.1,4.5-9.1,8.3-.2.4-.4.8-.6,1.3-15.9,12.9-30.9,27.2-47.1,39.3-26.1,22.3-33.5,59.2-58.7,82.4-.6.3-1.2.6-1.9.7h0Z"/>
  <path class="cls-1" d="M445.8,93.9c.3-.1.5-.2.7-.4h-.3c-.2.2-.3.3-.5.4h0Z"/>
  <path class="cls-1" d="M133.1,162.3c-52.4,10.4-79.3-42.1-40.5-78.1,17.9-13.6,48.9-24.5,65.1-3.1,10.3,11.1,17.8,51.4-8.1,40.3-5-4.2-4.8-11.8-7.2-17.4-6.8-13.6-26.2-2.7-35.5,2.9-25.2,19.3,6.3,29,24.6,26.3,13.6,2.2,13.1,24,1.7,29.1h0Z"/>
  <path class="cls-1" d="M99.9,660c-47.1,12.3-84.2-55.8-59.7-94.2,8.3-15.9,23.5-29,41.8-30.7,14.4-.3,41.3-3.3,43.1,16.4,2.6,12.8-15.1,20.4-21.6,8.6-1.6-3.6-8.6-1.8-12.1-2.5-33.7-2.2-47.1,45.4-24.8,66.9,6.4,6.3,13.8,16.5,24,13.8,14.9-4.1,34.5-8.2,41.3-23.8,2.2-6.7,4.5-15.3,13.1-15.1,18.5,1.4,10.1,23.2,3.4,33-10.6,15.4-29.4,21.7-46.4,26.9-.7.2-1.4.4-2.1.6h0Z"/>
  <path class="cls-1" d="M704.4,360.9c-13,3.4-19.8-14.6-8.4-22,18.9-12.5,23-28.2,10.4-47.5-15.5-18.5-23.2-12.6-34.5,5.4-6.8,7.3-19.8,2-19.7-8,12.8-37.1,49-43.5,73-10.7,21.4,31.2,11.8,63.1-19.5,82.3-.4.2-.8.3-1.3.4h0Z"/>
  <path class="cls-1" d="M551.4,342.3c-1,.3-2,.4-3.1.3-3-.1-6-1.4-8-3.7-4.3-4.7-3.9-12.2.7-16.5,4.6-4.3,12-4.1,16.3.5,2.1,2.3,3.2,5.3,3,8.4-.1,3.2-1.6,5.8-3.7,8.1-1.6,1.3-3.3,2.3-5.2,2.8h0Z"/>
</svg>